<?xml version="1.0" encoding="UTF-8" standalone="no"?>
<!-- Created with Inkscape (http://www.inkscape.org/) by Marsupilami -->
<svg xmlns:dc="http://purl.org/dc/elements/1.1/" xmlns:cc="http://creativecommons.org/ns#" xmlns:rdf="http://www.w3.org/1999/02/22-rdf-syntax-ns#" xmlns:svg="http://www.w3.org/2000/svg" xmlns="http://www.w3.org/2000/svg" xmlns:sodipodi="http://sodipodi.sourceforge.net/DTD/sodipodi-0.dtd" xmlns:inkscape="http://www.inkscape.org/namespaces/inkscape" version="1.0" width="988.69861" height="265.76291" viewBox="0 0 139.40625 37.4391" id="svg3899" inkscape:version="0.48.2 r9819" sodipodi:docname="AJAX.svg">
  <metadata id="metadata12">
    <rdf:RDF>
      <cc:Work rdf:about="">
        <dc:format>image/svg+xml</dc:format>
        <dc:type rdf:resource="http://purl.org/dc/dcmitype/StillImage"/>
      </cc:Work>
    </rdf:RDF>
  </metadata>
  <sodipodi:namedview pagecolor="#ffffff" bordercolor="#666666" borderopacity="1" objecttolerance="10" gridtolerance="10" guidetolerance="10" inkscape:pageopacity="0" inkscape:pageshadow="2" inkscape:window-width="1280" inkscape:window-height="1004" id="namedview10" showgrid="false" fit-margin-top="0" fit-margin-left="0" fit-margin-right="0" fit-margin-bottom="0" inkscape:zoom="0.88940775" inkscape:cx="477.38276" inkscape:cy="62.738291" inkscape:window-x="-8" inkscape:window-y="-8" inkscape:window-maximized="1" inkscape:current-layer="svg3899"/>
  <defs id="defs3901">
    <clipPath id="clipPath2538">
      <path d="m -12.662,378.829 224.482,0 0,-173.463 -224.482,0 0,173.463 z" id="path2540" inkscape:connector-curvature="0"/>
    </clipPath>
  </defs>
  <g transform="translate(-302.80812,-513.64263)" id="layer1">
    <g transform="matrix(1.25,0,0,-1.25,250.18062,897.24843)" clip-path="url(#clipPath2538)" id="g2536">
      <path d="m 68.794,282.547 c -2.745,-3.429 -6.969,-5.627 -11.704,-5.627 -8.278,0 -14.988,6.71 -14.988,14.99 0,8.275 6.71,14.988 14.988,14.988 4.735,0 8.959,-2.199 11.704,-5.629 l -0.485,-0.296 c -2.397,2.522 -5.785,4.095 -9.54,4.095 -7.269,0 -13.162,-5.893 -13.162,-13.161 0,-7.268 5.893,-13.161 13.162,-13.161 3.756,0 7.146,1.573 9.543,4.101 l 0.482,-0.3 z" id="path2542" style="fill:#e31836;fill-opacity:1;fill-rule:nonzero;stroke:none" inkscape:connector-curvature="0"/>
      <path d="m 135.59375,5.28125 -3.6875,1.875 -0.125,2.9375 -2.75,0 0,2.875 2.75,0 0,9.71875 c 0,3.456249 1.985,5 4.59375,5 1.48749,-1e-6 2.41,-0.2925 2.59375,-0.34375 l 0.4375,-2.9375 c -0.13,0.02875 -0.84625,0.25 -1.65625,0.25 -1.4475,0 -2.25,-0.55875 -2.25,-2.25 l 0,-9.4375 3.5625,0 0,-2.875 -3.5625,0 z M 21,9.34375 c -5.914999,2e-7 -9.71875,3.87 -9.71875,9.40625 0,5.511249 3.7875,9.375 9.71875,9.375 5.404999,0 7.4525,-3.5 7.78125,-4.03125 L 25.875,22.28125 C 25.515001,22.786249 24.1225,24.6875 21,24.6875 c -3.372499,0 -5.8125,-2.5275 -5.8125,-5.9375 0,-3.442501 2.4825,-6 5.8125,-6 3.137501,0 4.615,2.06375 4.84375,2.40625 L 28.75,13.375 C 28.51875,12.97125 26.47375,9.34375 21,9.34375 z m 17.96875,0.4375 c -5.882498,0 -9.25,3.9625 -9.25,8.96875 0,5.009999 3.34,8.9375 9.25,8.9375 5.621252,-1e-6 9.09375,-3.8875 9.09375,-8.9375 10e-7,-5.006251 -3.4725,-8.96875 -9.09375,-8.96875 z m 19.28125,0 c -2.65875,0 -4.036252,1.67125 -4.28125,1.96875 l -0.09375,0 -0.03125,-1.65625 -3.46875,0 0,17.28125 3.6875,0 0,-10.8125 c 0,-2.21375 1.147501,-3.59375 3.1875,-3.59375 2,0 3.187499,1.318751 3.1875,3.59375 l 0,10.8125 3.6875,0 0,-10.8125 c 0,-2.21 1.147503,-3.59375 3.1875,-3.59375 1.99875,0 3.187503,1.321251 3.1875,3.59375 l 0,10.8125 3.65625,0 0,-11.625 c 0,-3.52625 -2.378752,-5.96875 -6.3125,-5.96875 -3.25375,0 -4.729998,2.015 -5.09375,2.46875 -0.265,-0.4325 -1.426248,-2.46875 -4.5,-2.46875 z m 27.46875,0 c -5.633754,0 -9.25,3.6975 -9.25,8.96875 -3e-6,5.248749 3.6,8.9375 9.25,8.9375 5.144999,-1e-6 7.09375,-3.36875 7.40625,-3.875 L 90.34375,22.125 c -0.342497,0.480001 -1.65,2.28125 -4.625,2.28125 -3.210001,0 -5.5625,-2.41 -5.5625,-5.65625 3e-6,-3.278751 2.39375,-5.6875 5.5625,-5.6875 2.988749,0 4.405,1.9225 4.625,2.25 l 2.75,-1.6875 C 92.876252,13.2425 90.93,9.78125 85.71875,9.78125 z m 17.5625,0 c -5.202498,0 -9,3.53 -9,8.96875 2e-6,5.1475 3.56625,8.9375 9.03125,8.9375 3.2875,-1e-6 5.07375,-1.86625 5.5,-2.3125 l 0.0625,0 c 0.002,0.02125 0.0312,2 0.0312,2 l 3.75,0 0,-17.28125 -3.75,0 c 0,0 -0.025,1.72375 -0.0312,2 l -0.0625,0 c -0.31375,-0.3175 -2.0475,-2.3125 -5.53125,-2.3125 z m 18.5,0 c -3.65375,0 -6.3125,1.8575 -6.3125,4.875 0,2.6625 1.94875,4.14875 4.25,4.9375 l 1.96875,0.6875 c 1.88375,0.62875 2.625,1.298751 2.625,2.375 0,1.21 -1.3725,1.999999 -3.25,2 -2.65875,0 -4.55375,-1.115 -4.9375,-1.3125 l -1.46875,2.8125 c 0.6175,0.375 2.60125,1.531249 6.25,1.53125 4.01375,0 7.125,-1.798751 7.125,-5.40625 0,-2.63875 -1.86125,-4.124999 -4.78125,-5.125 l -1.84375,-0.625 c -1.61875,-0.56 -2.21875,-1.2125 -2.21875,-2.0625 0,-0.8075 0.72625,-1.65625 2.5,-1.65625 2.305,0 3.9375,0.90625 4.25,1.0625 l 1.4375,-2.65625 c -0.62875,-0.38125 -2.3725,-1.4374996 -5.59375,-1.4375 z m -82.8125,3.28125 c 2.880002,0 5.375,2.405 5.375,5.6875 -10e-7,3.21 -2.43375,5.65625 -5.375,5.65625 -3.341248,0 -5.53125,-2.56625 -5.53125,-5.65625 -2e-6,-3.086251 2.215,-5.6875 5.53125,-5.6875 z m 64.09375,0 c 0.20145,-0.01805 0.41547,0 0.625,0 3.57875,0 5.71875,2.605 5.71875,5.6875 0,3.06375 -2.15125,5.65625 -5.71875,5.65625 -3.59875,0 -5.71875,-2.58875 -5.71875,-5.65625 0,-3.128907 2.07196,-5.416824 5.09375,-5.6875 z" transform="matrix(0.8,0,0,-0.8,42.102,306.898)" id="path2544" style="fill:#000000;fill-opacity:1;fill-rule:nonzero;stroke:none" inkscape:connector-curvature="0" sodipodi:nodetypes="ccccccssccsscccccsssccsssccsssssssccccccsssccsssccsscssssccsssccssssccccccccsssccssccssccssccssssssssssss"/>
    </g>
  </g>
</svg>