<?xml version="1.0" encoding="UTF-8" standalone="no"?>
<!-- Created with Inkscape (http://www.inkscape.org/) -->
<svg xmlns:dc="http://purl.org/dc/elements/1.1/" xmlns:cc="http://creativecommons.org/ns#" xmlns:rdf="http://www.w3.org/1999/02/22-rdf-syntax-ns#" xmlns:svg="http://www.w3.org/2000/svg" xmlns="http://www.w3.org/2000/svg" xmlns:sodipodi="http://sodipodi.sourceforge.net/DTD/sodipodi-0.dtd" xmlns:inkscape="http://www.inkscape.org/namespaces/inkscape" width="357.90298" height="52.5116" id="svg3351" version="1.1" inkscape:version="0.48.0 r9654" sodipodi:docname="New document 3">
  <defs id="defs3353"/>
  <sodipodi:namedview id="base" pagecolor="#ffffff" bordercolor="#666666" borderopacity="1.0" inkscape:pageopacity="0.0" inkscape:pageshadow="2" inkscape:zoom="1.4" inkscape:cx="124.75103" inkscape:cy="29.192654" inkscape:document-units="px" inkscape:current-layer="layer1" showgrid="false" fit-margin-top="0" fit-margin-left="0" fit-margin-right="0" fit-margin-bottom="0" showborder="false" inkscape:showpageshadow="false" inkscape:window-width="1366" inkscape:window-height="706" inkscape:window-x="-8" inkscape:window-y="-8" inkscape:window-maximized="1"/>
  <metadata id="metadata3356">
    <rdf:RDF>
      <cc:Work rdf:about="">
        <dc:format>image/svg+xml</dc:format>
        <dc:type rdf:resource="http://purl.org/dc/dcmitype/StillImage"/>
        <dc:title/>
      </cc:Work>
    </rdf:RDF>
  </metadata>
  <g inkscape:label="Layer 1" inkscape:groupmode="layer" id="layer1" transform="translate(-275.517,-674.77618)">
    <path inkscape:connector-curvature="0" d="m 317.35892,711.83751 c -1.5561,5.13637 -3.8571,11.9251 -15.50638,11.9251 -11.03308,0 -18.35337,-9.34522 -18.44307,-22.49011 -0.0858,-13.94379 6.80939,-23.02011 18.92277,-23.02011 10.23748,0 13.27168,6.24703 14.36758,12.90326 l 2.51549,0 0,-12.57201 c -2.82359,-1.62509 -10.51048,-3.80746 -17.04297,-3.80746 -15.93538,0 -26.85536,10.78325 -26.65256,26.7964 0.2106,15.49873 9.81628,25.68182 25.61906,25.68182 8.94659,0 13.86058,-2.36553 18.52497,-4.74276 0.0351,-0.003 1.1505,-13.43327 1.1505,-13.43327 l -2.6364,0 -0.81899,2.75914" style="fill:#005ed1;fill-opacity:1;fill-rule:nonzero;stroke:none" id="path3023"/>
    <path inkscape:connector-curvature="0" d="m 354.15648,723.76261 c -11.38408,0 -18.43917,-8.74507 -18.43917,-22.83305 0,-13.99446 7.05509,-22.67717 18.43917,-22.67717 11.74678,0 18.76677,8.52293 18.76677,22.82526 0,14.20879 -7.01999,22.68496 -18.76677,22.68496 z m 26.64086,-23.54232 c 0,-15.70138 -9.72269,-25.44411 -25.38506,-25.44411 -16.75048,0 -27.59636,10.41692 -27.59636,26.54698 0,16.22359 9.52768,25.92345 25.47086,25.92345 16.96887,0 27.51056,-10.36626 27.51056,-27.02632" style="fill:#005ed1;fill-opacity:1;fill-rule:nonzero;stroke:none" id="path3009"/>
    <path inkscape:connector-curvature="0" d="m 467.36031,678.01336 10.89268,1.8862 1.2129,33.05902 -30.38096,-37.08862 -15.31527,0 0,2.12002 8.21339,1.87061 -0.3159,42.27174 -7.33589,1.76538 c -2.0709,-0.59236 -5.35469,-1.46141 -9.72269,-6.90175 0,0 -11.36458,-14.05291 -12.79198,-15.82219 4.50449,-1.24317 11.78188,-4.56349 11.78188,-13.08253 0,-5.58843 -3.03029,-12.22128 -17.48367,-12.22128 l -22.55757,0 0,2.12002 8.19389,1.87061 -0.005,42.26005 -8.18609,1.90178 0,2.13171 22.38207,0 0,-2.11223 -7.24619,-1.90568 0,-42.53674 c 2.1606,-0.35464 4.29779,-0.58846 5.74469,-0.58846 8.01839,0 11.91448,2.99686 11.91448,9.14647 0,9.54787 -7.70248,10.91965 -10.85758,11.34054 -1.0725,0.13639 -2.3361,0.19875 -3.46319,0.19875 l 0,2.11612 2.80409,0.89243 11.84038,15.36233 c 3.9546,5.13247 6.82889,8.08647 20.23317,8.08647 l 19.79637,0 0,-2.1434 -9.85918,-1.91348 -1.2168,-39.68017 36.22315,44.79316 0.97109,0 0.6084,-47.36135 6.63779,-1.88619 0,-2.09274 -22.71356,0 0,2.1434" style="fill:#005ed1;fill-opacity:1;fill-rule:nonzero;stroke:none" id="path3011"/>
    <path inkscape:connector-curvature="0" d="m 518.08363,724.02891 -8.19779,-1.89788 -0.0104,-42.26785 8.21729,-1.8706 0,-2.12391 -23.34146,0 0,2.12391 8.17828,1.8706 0,42.26785 -8.17828,1.89788 0,2.12392 23.33366,-0.013 0,-2.11223" style="fill:#005ed1;fill-opacity:1;fill-rule:nonzero;stroke:none" id="path3035"/>
    <path inkscape:connector-curvature="0" d="m 545.72419,724.01852 -9.86699,-1.90178 -1.21679,-39.68797 36.21534,44.78147 0.9594,0 0.6279,-47.35745 6.62999,-1.89009 0,-2.09274 -22.69797,0 -0.008,2.1434 10.87319,1.8862 1.22069,33.05902 -30.35365,-37.08862 -15.32308,0 0,2.12002 8.17829,1.87061 -0.3042,42.27174 -7.87409,1.89009 0,2.12001 22.93977,0 0,-2.12391" style="fill:#005ed1;fill-opacity:1;fill-rule:nonzero;stroke:none" id="path3013"/>
    <path inkscape:connector-curvature="0" d="m 626.94211,706.66381 6.47789,-1.8745 0,-2.09273 -23.03336,-0.003 0,2.12391 9.61738,1.8823 0,13.04746 c -3.38129,2.6734 -7.14089,4.24003 -13.00258,4.04907 -10.49878,-0.33515 -17.90877,-9.32573 -17.90877,-22.47452 0.008,-14.51666 6.82499,-23.0396 19.22697,-23.0396 10.90828,0 13.95418,7.06153 15.03838,12.84091 l 2.32049,0 0,-12.42392 c -3.25259,-1.83553 -10.29598,-3.8893 -18.41577,-3.8893 -15.93927,0 -26.13386,10.47149 -26.04806,26.82758 0.0663,15.18306 10.00349,25.40123 25.33826,25.64285 10.52219,0.17537 16.03678,-2.77473 20.37357,-5.3546 -0.0234,0.0468 0.0156,-15.26101 0.0156,-15.26101" style="fill:#005ed1;fill-opacity:1;fill-rule:nonzero;stroke:none" id="path3025"/>
  </g>
</svg>