<svg xmlns="http://www.w3.org/2000/svg" width="700" height="294.4" viewBox="0 0 700.00001 294.42258">
  <path d="M602.2 128.6c-11.7 2.7-42.6 4.2-42.6 4.2l-3.8 12.2s15.3-1.3 26.5-.2c0 0 3.6-.3 4 4 .2 4.4-.3 9-.3 9s-.3 2.7-4 3.4c-4.3.7-33.3 2-33.3 2L544 179s-1.7 3.6 2.2 2.6c3.6-1 34-6.8 38-6 4.2 1 9 6.8 7.6 12-1.6 6.3-32 25.7-50.4 24.4 0 0-9.7.6-17.8-12.5-7.8-12.5 2.7-36 2.7-36s-4.7-11-1.2-15c0 0 2-1.7 8-2.2l7.5-15.4s-8.5.5-13.5-5.7c-4.6-6-5-8.6-1.4-10.2 3.8-2 39-8.3 63.2-7.5 0 0 8.5-1 16 13.7 0 0 3.4 6-2.6 7.4M511 187.8c-3 7.3-11.3 15-21.3 10.3-10.2-4.8-26.3-37.6-26.3-37.6s-6-12.2-7.2-11.8c0 0-1.3-2.4-2 11-1 13.3.2 39.2-5.3 43.3-5 4-11 2.3-14.4-2.4-2.8-4.7-4-16-2.4-35.7 1.8-19.7 6.3-40.7 12-47.2 6-6.6 10.8-1.8 12.6 0 0 0 7.7 7 20.7 27.7l2.2 3.8s11.8 19.7 13 19.6c0 0 1 1 1.8.2 1.2-.3.8-6.7.8-6.7S493 141 482 105c0 0-1.6-4.6-.5-9 1-4 5.3-2 5.3-2s16.6 8 24.7 35c8 27 2.6 51.5-.4 58.8M429.6 118.5c-1.6 2.8-2.3 6.7-9.2 7.8 0 0-67 4.7-70.3 9.4 0 0-2.2 2.8 1.4 3.5 3.8.8 19 2.8 26.2 3.2 7.8 0 34 .2 43.6 12 0 0 5.5 5.6 5.3 18.3-.2 13-2.5 17.6-7.6 22.3-5.3 4.4-50.7 24.8-80-6.4 0 0-13.4-15 4.7-26.4 0 0 13-8 46.3 1.3 0 0 10 3.6 9.6 7.3-.6 4-8.3 8-19.5 7.8-10.8-.3-18.8-5.5-17.2-4.6 1.5.5-11.7-6.4-15.8-1.7-4 4.4-3 7 1 9.7 10 5.8 49.3 3.7 61-9.4 0 0 4.7-5.3-2.4-9.6-7-4-27.4-6.5-35.3-6.8-7.5-.4-35.6 0-39.8-7.3 0 0-4-5.2.4-19.4 4.6-15 37.3-20.8 51.5-22 0 0 39-1.6 46.3 6.4 0 0 1 1.8-.2 4.5M319 206.4c-4.7 3.5-14.7 2-17.6-2-2.8-3.5-3.8-17.3-3.3-39 .7-22.2 1-49.4 6-53.8 5-4.3 8-.5 10 2.4 2 3 4.6 6.3 5 13.2.6 7 2.3 43 2.3 43s2.2 32.8-2.3 36.2M329 89.4c-13.8 4.7-23.2 3.2-31.2-.3-3.5 6.3-5.6 8.2-8.2 8.6-4 .4-7.5-6-8-8-.8-1.5-2.7-4.2-.4-10.3-7.8-7-8.4-16.4-7-22.7 1.8-7.4 15-35.2 55-38.5 0 0 19.6-1.4 23 9h.6s19 0 18.6 17c0 17-21 38.2-42.4 45.5m17.8-48.7c-12.6 2-32 18.8-41.3 32.7 14.3 2.6 39.3 1.6 50.5-21 0 0 5.3-14.2-9.2-11.7m-55.3 11c-4 6.5-4.2 10.4-2.3 13 4.7-7 13-18 25.5-26.6-9.6 1-17.7 5-23.2 13.6M632.2 205.7c-9.2 22.6-17 45.5-21.5 79.8 0 0-1 6.7-6.5 4.5-5.5-2-14.5-11-16.5-23.7-2-16.6 5.4-44.6 20.5-76.8-4.4-7-7.5-17.4-5-32 0 0 4-27 31-51.4 0 0 3.2-2.7 5-1.8 2.2 1 1.3 9.6-.5 14-1.6 4.2-13.6 25-13.6 25s-7.5 14.2-5.4 25.3c14.2-21.8 46.5-66 66.5-52 12.7 9 12.7 38 3.2 54.8-7.5 13.3-28.7 40.8-57 34.4m41.6-68c-7.4 8-20.6 23.2-31 43.8 11-1.2 21.7-7.3 25-10.4 5.3-4.7 17.5-17.4 15.6-34.2 0 0-1.2-8.8-9.6.8M226 217.5c-35.4 10.8-68.8 5.8-87 1-.5 7.4-1.3 10.5-2.5 11.7-1.4 1.6-13 8.2-19.4-1.2-2.8-4.5-4.2-12.6-5-20-41-18.6-60-46-60.6-47-1-1-10.3-10.7-1-22.7 8.7-10.8 37.5-21.7 63.3-26 1-22 3.4-39 6.5-46.5 3.7-9 8.4-1 12.6 5 3.4 4.5 5.5 23.8 5.7 39.2 16.8-.8 27 .4 45.7 4 24.6 4.2 41 16.8 39.7 31-1.2 14-14 19.8-19 20.2-5 .4-13-3.3-13-3.3-5.6-2.6-.5-5 6-7.8 7.2-3.5 5.6-7 5.6-7-2.6-8-34.5-13.3-66.2-13.3 0 17.5.7 46.5 1.2 63.4 22.2 4.2 38.8 3.3 38.8 3.3s81-2.3 83.3-54c2.5-51.8-81-101.4-142.5-117C56.8 14.4 22 25.8 19 27.3c-3.3 1.6-.3 2.2-.3 2.2S22 30 28 32c6 2 1.2 5 1.2 5C18.7 40.6 7 38.5 4.7 33.7c-2.3-4.7 1.5-9 6-15.3 4.2-6.5 9-6.3 9-6.3 76-26.5 168.8 21 168.8 21 86.8 43.8 101.6 95.3 100 115.3-1.4 19.7-9 53-62.5 69.2M59 146c-8.6 4-2.6 10.4-2.6 10.4 16.2 17.3 36 28.2 55 35 2.2-30 2-40.7 2-55.8C84 137.6 67 142.4 59 146"/>
</svg>