<?xml version="1.0" encoding="UTF-8"?>
<svg id="icue_logo_dark" image-rendering="auto" baseProfile="basic" version="1.1" x="0px" y="0px" width="289" height="149" xmlns="http://www.w3.org/2000/svg" xmlns:xlink="http://www.w3.org/1999/xlink"><g id="Scene-1" overflow="visible"><path fill="#FFF" stroke="none" d="M286.05 39.95Q286.05 36.8 283.8 34.55 281.6 32.35 278.4 32.35L144.05 32.35Q126.2 32.35 110.9 23.45L79.8 5.5Q75.5 3 70.4 3 65.35 3 61 5.5L14.3 32.45Q9.9 34.95 7.4 39.35 4.85 43.7 4.85 48.75L4.85 102.7Q4.85 107.75 7.4 112.1 9.9 116.5 14.3 119L61 145.95Q65.35 148.55 70.4 148.55 75.5 148.55 79.8 145.95L110.9 128Q126.4 119.15 144.05 119.15L278.4 119.15Q281.6 119.15 283.8 116.9 286.05 114.65 286.05 111.55L286.05 39.95M278.4 34.15Q280.85 34.15 282.5 35.9 284.2 37.6 284.2 39.95L284.2 111.55Q284.2 113.95 282.5 115.65 280.85 117.3 278.4 117.3L144.05 117.3Q125.8 117.3 110 126.45L78.9 144.4Q74.95 146.7 70.4 146.7 65.8 146.7 61.95 144.4L15.25 117.45Q11.3 115.2 9 111.2 6.7 107.25 6.7 102.7L6.7 48.75Q6.7 44.25 9 40.3 11.3 36.4 15.25 34.1L61.95 7.15Q65.8 4.85 70.4 4.85 74.9 4.85 78.9 7.15L110 25.1Q125.85 34.15 144.05 34.15L278.4 34.15M141.95 108.2L143.85 108.2 140.4 100.05 138.75 100.05 135.25 108.2 137.1 108.2 137.8 106.4 141.25 106.4 141.95 108.2M139.55 102.25L140.6 104.85 138.5 104.85 139.55 102.25M152.4 101.65Q153.55 101.65 154.45 102.55L155.65 101.25Q154.25 100 152.4 100 150.6 100 149.4 101.25 148.2 102.45 148.2 104.2 148.2 105.9 149.4 107.15 150.6 108.35 152.35 108.35 154.4 108.35 155.65 106.9L154.55 105.8Q153.6 106.7 152.4 106.7 151.35 106.7 150.7 106 150.05 105.25 150.05 104.2L150.05 104.15Q150.05 103.1 150.7 102.35 151.35 101.65 152.4 101.65M75.7 65.1L65.15 65.1 65.15 82.9 75.7 82.9 75.7 65.1M75.7 47.65L65.15 47.65 65.15 58.15 75.7 58.15 75.7 47.65M87.3 75.75Q87.3 82.75 82.4 87.7 77.4 92.7 70.4 92.7 63.45 92.7 58.45 87.7 53.45 82.75 53.45 75.75 53.45 68.75 58.45 63.75L50.95 56.35Q47.15 60.15 45.1 65.1 42.95 70.2 42.95 75.75 42.95 87.1 50.95 95.2 59.05 103.2 70.4 103.2 81.8 103.2 89.9 95.2 97.9 87.1 97.9 75.75 97.9 70.15 95.75 65.1 93.65 60.15 89.8 56.35L82.4 63.75Q87.3 68.85 87.3 75.75M249.95 101.8L249.95 100.15 243.75 100.15 243.75 108.2 245.55 108.2 245.55 105.05 249.4 105.05 249.4 103.5 245.55 103.5 245.55 101.8 249.95 101.8M254.9 100.05L253.25 100.05 249.75 108.2 251.6 108.2 252.3 106.4 255.75 106.4 256.45 108.2 258.3 108.2 254.9 100.05M254 102.25L255.1 104.85 252.95 104.85 254 102.25M265 102.55L266.1 101.25Q264.75 100 262.9 100 261.15 100 259.9 101.25 258.7 102.45 258.7 104.2 258.7 105.9 259.9 107.15 261.05 108.35 262.85 108.35 264.85 108.35 266.2 106.9L265 105.8Q264.1 106.7 262.9 106.7 261.85 106.7 261.2 106 260.55 105.25 260.55 104.2L260.55 104.15Q260.55 103.1 261.2 102.35 261.85 101.65 262.9 101.65 263.95 101.65 265 102.55M273.7 101.7L273.7 100.15 267.55 100.15 267.55 108.2 273.75 108.2 273.75 106.65 269.35 106.65 269.35 104.95 273.15 104.95 273.15 103.35 269.35 103.35 269.35 101.7 273.7 101.7M165.1 104.2L165.1 104.15Q165.1 102.35 163.95 101.2 162.7 100 160.85 100 159 100 157.75 101.25 156.5 102.45 156.5 104.2 156.5 106 157.7 107.15 158.95 108.35 160.75 108.35 162.6 108.35 163.85 107.1 165.1 105.9 165.1 104.2M162.55 102.35Q163.25 103.1 163.25 104.2 163.25 105.25 162.6 106 161.9 106.7 160.85 106.7 159.8 106.7 159.05 106 158.4 105.25 158.4 104.2L158.4 104.15Q158.4 103.1 159.05 102.35 159.7 101.65 160.75 101.65 161.8 101.65 162.55 102.35M173.45 102.85Q173.45 101.65 172.75 100.9 171.95 100.15 170.35 100.15L166.7 100.15 166.7 108.2 168.45 108.2 168.45 105.65 169.85 105.65 171.6 108.2 173.65 108.2 171.7 105.35Q173.45 104.65 173.45 102.85M170.3 104.1L168.45 104.1 168.45 101.7 170.25 101.7Q171.6 101.7 171.6 102.9 171.6 104.1 170.3 104.1M180.7 101.05Q179.3 100 177.65 100 176.4 100 175.65 100.65 174.85 101.4 174.85 102.45L174.85 102.5Q174.85 103.6 175.55 104.15 176.15 104.6 177.55 104.95 179.1 105.4 179.1 106 179.1 106.75 178 106.75 176.75 106.75 175.55 105.8L174.5 107.05Q176.05 108.35 177.95 108.35 179.3 108.35 180.1 107.7 180.9 107.05 180.9 105.85L180.9 105.8Q180.9 104.1 178.35 103.35 177.3 103.1 176.95 102.9 176.6 102.7 176.6 102.3 176.6 101.6 177.65 101.6 178.55 101.6 179.8 102.35L180.7 101.05M186.7 100.05L185.05 100.05 181.6 108.2 183.4 108.2 184.2 106.4 187.6 106.4 188.35 108.2 190.15 108.2 186.7 100.05M186.95 104.85L184.8 104.85 185.9 102.25 186.95 104.85M193.3 108.2L193.3 100.15 191.5 100.15 191.5 108.2 193.3 108.2M201.35 100.9Q200.55 100.15 199.05 100.15L195.3 100.15 195.3 108.2 197.05 108.2 197.05 105.65 198.5 105.65 200.25 108.2 202.35 108.2 200.35 105.35Q202.05 104.65 202.05 102.85 202.05 101.65 201.35 100.9M200.3 102.9Q200.3 104.1 198.9 104.1L197.05 104.1 197.05 101.7 198.85 101.7Q200.3 101.7 200.3 102.9M209.05 100.15L207.2 100.15 207.2 108.2 209.05 108.2 209.05 100.15M216.45 105.15L212.65 100.15 211 100.15 211 108.2 212.8 108.2 212.8 103.1 216.75 108.2 218.25 108.2 218.25 100.15 216.45 100.15 216.45 105.15M226.25 101.8L226.25 100.15 219.65 100.15 219.65 101.8 222.05 101.8 222.05 108.2 223.85 108.2 223.85 101.8 226.25 101.8M233.25 104.95L233.25 103.35 229.45 103.35 229.45 101.7 233.75 101.7 233.75 100.15 227.65 100.15 227.65 108.2 233.85 108.2 233.85 106.65 229.45 106.65 229.45 104.95 233.25 104.95M241.45 100.9Q240.65 100.15 239.1 100.15L235.4 100.15 235.4 108.2 237.2 108.2 237.2 105.65 238.55 105.65 240.35 108.2 242.4 108.2 240.4 105.35Q242.2 104.65 242.2 102.85 242.2 101.65 241.45 100.9M238.95 101.7Q240.35 101.7 240.35 102.9 240.35 104.1 239.05 104.1L237.2 104.1 237.2 101.7 238.95 101.7M171.7 58.45L178.25 50.85Q174.7 47.3 170.7 45.6 165.95 43.6 159.7 43.6 149.05 43.6 142.05 50.75 135.15 57.8 135.15 67.95L135.15 68.1Q135.15 78.3 142.05 85.25 149 92.3 159.35 92.3 165.75 92.3 170.55 90.05 174.7 88.1 178.65 83.9L172 77.25Q168.95 80.05 166.5 81.25 163.4 82.75 159.65 82.75 153.65 82.75 149.8 78.45 146 74.15 146 67.95L146 67.85Q146 61.75 149.85 57.45 153.75 53.2 159.65 53.2 165.9 53.2 171.7 58.45M227.25 44.45L216.85 44.45 216.85 71.4Q216.85 76.9 214.15 79.9 211.55 82.7 206.75 82.7 201.85 82.7 199.25 79.75 196.55 76.8 196.55 71.05L196.55 44.45 186.15 44.45 186.15 71.35Q186.15 81.6 191.6 87 196.95 92.25 206.6 92.25 216.35 92.25 221.65 87 227.25 81.45 227.25 71L227.25 44.45M248.15 53.65L273.75 53.65 273.75 44.45 237.85 44.45 237.85 91.5 273.75 91.5 273.75 82.3 248.15 82.3 248.15 72.4 270.4 72.4 270.4 63.15 248.15 63.15 248.15 53.65Z"/><path fill="#231F20" stroke="none" d="M282.5 35.9Q280.85 34.15 278.4 34.15L144.05 34.15Q125.85 34.15 110 25.1L78.9 7.15Q74.9 4.85 70.4 4.85 65.8 4.85 61.95 7.15L15.25 34.1Q11.3 36.4 9 40.3 6.7 44.25 6.7 48.75L6.7 102.7Q6.7 107.25 9 111.2 11.3 115.2 15.25 117.45L61.95 144.4Q65.8 146.7 70.4 146.7 74.95 146.7 78.9 144.4L110 126.45Q125.8 117.3 144.05 117.3L278.4 117.3Q280.85 117.3 282.5 115.65 284.2 113.95 284.2 111.55L284.2 39.95Q284.2 37.6 282.5 35.9M273.75 53.65L248.15 53.65 248.15 63.15 270.4 63.15 270.4 72.4 248.15 72.4 248.15 82.3 273.75 82.3 273.75 91.5 237.85 91.5 237.85 44.45 273.75 44.45 273.75 53.65M216.85 44.45L227.25 44.45 227.25 71Q227.25 81.45 221.65 87 216.35 92.25 206.6 92.25 196.95 92.25 191.6 87 186.15 81.6 186.15 71.35L186.15 44.45 196.55 44.45 196.55 71.05Q196.55 76.8 199.25 79.75 201.85 82.7 206.75 82.7 211.55 82.7 214.15 79.9 216.85 76.9 216.85 71.4L216.85 44.45M178.25 50.85L171.7 58.45Q165.9 53.2 159.65 53.2 153.75 53.2 149.85 57.45 146 61.75 146 67.85L146 67.95Q146 74.15 149.8 78.45 153.65 82.75 159.65 82.75 163.4 82.75 166.5 81.25 168.95 80.05 172 77.25L178.65 83.9Q174.7 88.1 170.55 90.05 165.75 92.3 159.35 92.3 149 92.3 142.05 85.25 135.15 78.3 135.15 68.1L135.15 67.95Q135.15 57.8 142.05 50.75 149.05 43.6 159.7 43.6 165.95 43.6 170.7 45.6 174.7 47.3 178.25 50.85M239.1 100.15Q240.65 100.15 241.45 100.9 242.2 101.65 242.2 102.85 242.2 104.65 240.4 105.35L242.4 108.2 240.35 108.2 238.55 105.65 237.2 105.65 237.2 108.2 235.4 108.2 235.4 100.15 239.1 100.15M233.25 103.35L233.25 104.95 229.45 104.95 229.45 106.65 233.85 106.65 233.85 108.2 227.65 108.2 227.65 100.15 233.75 100.15 233.75 101.7 229.45 101.7 229.45 103.35 233.25 103.35M226.25 100.15L226.25 101.8 223.85 101.8 223.85 108.2 222.05 108.2 222.05 101.8 219.65 101.8 219.65 100.15 226.25 100.15M212.65 100.15L216.45 105.15 216.45 100.15 218.25 100.15 218.25 108.2 216.75 108.2 212.8 103.1 212.8 108.2 211 108.2 211 100.15 212.65 100.15M207.2 100.15L209.05 100.15 209.05 108.2 207.2 108.2 207.2 100.15M199.05 100.15Q200.55 100.15 201.35 100.9 202.05 101.65 202.05 102.85 202.05 104.65 200.35 105.35L202.35 108.2 200.25 108.2 198.5 105.65 197.05 105.65 197.05 108.2 195.3 108.2 195.3 100.15 199.05 100.15M193.3 100.15L193.3 108.2 191.5 108.2 191.5 100.15 193.3 100.15M185.05 100.05L186.7 100.05 190.15 108.2 188.35 108.2 187.6 106.4 184.2 106.4 183.4 108.2 181.6 108.2 185.05 100.05M177.65 100Q179.3 100 180.7 101.05L179.8 102.35Q178.55 101.6 177.65 101.6 176.6 101.6 176.6 102.3 176.6 102.7 176.95 102.9 177.3 103.1 178.35 103.35 180.9 104.1 180.9 105.8L180.9 105.85Q180.9 107.05 180.1 107.7 179.3 108.35 177.95 108.35 176.05 108.35 174.5 107.05L175.55 105.8Q176.75 106.75 178 106.75 179.1 106.75 179.1 106 179.1 105.4 177.55 104.95 176.15 104.6 175.55 104.15 174.85 103.6 174.85 102.5L174.85 102.45Q174.85 101.4 175.65 100.65 176.4 100 177.65 100M172.75 100.9Q173.45 101.65 173.45 102.85 173.45 104.65 171.7 105.35L173.65 108.2 171.6 108.2 169.85 105.65 168.45 105.65 168.45 108.2 166.7 108.2 166.7 100.15 170.35 100.15Q171.95 100.15 172.75 100.9M165.1 104.15L165.1 104.2Q165.1 105.9 163.85 107.1 162.6 108.35 160.75 108.35 158.95 108.35 157.7 107.15 156.5 106 156.5 104.2 156.5 102.45 157.75 101.25 159 100 160.85 100 162.7 100 163.95 101.2 165.1 102.35 165.1 104.15M273.7 100.15L273.7 101.7 269.35 101.7 269.35 103.35 273.15 103.35 273.15 104.95 269.35 104.95 269.35 106.65 273.75 106.65 273.75 108.2 267.55 108.2 267.55 100.15 273.7 100.15M266.1 101.25L265 102.55Q263.95 101.65 262.9 101.65 261.85 101.65 261.2 102.35 260.55 103.1 260.55 104.15L260.55 104.2Q260.55 105.25 261.2 106 261.85 106.7 262.9 106.7 264.1 106.7 265 105.8L266.2 106.9Q264.85 108.35 262.85 108.35 261.05 108.35 259.9 107.15 258.7 105.9 258.7 104.2 258.7 102.45 259.9 101.25 261.15 100 262.9 100 264.75 100 266.1 101.25M253.25 100.05L254.9 100.05 258.3 108.2 256.45 108.2 255.75 106.4 252.3 106.4 251.6 108.2 249.75 108.2 253.25 100.05M249.95 100.15L249.95 101.8 245.55 101.8 245.55 103.5 249.4 103.5 249.4 105.05 245.55 105.05 245.55 108.2 243.75 108.2 243.75 100.15 249.95 100.15M118.6 41.1L119.2 43.65Q120.4 53.7 118.6 63.85 116.85 73.9 112.35 82.95 113.6 71.8 111.4 60.8 109.15 49.45 103.3 39.3 99.55 32.8 94.2 26.85L118.6 41.1M84.4 27.9Q92.25 34.5 97.9 42.9 88.85 36.2 78.25 32.65 67.25 29 55.55 29 47.9 29 40.3 30.6L63.6 17.2Q64.35 16.75 64.75 16.6L67.2 17.4Q76.55 21.4 84.4 27.9M82.4 87.7Q87.3 82.75 87.3 75.75 87.3 68.85 82.4 63.75L89.8 56.35Q93.65 60.15 95.75 65.1 97.9 70.15 97.9 75.75 97.9 87.1 89.9 95.2 81.8 103.2 70.4 103.2 59.05 103.2 50.95 95.2 42.95 87.1 42.95 75.75 42.95 70.2 45.1 65.1 47.15 60.15 50.95 56.35L58.45 63.75Q53.45 68.75 53.45 75.75 53.45 82.75 58.45 87.7 63.45 92.7 70.4 92.7 77.4 92.7 82.4 87.7M118.35 85.25Q122.15 78.7 124.55 71.2L124.45 99.4 122.55 101.2Q105.95 113.6 85.1 114.95 95.4 110.45 103.8 103.1 112.5 95.4 118.35 85.25M65.15 47.65L75.7 47.65 75.7 58.15 65.15 58.15 65.15 47.65M18.25 49.25Q26.4 43.2 36 39.65 45.6 36.15 55.7 35.5 45.35 39.95 37 47.4 28.25 55 22.45 65.15 18.65 71.7 16.3 79.2L16.35 51 18.25 49.25M22 87.7Q23.8 77.65 28.25 68.55 26.95 79.75 29.2 90.75 31.5 102.1 37.35 112.15 41.3 119 46.4 124.6L23.15 111.1Q22.35 110.7 22 110.45L21.4 107.9Q20.25 97.85 22 87.7M65.15 65.1L75.7 65.1 75.7 82.9 65.15 82.9 65.15 65.1M56.65 123.55Q48.85 117.05 43.2 108.6 52.25 115.3 62.85 118.85 73.85 122.55 85.55 122.55 93.25 122.55 100.8 120.85L76.35 134.9Q75.5 134.7 75.1 134.5L73.85 134.15Q64.55 130.2 56.65 123.55M154.45 102.55Q153.55 101.65 152.4 101.65 151.35 101.65 150.7 102.35 150.05 103.1 150.05 104.15L150.05 104.2Q150.05 105.25 150.7 106 151.35 106.7 152.4 106.7 153.6 106.7 154.55 105.8L155.65 106.9Q154.4 108.35 152.35 108.35 150.6 108.35 149.4 107.15 148.2 105.9 148.2 104.2 148.2 102.45 149.4 101.25 150.6 100 152.4 100 154.25 100 155.65 101.25L154.45 102.55M143.85 108.2L141.95 108.2 141.25 106.4 137.8 106.4 137.1 108.2 135.25 108.2 138.75 100.05 140.4 100.05 143.85 108.2M140.6 104.85L139.55 102.25 138.5 104.85 140.6 104.85M255.1 104.85L254 102.25 252.95 104.85 255.1 104.85M163.25 104.2Q163.25 103.1 162.55 102.35 161.8 101.65 160.75 101.65 159.7 101.65 159.05 102.35 158.4 103.1 158.4 104.15L158.4 104.2Q158.4 105.25 159.05 106 159.8 106.7 160.85 106.7 161.9 106.7 162.6 106 163.25 105.25 163.25 104.2M168.45 104.1L170.3 104.1Q171.6 104.1 171.6 102.9 171.6 101.7 170.25 101.7L168.45 101.7 168.45 104.1M184.8 104.85L186.95 104.85 185.9 102.25 184.8 104.85M198.9 104.1Q200.3 104.1 200.3 102.9 200.3 101.7 198.85 101.7L197.05 101.7 197.05 104.1 198.9 104.1M240.35 102.9Q240.35 101.7 238.95 101.7L237.2 101.7 237.2 104.1 239.05 104.1Q240.35 104.1 240.35 102.9Z"/><path fill="#005CA8" stroke="none" d="M43.2 108.6Q48.85 117.05 56.65 123.55 64.55 130.2 73.85 134.15L75.1 134.5Q75.5 134.7 76.35 134.9L100.8 120.85Q93.25 122.55 85.55 122.55 73.85 122.55 62.85 118.85 52.25 115.3 43.2 108.6Z"/><path fill="#BB238C" stroke="none" d="M28.25 68.55Q23.8 77.65 22 87.7 20.25 97.85 21.4 107.9L22 110.45Q22.35 110.7 23.15 111.1L46.4 124.6Q41.3 119 37.35 112.15 31.5 102.1 29.2 90.75 26.95 79.75 28.25 68.55Z"/><path fill="#EB212E" stroke="none" d="M36 39.65Q26.4 43.2 18.25 49.25L16.35 51 16.3 79.2Q18.65 71.7 22.45 65.15 28.25 55 37 47.4 45.35 39.95 55.7 35.5 45.6 36.15 36 39.65Z"/><path fill="#00AFEC" stroke="none" d="M124.55 71.2Q122.15 78.7 118.35 85.25 112.5 95.4 103.8 103.1 95.4 110.45 85.1 114.95 105.95 113.6 122.55 101.2L124.45 99.4 124.55 71.2Z"/><path fill="#FFD82E" stroke="none" d="M97.9 42.9Q92.25 34.5 84.4 27.9 76.55 21.4 67.2 17.4L64.75 16.6Q64.35 16.75 63.6 17.2L40.3 30.6Q47.9 29 55.55 29 67.25 29 78.25 32.65 88.85 36.2 97.9 42.9Z"/><path fill="#1FB050" stroke="none" d="M119.2 43.65L118.6 41.1 94.2 26.85Q99.55 32.8 103.3 39.3 109.15 49.45 111.4 60.8 113.6 71.8 112.35 82.95 116.85 73.9 118.6 63.85 120.4 53.7 119.2 43.65Z"/></g></svg>