<?xml version="1.0" encoding="UTF-8" standalone="no"?>
<svg xmlns:dc="http://purl.org/dc/elements/1.1/" xmlns:cc="http://creativecommons.org/ns#" xmlns:rdf="http://www.w3.org/1999/02/22-rdf-syntax-ns#" xmlns:svg="http://www.w3.org/2000/svg" xmlns="http://www.w3.org/2000/svg" xmlns:sodipodi="http://sodipodi.sourceforge.net/DTD/sodipodi-0.dtd" xmlns:inkscape="http://www.inkscape.org/namespaces/inkscape" version="1.1" width="559.92554" height="95.61319" viewBox="0 60 559.92553 95.613188" id="svg4217" inkscape:version="0.92.1 r15371" sodipodi:docname="Windows 98.svg">
  <metadata id="metadata4622">
    <rdf:RDF>
      <cc:Work rdf:about="">
        <dc:format>image/svg+xml</dc:format>
        <dc:type rdf:resource="http://purl.org/dc/dcmitype/StillImage"/>
        <dc:title>Microsoft Windows Millenium Edition Logo</dc:title>
      </cc:Work>
    </rdf:RDF>
  </metadata>
  <defs id="defs4620"/>
  <sodipodi:namedview pagecolor="#ffffff" bordercolor="#666666" borderopacity="1" objecttolerance="10" gridtolerance="10" guidetolerance="10" inkscape:pageopacity="0" inkscape:pageshadow="2" inkscape:window-width="1600" inkscape:window-height="837" id="namedview4618" showgrid="false" inkscape:zoom="0.49875" inkscape:cx="13.881907" inkscape:cy="329.46657" inkscape:window-x="-8" inkscape:window-y="-8" inkscape:window-maximized="1" inkscape:current-layer="svg4217" fit-margin-top="0" fit-margin-left="0" fit-margin-right="0" fit-margin-bottom="0"/>
  <title id="title4219">Microsoft Windows Millenium Edition Logo</title>
  <filter id="shadow">
    <feGaussianBlur stdDeviation=".5" id="feGaussianBlur4222"/>
  </filter>
  <g id="g4260" transform="translate(254.22554,168.97597)">
    <g id="g4262"/>
    <g id="g4268"/>
  </g>
  <g id="g1324" transform="translate(160.28526,95.835161)">
    <g id="g1272">
      <path style="stroke-width:4.69284821" d="m -75.884393,58.951009 24.92372,-60.0074595 c -10.93434,-12.1122405 -24.53421,-18.0486905 -40.86532,-17.7389605 l -25.083277,60.56121 c 15.31277,-2.03201 28.903257,3.7402 41.024877,17.18521 z" id="path4518-2" inkscape:connector-curvature="0"/>
      <path style="stroke-width:4.69284821" d="m -93.238543,-18.795411 -9.221447,0.54437 -3.12543,7.65873 9.221437,-0.86349 z" id="path4520-4" inkscape:connector-curvature="0"/>
      <path style="stroke-width:4.69284821" d="m -96.908353,-10.118341 -9.146357,0.6241505 -3.19583,7.65873 9.291837,-0.85879 z" id="path4522-2" inkscape:connector-curvature="0"/>
      <path style="stroke-width:4.69284821" d="m -100.50307,-1.3661705 -9.13697,0.53967 -3.20991,7.58834 9.29653,-0.70862 z" id="path4524-0" inkscape:connector-curvature="0"/>
      <path style="stroke-width:4.69284821" d="m -104.0931,7.3812995 -9.22614,0.54906 -3.12074,7.5789495 9.22145,-0.78371 z" id="path4526-9" inkscape:connector-curvature="0"/>
      <path style="stroke-width:4.69284821" d="m -107.68782,15.973899 -9.22145,0.54907 -3.13013,7.58364 9.29654,-0.78371 z" id="path4528-6" inkscape:connector-curvature="0"/>
      <path style="stroke-width:4.69284821" d="m -111.36232,24.880929 -9.22614,0.55375 -3.12074,7.65873 9.22144,-0.7837 z" id="path4530-0" inkscape:connector-curvature="0"/>
      <path style="stroke-width:4.69284821" d="m -115.04151,33.637779 -9.14167,0.55376 -3.20052,7.64934 9.29183,-0.86348 z" id="path4532-1" inkscape:connector-curvature="0"/>
      <path style="stroke-width:4.69284821" d="m -112.14602,-19.189611 -2.89549,6.95949 8.51752,-0.70392 2.89549,-6.87033 z" id="path4534-2" inkscape:connector-curvature="0"/>
      <path d="m -110.11402,-4.1068005 2.81571,-6.8750205 -8.51752,0.61946 -2.89549,6.9548005 z" id="path4536-6" inkscape:connector-curvature="0" style="fill:#ff3300;stroke-width:4.69284821"/>
      <path d="m -113.63835,4.3309495 2.89549,-6.95481 -8.59261,0.69924 -2.81571,6.87502 z" id="path4538-8" inkscape:connector-curvature="0" style="fill:#ff3300;stroke-width:4.69284821"/>
      <path style="stroke-width:4.69284821" d="m -122.93488,6.8369295 -2.97058,6.9547995 8.67708,-0.70393 2.81101,-6.9547995 z" id="path4540-2" inkscape:connector-curvature="0"/>
      <path d="m -126.68447,15.659479 -2.81102,6.95011 8.59261,-0.68516 2.8204,-6.96418 z" id="path4542-0" inkscape:connector-curvature="0" style="fill:#02a5ff;stroke-width:4.69284821"/>
      <path d="m -130.19941,24.106609 -2.81102,6.95011 8.60199,-0.70393 2.8861,-6.9548 z" id="path4544-0" inkscape:connector-curvature="0" style="fill:#02a5ff;stroke-width:4.69284821"/>
      <path style="stroke-width:4.69284821" d="m -128.08763,39.100259 2.8861,-6.87502 -8.50813,0.61945 -2.89549,6.87972 z" id="path4546-0" inkscape:connector-curvature="0"/>
      <path style="stroke-width:4.69284821" d="m -112.53553,-23.014281 -7.18945,0.31442 -2.57637,6.17579 7.26453,-0.3989 z" id="path4548-1" inkscape:connector-curvature="0"/>
      <path d="m -123.39948,-13.797531 -2.57637,6.0960105 7.26453,-0.38951 2.51067,-6.0209205 z" id="path4550-3" inkscape:connector-curvature="0" style="fill:#ff3300;stroke-width:4.69284821"/>
      <path d="m -126.91442,-5.4301805 -2.50129,6.17109 7.26453,-0.3895 2.50129,-6.02093 z" id="path4552-5" inkscape:connector-curvature="0" style="fill:#ff3300;stroke-width:4.69284821"/>
      <path style="stroke-width:4.69284821" d="m -123.3197,3.0826495 -7.26453,0.22995 -2.50128,6.17579 7.27391,-0.38482 z" id="path4554-3" inkscape:connector-curvature="0"/>
      <path d="m -134.25873,12.229009 -2.57637,6.17109 7.34431,-0.38481 2.49659,-6.09132 z" id="path4556-1" inkscape:connector-curvature="0" style="fill:#02a5ff;stroke-width:4.69284821"/>
      <path d="m -137.70328,20.666749 -2.50129,6.01623 7.18945,-0.30503 2.57637,-6.09601 z" id="path4558-2" inkscape:connector-curvature="0" style="fill:#02a5ff;stroke-width:4.69284821"/>
      <path style="stroke-width:4.69284821" d="m -136.60515,35.125419 2.50129,-6.09601 -7.18945,0.30972 -2.57637,6.08194 z" id="path4560-8" inkscape:connector-curvature="0"/>
      <path style="stroke-width:4.69284821" d="m -126.91442,-25.285621 -1.79267,4.37843 5.7769,-0.23934 1.87714,-4.44882 z" id="path4562-4" inkscape:connector-curvature="0"/>
      <path d="m -130.58423,-16.453681 -1.79736,4.37373 5.78159,-0.22525 1.87714,-4.45821 z" id="path4564-1" inkscape:connector-curvature="0" style="fill:#ff3300;stroke-width:4.69284821"/>
      <path d="m -134.10386,-8.0863305 -1.79736,4.37842 5.86606,-0.15955 1.86775,-4.60838 z" id="path4566-4" inkscape:connector-curvature="0" style="fill:#ff3300;stroke-width:4.69284821"/>
      <path style="stroke-width:4.69284821" d="m -131.83722,0.3514095 -5.86606,0.31442 -1.87244,4.37843 5.86606,-0.14548 z" id="path4568-2" inkscape:connector-curvature="0"/>
      <path d="m -141.36839,9.4883895 -1.87245,4.4581995 5.94115,-0.23464 1.79736,-4.5379795 z" id="path4570-3" inkscape:connector-curvature="0" style="fill:#02a5ff;stroke-width:4.69284821"/>
      <path d="m -144.88334,17.935509 -1.80205,4.45352 5.86606,-0.23465 1.79267,-4.53329 z" id="path4572-3" inkscape:connector-curvature="0" style="fill:#02a5ff;stroke-width:4.69284821"/>
      <path style="stroke-width:4.69284821" d="m -148.55314,26.678289 -1.80675,4.45821 5.86137,-0.23465 1.87714,-4.5286 z" id="path4574-8" inkscape:connector-curvature="0"/>
      <path style="stroke-width:4.69284821" d="m -129.49079,-27.857301 1.56272,-3.75428 -4.45352,0.62884 -1.48763,3.66981 z" id="path4576-1" inkscape:connector-curvature="0"/>
      <path d="m -136.06078,-22.155491 -1.56272,3.67919 4.44882,-0.54906 1.56272,-3.82467 z" id="path4578-4" inkscape:connector-curvature="0" style="fill:#ff3300;stroke-width:4.69284821"/>
      <path d="m -139.57572,-13.708361 -1.56272,3.6698 4.45351,-0.54437 1.6425,-3.82467 z" id="path4580-1" inkscape:connector-curvature="0" style="fill:#ff3300;stroke-width:4.69284821"/>
      <path style="stroke-width:4.69284821" d="m -143.17045,-4.9655905 -1.56271,3.67919 4.37373,-0.54906 1.6425,-3.83406 z" id="path4582-2" inkscape:connector-curvature="0"/>
      <path d="m -146.84025,3.8710395 -1.47825,3.66512 4.36904,-0.53967 1.56741,-3.74959 z" id="path4584-2" inkscape:connector-curvature="0" style="fill:#02a5ff;stroke-width:4.69284821"/>
      <path d="m -150.35989,12.304099 -1.47825,3.6698 4.36905,-0.54437 1.56271,-3.82936 z" id="path4586-9" inkscape:connector-curvature="0" style="fill:#02a5ff;stroke-width:4.69284821"/>
      <path style="stroke-width:4.69284821" d="m -154.0297,21.056259 -1.40785,3.59941 4.37843,-0.47867 1.56272,-3.82467 z" id="path4588-2" inkscape:connector-curvature="0"/>
      <path style="stroke-width:4.69284821" d="m -137.70328,-35.520721 -1.08874,2.50129 3.3507,-0.0798 1.1779,-2.73593 z" id="path4590-5" inkscape:connector-curvature="0"/>
      <path d="m -141.29331,-26.768561 -1.09343,2.58107 3.28499,-0.0798 1.08874,-2.73124 z" id="path4592-2" inkscape:connector-curvature="0" style="fill:#ff3300;stroke-width:4.69284821"/>
      <path d="m -144.80825,-18.410601 -1.01835,2.58107 h 3.20052 l 1.09344,-2.73593 z" id="path4594-9" inkscape:connector-curvature="0" style="fill:#ff3300;stroke-width:4.69284821"/>
      <path style="stroke-width:4.69284821" d="m -148.40766,-9.6490505 -1.08874,2.57168 h 3.2803 l 1.16852,-2.73593 z" id="path4596-1" inkscape:connector-curvature="0"/>
      <path d="m -152.07747,-0.7467205 -1.09344,2.50129 3.28031,-0.0751 1.08874,-2.57637 z" id="path4598-2" inkscape:connector-curvature="0" style="fill:#02a5ff;stroke-width:4.69284821"/>
      <path d="m -155.59241,7.6957195 -1.09344,2.5763695 3.285,-0.0751 1.16382,-2.6655395 z" id="path4600-1" inkscape:connector-curvature="0" style="fill:#02a5ff;stroke-width:4.69284821"/>
      <path style="stroke-width:4.69284821" d="m -159.26691,16.447879 -1.01835,2.58576 3.28499,-0.0892 1.09343,-2.73593 z" id="path4602-1" inkscape:connector-curvature="0"/>
      <path d="m -87.921543,10.502039 7.96845,-19.1421295 c -3.90445,-1.33277 -9.06658,-1.8724505 -15.46762,-1.7222705 l -7.898067,19.0717305 c 5.861367,-0.23933 11.023497,0.3989 15.397237,1.7926695 z" id="path4604-0" inkscape:connector-curvature="0" style="fill:#ff3300;stroke-width:4.69284821"/>
      <path d="m -61.589973,0.5062695 c -3.59472,-3.6745 -7.81829,-6.25087 -12.65661,-7.81828 l -8.12802,19.6161095 5.46717,2.26664 c 2.1024,0.8541 4.5286,2.58107 7.33962,5.23722 z" id="path4606-4" inkscape:connector-curvature="0" style="fill:#66cc33;stroke-width:4.69284821"/>
      <path d="m -71.904853,25.284509 c -3.59942,-3.6041 -7.89337,-6.02561 -12.81617,-7.349 l -7.81359,18.82771 c 4.5286,1.56741 8.75685,4.14378 12.82086,7.57895 z" id="path4608-8" inkscape:connector-curvature="0" style="fill:#ffcc00;stroke-width:4.69284821"/>
      <path d="m -97.926693,34.731219 7.57425,-18.28334 c -4.76793,-1.56272 -9.915987,-2.18687 -15.387847,-1.79736 l -7.73381,18.52736 c 4.60838,-0.24872 9.76582,0.30973 15.547407,1.55334 z" id="path4610-7" inkscape:connector-curvature="0" style="fill:#02a5ff;stroke-width:4.69284821"/>
      <path style="stroke-width:4.69284821" d="m -69.891623,53.802949 c -0.62415,0.62415 -0.93388,1.32808 -0.93388,2.18218 0,0.86348 0.30973,1.48294 0.93388,2.10708 0.54437,0.63354 1.32338,0.86349 2.11178,0.86349 0.85879,0 1.56272,-0.22995 2.18687,-0.86349 0.54906,-0.62414 0.85879,-1.24829 0.85879,-2.10708 0,-0.8588 -0.30973,-1.55803 -0.85879,-2.18218 -0.62884,-0.54906 -1.32808,-0.86348 -2.18687,-0.86348 -0.7884,0 -1.5721,0.30972 -2.11178,0.86348 z m -0.31442,2.18218 c 0,-0.70393 0.22995,-1.32808 0.69923,-1.78798 0.46929,-0.48805 1.09344,-0.70393 1.72228,-0.70393 0.70393,0 1.33277,0.22057 1.72227,0.70393 0.54438,0.4599 0.77432,1.08874 0.77432,1.78798 0,0.70392 -0.22994,1.32807 -0.77432,1.79736 -0.39419,0.46928 -1.01834,0.70392 -1.72227,0.70392 -0.62415,0 -1.25299,-0.23933 -1.72228,-0.70392 -0.46459,-0.46929 -0.69923,-1.09344 -0.69923,-1.79736 z" id="path4614-5" inkscape:connector-curvature="0"/>
      <path style="stroke-width:4.69284821" d="m -67.545203,54.267539 h -1.32807 v 3.43517 h 0.46928 v -1.48294 h 0.62415 l 0.93857,1.48294 h 0.54907 l -0.93857,-1.48294 c 0.54906,-0.15487 0.85879,-0.47867 0.85879,-1.01835 -0.005,-0.61946 -0.3942,-0.93388 -1.17322,-0.93388 z m -0.23933,1.47825 h -0.62415 v -1.08874 h 0.70862 c 0.54906,0 0.78371,0.23933 0.78371,0.54906 -0.009,0.38482 -0.23934,0.53968 -0.86818,0.53968 z" id="path4616-8" inkscape:connector-curvature="0"/>
    </g>
  </g>
  <g aria-label="95" transform="scale(1.0188985,0.98145203)" style="font-style:normal;font-weight:normal;font-size:88.73334503px;line-height:1.25;font-family:sans-serif;letter-spacing:0px;word-spacing:0px;fill:#000000;fill-opacity:1;stroke:none;stroke-width:2.21833324" id="text199">
    <path d="m 465.74963,145.96249 5.93577,-2.16634 q 3.68278,8.18877 12.39148,8.18877 8.44873,0 12.69476,-7.1056 4.28935,-7.1056 4.41933,-19.28044 -5.80579,10.6584 -17.46071,10.6584 -8.2321,0 -13.82126,-5.58916 -5.58916,-5.63249 -5.58916,-13.90791 0,-8.40541 5.84912,-14.38451 5.89245,-5.979103 14.99109,-5.979103 11.13499,0 17.07077,7.842153 5.93577,7.79883 5.93577,21.49011 0,14.38451 -6.28239,23.30983 -6.28239,8.882 -17.89398,8.882 -13.56129,0 -18.24059,-11.9582 z m 19.62705,-15.64099 q 6.10908,0 10.22513,-4.24602 4.15938,-4.28936 4.15938,-10.0085 0,-5.54584 -3.94274,-9.5319 -3.89942,-3.98607 -10.31179,-3.98607 -6.49902,0 -10.26846,4.11605 -3.76943,4.07272 -3.76943,9.96517 0,6.32571 4.15938,10.00849 4.2027,3.68278 9.74853,3.68278 z" style="font-style:normal;font-variant:normal;font-weight:normal;font-stretch:normal;font-family:'Franklin Gothic Book';-inkscape-font-specification:'Franklin Gothic Book, ';letter-spacing:-11.96186638px;fill:#000000;stroke-width:2.21833324" id="path1331"/>
    <path d="m 544.08087,97.609749 -0.60657,6.369041 h -29.07231 l -1.25647,19.19379 q 6.58567,-6.4557 14.47116,-6.4557 8.31875,0 14.34118,5.76247 6.06575,5.76247 6.06575,14.73112 0,9.09863 -6.58567,14.90443 -6.54236,5.80579 -16.03093,5.80579 -7.45222,0 -13.25801,-3.89941 -5.8058,-3.89942 -7.62552,-10.09515 l 6.32571,-2.16634 q 3.89942,10.31178 14.64447,10.31178 7.06228,0 11.22165,-4.15937 4.15938,-4.20271 4.15938,-10.70173 0,-6.80231 -4.11605,-10.61507 -4.11605,-3.81276 -9.87852,-3.81276 -8.4054,0 -13.90791,8.05879 l -5.84912,-1.25648 1.90638,-31.975201 z" style="font-style:normal;font-variant:normal;font-weight:normal;font-stretch:normal;font-family:'Franklin Gothic Book';-inkscape-font-specification:'Franklin Gothic Book, ';letter-spacing:-11.96186638px;fill:#000000;stroke-width:2.21833324" id="path1333"/>
  </g>
  <path style="fill:#000000;stroke-width:2.98374677" inkscape:connector-curvature="0" id="path4278" d="m 218.7116,96.045671 h -14.36972 l -8.6111,33.737229 -8.53053,-33.737229 h -14.83519 l -7.99345,34.143019 -8.45296,-34.143019 h -17.75926 l 16.14804,58.415799 h 16.13908 l 7.99346,-33.23894 8.22321,33.23595 h 15.83474 z"/>
  <path style="fill:#000000;stroke-width:2.98374677" inkscape:connector-curvature="0" id="path4280" d="m 215.02369,107.73002 h 17.75329 V 96.042691 h -17.75329 z m 17.75031,3.45518 h -17.7533 v 43.27328 h 17.7533 z"/>
  <path style="fill:#000000;stroke-width:2.98374677" inkscape:connector-curvature="0" id="path4282" d="m 251.30306,127.88523 c 0,-1.97225 0.38192,-3.45517 1.23229,-4.52336 0.8444,-1.16067 1.99911,-1.65001 3.53276,-1.65001 1.46203,0 2.46159,0.48934 3.15083,1.48293 0.69522,0.98761 0.99657,2.5511 0.99657,4.60392 v 26.65679 h 17.14163 v -28.46793 c 0,-5.59154 -1.14874,-9.62258 -3.45816,-12.17667 -2.30644,-2.5511 -5.99733,-3.78936 -10.98914,-3.78936 -2.92109,0 -5.53187,0.65941 -7.68613,1.89468 -2.15427,1.15471 -3.84605,2.95988 -5.15293,5.42744 v -6.16741 h -15.90934 v 43.27626 h 17.14162 z"/>
  <path style="fill:#000000;stroke-width:2.98374677" inkscape:connector-curvature="0" id="path4284" d="m 322.71009,96.045671 h -17.2192 v 18.836399 c -1.38446,-1.63808 -2.99867,-2.87634 -4.77101,-3.61631 -1.68582,-0.82052 -3.60735,-1.23527 -5.91379,-1.23527 -5.45429,0 -9.83741,2.06177 -13.1434,6.25692 -3.2314,4.11459 -4.91722,9.62557 -4.91722,16.61947 0,6.9939 1.61122,12.58843 4.76504,16.70301 3.15084,4.02806 7.4534,6.0033 12.91068,6.0033 2.61376,0 4.91423,-0.4953 6.9193,-1.5605 1.99315,-1.15471 3.68493,-2.79875 5.06641,-5.02463 l 0.0776,5.43042 h 16.21666 V 96.045671 Z m -22.44374,24.848649 c 1.76936,0 3.1568,0.49231 3.99523,1.39341 0.85037,1.07414 1.23229,2.38699 1.23229,4.11757 v 12.34077 c 0,1.64405 -0.38192,3.04342 -1.38744,4.03403 -0.92198,1.07116 -2.07072,1.63807 -3.53276,1.63807 -1.99612,0 -3.38058,-0.8981 -4.29958,-2.70924 -0.92197,-1.73057 -1.38446,-4.52336 -1.38446,-8.55738 0,-4.19217 0.46249,-7.32212 1.38446,-9.21381 0.84142,-1.97823 2.21991,-3.04342 3.99226,-3.04342 z"/>
  <path style="fill:#000000;stroke-width:2.98374677" inkscape:connector-curvature="0" id="path4286" d="m 363.52476,116.28741 c -4.4607,-4.11757 -10.30288,-6.25692 -17.52653,-6.25692 -7.30123,0 -13.06881,2.13935 -17.6041,6.25692 -4.45772,4.19515 -6.68658,9.70613 -6.68658,16.53592 0,6.83278 2.22886,12.34078 6.76415,16.53593 4.45474,4.20111 10.2253,6.25393 17.52355,6.25393 7.22663,0 13.06583,-2.05282 17.52653,-6.25393 4.45473,-4.19515 6.68657,-9.70315 6.68657,-16.53593 0.006,-6.82979 -2.22587,-12.34375 -6.68359,-16.53592 z m -23.51789,16.53592 c 0,-4.11757 0.45651,-7.07744 1.37849,-9.0497 0.92794,-1.89468 2.54215,-2.87931 4.61586,-2.87931 2.07072,0 3.53275,0.98463 4.53529,2.87931 0.92795,1.97226 1.45905,4.93512 1.45905,9.0497 0,4.11161 -0.53409,7.07745 -1.45905,9.05269 -1.00254,1.88871 -2.46159,2.87932 -4.53529,2.87932 -2.07371,0 -3.68792,-0.99061 -4.61586,-2.87932 -0.92198,-1.81113 -1.37849,-4.86052 -1.37849,-9.05269 z"/>
  <path style="fill:#000000;stroke-width:2.98374677" inkscape:connector-curvature="0" id="path4288" d="m 429.93401,111.1852 h -12.07224 l -6.37627,21.79926 -5.61242,-21.79926 h -12.98825 l -5.45727,21.22339 -6.2241,-21.22339 h -17.06703 l 14.29214,43.27328 h 12.53174 l 6.15249,-24.18923 5.99434,24.18923 h 12.68093 z"/>
  <path style="fill:#000000;stroke-width:2.98374677" inkscape:connector-curvature="0" id="path4290" d="m 430.39649,113.97799 c -3.76847,2.71819 -5.69,6.42102 -5.69,10.86382 0,1.8917 0.46248,3.70283 1.30688,5.34688 0.92198,1.73057 2.15725,3.12995 3.69089,4.19813 2.53917,1.96629 6.76117,3.37163 12.8331,4.4428 l 4.68746,0.6594 c 3.61034,0.41475 5.45728,1.30987 5.45728,2.63465 0,0.82053 -0.54006,1.64405 -1.69179,2.05282 -1.15471,0.58183 -2.68537,0.8265 -4.6069,0.8265 -2.8465,0 -5.15592,-0.41474 -6.69255,-1.23527 -1.6142,-0.82053 -2.68537,-2.0558 -3.07326,-3.61929 l -14.06836,1.64405 c 1.23228,4.43981 3.76847,7.73387 7.76669,10.0403 3.92064,2.30047 9.06462,3.45518 15.36928,3.45518 6.76714,0 12.22739,-1.4859 16.37182,-4.36522 4.15337,-2.80174 6.23006,-6.50457 6.23006,-11.10849 0,-1.73057 -0.38789,-3.46114 -1.08012,-5.10519 -0.61465,-1.47994 -1.6142,-2.79577 -2.99866,-4.03104 -2.15128,-1.80815 -5.99435,-3.21051 -11.5292,-4.19813 l -5.99435,-0.90706 c -4.53529,-0.57288 -6.91632,-1.5605 -6.91632,-2.95988 0,-0.90407 0.46248,-1.56348 1.30986,-2.05281 0.8444,-0.41475 2.07072,-0.65941 3.68493,-0.65941 2.15427,0 3.91766,0.32821 5.15592,0.9906 1.2293,0.57586 2.30046,1.47994 3.07326,2.79876 l 13.45073,-2.2229 c -1.53962,-3.70581 -4.0758,-6.58811 -7.61154,-8.64093 -3.46115,-1.96927 -7.9129,-2.95689 -13.22098,-2.95689 -6.37925,0 -11.36808,1.39938 -15.21413,4.10862 z"/>
  <g style="fill:#000000" id="g4292" transform="matrix(2.9837467,0,0,2.9837467,-38.514118,-141.95567)">
    <path style="fill:#000000" inkscape:connector-curvature="0" id="path4294" d="m 169.942,84.445 c -0.205,-0.221 -0.438,-0.303 -0.722,-0.303 -0.284,0 -0.542,0.082 -0.746,0.303 -0.182,0.221 -0.284,0.467 -0.284,0.799 0,0.303 0.103,0.552 0.284,0.745 0.204,0.221 0.462,0.304 0.746,0.304 0.284,0 0.515,-0.083 0.722,-0.304 0.182,-0.192 0.284,-0.441 0.284,-0.745 0.001,-0.331 -0.102,-0.577 -0.284,-0.799 z m -0.154,0.138 c 0.154,0.166 0.232,0.387 0.232,0.661 0,0.247 -0.077,0.442 -0.232,0.635 -0.154,0.166 -0.334,0.249 -0.565,0.249 -0.233,0 -0.438,-0.083 -0.593,-0.249 -0.181,-0.193 -0.259,-0.387 -0.259,-0.635 0,-0.274 0.078,-0.496 0.259,-0.661 0.155,-0.195 0.36,-0.277 0.593,-0.277 0.23,0 0.41,0.082 0.565,0.277 z"/>
    <path style="fill:#000000" inkscape:connector-curvature="0" id="path4296" d="m 169.685,84.97 c 0,-0.25 -0.129,-0.36 -0.412,-0.36 h -0.463 v 1.241 h 0.18 V 85.3 h 0.207 l 0.309,0.551 h 0.205 L 169.377,85.3 c 0.206,-0.028 0.308,-0.138 0.308,-0.33 z m -0.206,-0.029 c 0,0.138 -0.078,0.221 -0.257,0.221 h -0.233 v -0.386 h 0.233 c 0.179,0 0.257,0.055 0.257,0.165 z"/>
  </g>
  <path style="fill:#000000;stroke:#000000;stroke-width:1;stroke-miterlimit:4;stroke-dasharray:none;stroke-opacity:1" inkscape:connector-curvature="0" id="path4300" d="M 145.41127,96.045671 V 63.413218 h -5.78858 l -10.00274,27.46479 -10.16019,-27.46479 h -5.78857 v 32.632453 h 3.41646 V 66.851468 l 10.71123,29.194203 h 2.86018 l 10.87391,-28.921413 v 28.921413 z"/>
  <path style="fill:#000000;stroke:#000000;stroke-width:1;stroke-miterlimit:4;stroke-dasharray:none;stroke-opacity:1" inkscape:connector-curvature="0" id="path4302" d="m 152.95268,67.031618 h 3.56867 v -3.62354 h -3.56867 z m 0,29.014053 h 3.56867 V 71.926482 h -3.56867 z"/>
  <path style="fill:#000000;stroke:#000000;stroke-width:1;stroke-miterlimit:4;stroke-dasharray:none;stroke-opacity:1" inkscape:connector-curvature="0" id="path4304" d="m 172.6328,74.283842 c 1.51143,0 2.7762,0.54559 3.7261,1.631622 1.11258,1.09118 1.74759,2.635302 1.98375,4.441925 l 3.41122,-0.54559 c -0.39885,-2.625007 -1.43271,-4.807367 -2.9389,-6.346342 -1.5849,-1.451474 -3.56866,-2.269859 -5.87254,-2.269859 -3.33775,0 -5.94602,1.17868 -7.94027,3.53604 -1.98375,2.455154 -3.01762,5.445603 -3.01762,9.249291 0,3.896335 0.87643,6.979432 2.77621,9.249291 1.89979,2.35736 4.44508,3.541191 7.61489,3.541191 2.46133,0 4.52905,-0.72574 6.18743,-2.264716 1.5849,-1.451475 2.69749,-3.541187 3.17506,-6.171342 l -3.3325,-0.63309 c -0.32013,1.904418 -1.03386,3.443393 -2.06773,4.436778 -1.11258,0.998532 -2.3826,1.451475 -3.88354,1.451475 -1.98375,0 -3.57391,-0.818385 -4.84393,-2.635302 -1.18605,-1.719123 -1.74234,-4.076483 -1.74234,-6.979432 0,-2.897803 0.55629,-5.255162 1.82631,-7.072079 1.28577,-1.708829 2.95464,-2.619861 4.9384,-2.619861 z"/>
  <path style="fill:#000000;stroke:#000000;stroke-width:1;stroke-miterlimit:4;stroke-dasharray:none;stroke-opacity:1" inkscape:connector-curvature="0" id="path4306" d="m 198.81521,71.288245 -1.27002,-0.09265 c -1.74235,0 -3.16981,0.54559 -4.28239,1.544122 -1.19131,0.905885 -2.14645,2.450007 -2.85493,4.534572 v -5.352957 h -3.49519 v 24.119189 h 3.65263 V 83.888279 c 0,-2.717655 0.71373,-4.88972 2.06772,-6.531637 1.34875,-1.626475 3.17506,-2.450007 5.63639,-2.450007 h 0.55104 z"/>
  <path style="fill:#000000;stroke:#000000;stroke-width:1;stroke-miterlimit:4;stroke-dasharray:none;stroke-opacity:1" inkscape:connector-curvature="0" id="path4308" d="m 219.2143,93.225073 c 2.06772,-2.357359 3.01761,-5.43531 3.01761,-9.249291 0,-3.803688 -0.94989,-6.886785 -3.01761,-9.249292 -1.98376,-2.352212 -4.60252,-3.536039 -8.00849,-3.536039 -3.25378,0 -5.87255,1.17868 -7.94027,3.536039 -1.98375,2.362507 -3.01762,5.445604 -3.01762,9.249292 0,3.808834 1.03387,6.891932 3.01762,9.249291 2.06772,2.35736 4.67599,3.541188 7.94027,3.541188 3.32725,0 5.93552,-1.173534 8.00849,-3.541188 z m -8.01374,-18.941231 c 2.21991,0 3.88879,0.818385 5.07484,2.625008 1.34875,1.724269 1.98376,4.081629 1.98376,7.072079 0,3.000744 -0.63501,5.34781 -1.98376,7.164727 -1.1913,1.719122 -2.93365,2.625007 -5.07484,2.625007 -2.14644,0 -3.81007,-0.905885 -5.08534,-2.625007 -1.26477,-1.719123 -1.90503,-4.076483 -1.90503,-7.164727 0,-3.07795 0.63501,-5.43531 1.83156,-7.072079 1.27002,-1.806623 3.01237,-2.625008 5.15881,-2.625008 z"/>
  <path style="fill:#000000;stroke:#000000;stroke-width:1;stroke-miterlimit:4;stroke-dasharray:none;stroke-opacity:1" inkscape:connector-curvature="0" id="path4310" d="m 235.16306,81.808864 c -3.56866,-0.813238 -5.40022,-1.997065 -5.40022,-3.716187 0,-1.17868 0.39885,-2.089712 1.34874,-2.805156 0.87642,-0.643384 2.1412,-1.003679 3.65263,-1.003679 1.50618,0 2.78145,0.360295 3.65263,1.003679 0.94464,0.627943 1.5849,1.631623 1.9785,2.805156 l 3.3325,-0.725738 c -0.55104,-1.997064 -1.65838,-3.536039 -3.16981,-4.529425 -1.50618,-1.086032 -3.41646,-1.636769 -5.64163,-1.636769 -2.61876,0 -4.75996,0.725737 -6.34487,2.089712 -1.5849,1.35368 -2.46132,3.07795 -2.46132,5.255162 0,1.81177 0.55629,3.263245 1.66362,4.261777 1.18606,1.00368 3.25378,1.904417 6.19268,2.53236 l 1.27002,0.272795 c 3.81007,0.993386 5.7151,2.35736 5.7151,4.076483 0,1.17868 -0.47757,2.177212 -1.51143,2.902949 -1.03386,0.813238 -2.38785,1.173533 -3.97276,1.173533 -1.74759,0 -3.1698,-0.360295 -4.43983,-1.173533 -1.18605,-0.905885 -2.06772,-1.997064 -2.5348,-3.448539 l -3.25377,0.643384 c 0.55104,2.172065 1.74759,3.896335 3.48993,5.075015 1.83157,1.261038 4.04624,1.899268 6.74897,1.899268 2.77621,0 4.99612,-0.72573 6.74372,-2.172063 1.66887,-1.358828 2.61876,-3.268392 2.61876,-5.352957 0,-1.81177 -0.64026,-3.263245 -1.83156,-4.261777 -1.11258,-1.091179 -3.01762,-1.997064 -5.7151,-2.712508 z"/>
  <path style="fill:#000000;stroke:#000000;stroke-width:1;stroke-miterlimit:4;stroke-dasharray:none;stroke-opacity:1" inkscape:connector-curvature="0" id="path4312" d="m 250.87566,74.731638 c -2.06773,2.269859 -3.10159,5.445603 -3.10159,9.249291 0,3.808834 1.03386,6.891932 3.10159,9.249291 1.98375,2.35736 4.60252,3.536041 7.93502,3.536041 3.25378,0 5.95126,-1.178681 8.01898,-3.536041 1.97326,-2.357359 3.01237,-5.435309 3.01237,-9.249291 0,-3.803688 -1.03386,-6.886785 -3.01237,-9.249291 -1.98375,-2.352213 -4.68648,-3.53604 -8.01898,-3.53604 -3.3325,0 -5.95127,1.183827 -7.93502,3.53604 z m 2.7762,16.414018 c -1.27002,-1.81177 -1.90503,-4.16913 -1.90503,-7.164727 0,-2.99045 0.63501,-5.34781 1.90503,-7.072079 1.19656,-1.81177 2.9389,-2.625008 5.15882,-2.625008 2.14644,0 3.81007,0.818385 5.15881,2.625008 1.18605,1.724269 1.89979,4.081629 1.89979,7.072079 0,3.000744 -0.71374,5.34781 -1.98376,7.164727 -1.27002,1.719122 -2.9389,2.625007 -5.07484,2.625007 -2.21992,0.0051 -3.88879,-0.900738 -5.15882,-2.625007 z"/>
  <path style="fill:#000000;stroke:#000000;stroke-width:1;stroke-miterlimit:4;stroke-dasharray:none;stroke-opacity:1" inkscape:connector-curvature="0" id="path4314" d="m 279.91825,71.926482 c 0,-0.180147 0,-0.272795 -0.0787,-0.447795 v -0.447795 c 0,-1.72427 0.39885,-3.083094 1.11258,-3.808834 0.63501,-0.81839 1.7476,-1.27133 3.25378,-1.27133 l 3.01762,0.36544 v -3.00074 l -3.65265,-0.3603 c -2.45608,0 -4.28239,0.72574 -5.4737,2.17722 -1.19655,1.35368 -1.83156,3.62868 -1.83156,6.619134 v 0.180147 h -4.36636 v 2.635302 h 4.36636 v 21.48389 h 3.64738 v -21.48389 h 5.87255 v -2.635302 h -5.8673 z"/>
  <path style="fill:#000000;stroke:#000000;stroke-width:1;stroke-miterlimit:4;stroke-dasharray:none;stroke-opacity:1" inkscape:connector-curvature="0" id="path4316" d="m 293.56312,71.926482 v -6.068404 l -3.7261,0.35515 v 5.708107 h -4.20892 v 2.635302 h 4.20892 v 12.512536 c 0,2.35736 0.0735,3.896335 0.31489,4.807367 0.0787,0.725737 0.32013,1.446328 0.71373,1.991918 0.71373,1.003679 1.5849,1.724269 2.61876,2.177213 0.87643,0.44779 2.14645,0.72574 3.73135,0.72574 l 3.01762,-0.3603 v -3.083096 l -2.54005,0.272795 c -1.59015,0 -2.69224,-0.360295 -3.25377,-1.173533 -0.64026,-0.818385 -0.87643,-2.542655 -0.87643,-5.162515 V 74.572078 h 5.79383 v -2.635301 h -5.79383 z"/>
  <path style="fill:#000000;stroke-width:5.19730616" inkscape:connector-curvature="0" id="path4318" d="m 301.90224,69.57427 c -0.64026,0.725737 -0.95514,1.533828 -0.95514,2.53236 0,1.003679 0.31488,1.72427 0.95514,2.450007 0.55629,0.725737 1.3435,0.993385 2.1412,0.993385 0.87642,0 1.59015,-0.267648 2.21991,-0.993385 0.5563,-0.725737 0.87118,-1.451475 0.87118,-2.450007 0,-0.998532 -0.32013,-1.81177 -0.87118,-2.53236 -0.63501,-0.638242 -1.34874,-0.998532 -2.21991,-0.998532 -0.79245,0 -1.59015,0.36029 -2.1412,0.998532 z m -0.32013,2.537507 c 0,-0.818385 0.23616,-1.538975 0.71374,-2.084565 0.47757,-0.540443 1.11783,-0.80809 1.74759,-0.80809 0.71373,0 1.34874,0.267647 1.74759,0.80809 0.55105,0.54559 0.78721,1.26618 0.78721,2.084565 0,0.813238 -0.23616,1.538975 -0.78721,2.079418 -0.39885,0.540443 -1.03911,0.818385 -1.74759,0.818385 -0.63501,0 -1.27002,-0.277942 -1.74759,-0.818385 -0.47233,-0.540443 -0.71374,-1.26618 -0.71374,-2.079418 z"/>
  <path style="fill:#000000;stroke-width:5.19730616" inkscape:connector-curvature="0" id="path4320" d="m 304.27435,70.109565 h -1.34349 v 3.988982 h 0.47232 v -1.724269 h 0.63501 l 0.94989,1.724269 h 0.55629 l -0.94989,-1.724269 c 0.55629,-0.180148 0.87642,-0.54559 0.87642,-1.17868 0,-0.715443 -0.39885,-1.086033 -1.19655,-1.086033 z m -0.23616,1.72427 h -0.63501 v -1.271327 h 0.71373 c 0.55629,0 0.7977,0.272795 0.7977,0.627943 0.005,0.463236 -0.23091,0.643384 -0.87642,0.643384 z"/>
</svg>