<?xml version="1.0" encoding="UTF-8" standalone="no"?>
<!-- Created with Inkscape (http://www.inkscape.org/) -->
<svg xmlns:svg="http://www.w3.org/2000/svg" xmlns="http://www.w3.org/2000/svg" version="1.1" width="410.39999" height="150.34" id="svg2" xml:space="preserve"><defs id="defs6"/><g transform="matrix(1.25,0,0,-1.25,0,150.34)" id="g12"><path d="m 208.8551,77.3082 c -2.1739,1.9961 -6.2149,2.5376 -9.7451,2.5376 -3.5293,0 -18.6797,0 -18.6797,0 l -12.7022,-39.9853 11.4092,0 3.6689,11.5195 c 0,0 7.7872,-0.02 11.1963,0.0474 7.0489,0.1382 13.5987,2.7217 16.791,13.4414 1.8135,6.1011 0.4805,10.2163 -1.9384,12.4394 m -8.628,-12.2812 c -0.9697,-2.8628 -2.038,-3.9443 -3.3632,-4.814 -1.4463,-0.9512 -2.6866,-1.2197 -4.6016,-1.3139 -1.6641,-0.0777 -7.0781,-0.0743 -7.0781,-0.0743 l 4.3808,13.7334 c 0,0 4.7998,0 6.4698,0 1.667,0 2.9804,-0.1772 3.8408,-0.8794 0.8896,-0.729 1.7597,-2.5068 0.3515,-6.6518" id="path118" style="fill:#e00024;fill-opacity:1;fill-rule:nonzero;stroke:none"/><path d="m 73.356,49.0026 c 0,0 -19.519,-4.27 -20.2988,1.9175 -0.4551,3.6147 3.7715,15.4267 5.2388,17.5229 1.6445,2.3486 4.0303,3.3027 6.458,3.6421 5.0483,0.7021 11.0317,-0.5142 13.1479,-1.0586 l 2.7032,8.4458 c 0,0 -8.9219,1.5186 -18.7032,1.0688 -2.3896,-0.1113 -5.4834,-0.7089 -7.7124,-1.6499 -2.9731,-1.2495 -5.4272,-3.541 -7.5131,-8.4521 -1.9976,-4.6934 -4.1958,-12.1211 -5.399,-16.6436 -0.1894,-0.7182 -1.6464,-6.2685 0.4703,-9.5644 2.4038,-3.7388 6.7763,-4.5176 8.4677,-4.7031 7.8511,-0.8565 20.3721,0.4306 20.3721,0.4306 l 2.7685,9.044" id="path120" style="fill:#e00024;fill-opacity:1;fill-rule:nonzero;stroke:none"/><path d="m 118.6568,76.2638 c -3.0097,3.9106 -7.8252,4.1431 -16.1113,4.311 -5.4453,0.1065 -11.6113,0.007 -14.9746,-2.2617 C 85.8482,77.1549 84.2828,75.8102 82.6334,71.2448 81.8785,69.1657 78.9547,60.4816 77.7105,56.1676 76.5367,52.0958 75.9869,48.653 77.067,45.5314 c 0.8408,-2.439 2.5078,-4.0777 5.4873,-5.4087 2.9775,-1.333 13.9541,-1.021 18.0303,-0.7857 4.0752,0.2344 6.5341,1.4136 8.3515,2.8218 2.4258,1.8784 3.6377,4.3906 4.8213,7.5283 0.9697,2.5669 2.4922,7.3399 4.8203,15.128 1.4024,4.6963 2.417,8.4092 0.0791,11.4487 m -11.2881,-9.1411 c 0,0 -3.2119,-10.6699 -3.9228,-12.8325 -0.7715,-2.3492 -1.6475,-5.1841 -3.7451,-6.6524 -1.5176,-1.0615 -3.9912,-1.0884 -3.9912,-1.0884 0,0 -2.3975,-0.0942 -3.3936,0.0269 -0.4111,0.0503 -2.6758,0.0806 -3.8037,1.7769 -1.3076,1.9726 0.3916,6.1147 0.3916,6.1147 0,0 3.9609,12.1519 4.7441,14.0317 0.7842,1.8819 1.0127,2.7154 2.1963,3.6084 1.2735,0.9615 3.4854,1.0044 4.3633,1.042 0.9258,0.0406 1.8213,0.0537 2.624,0.0166 0.2686,-0.01 4.2256,0.1382 5.086,-1.582 0.623,-1.2466 -0.5489,-4.4619 -0.5489,-4.4619" id="path122" style="fill:#e00024;fill-opacity:1;fill-rule:nonzero;stroke:none"/><path d="m 233.2047,79.8287 c -4.458,0 -5.7676,-0.8164 -7.75,-2.0629 -2.1475,-1.3506 -4.2549,-5.2076 -5.5244,-7.0415 -1.1807,-1.7002 -19.6455,-30.7564 -19.6455,-30.7564 l 11.2402,0 5.1846,8.4526 13.5947,0 -0.4688,-8.5761 11.2276,0 1.625,39.9843 c 0,0 -6.6787,0 -9.4834,0 m -2.5508,-24.0268 -9.625,-0.0474 10.4668,16.9585 -0.8418,-16.9111" id="path124" style="fill:#e00024;fill-opacity:1;fill-rule:nonzero;stroke:none"/><path d="m 282.3228,46.6207 -1.7998,-0.0376 c 1.4004,1.0313 4.1084,9.5845 6.1036,16.4712 1.6289,5.627 3.2294,10.3677 0.3906,13.5791 -3.0235,3.42 -8.2559,3.7735 -16.0733,3.9414 -6.1504,0.1304 -11.3847,-0.1518 -14.663,-2.2817 -2.1709,-1.4072 -3.5518,-2.9253 -5.2608,-7.4912 -0.7764,-2.0733 -3.2461,-9.5982 -4.4258,-13.9321 -1.289,-4.7539 -2.1054,-7.5523 -1.0547,-11.1499 0.8243,-2.8189 2.8204,-4.5791 5.5206,-5.5772 1.83,-0.6777 4.6904,-0.8188 8.2802,-0.8833 0.0176,0.0239 1.4219,2.1167 4.6739,4.0855 1.915,1.1552 4.3984,2.0454 6.0976,2.4516 1.8037,0.4302 4.3164,0.7359 6.3467,0.7798 1.5615,0.0337 2.583,-0.0337 2.583,-0.0337 -2.3857,-0.2109 -5.2285,-0.7056 -8,-1.6797 -3.1074,-1.0879 -5.8984,-3.1142 -7.6484,-5.5996 -1.6534,-2.3481 -1.9952,-5.0029 -1.9952,-5.0029 0,0 0.292,0.5542 1.0469,1.2832 1.3672,1.334 3.2861,2.5068 6.2998,3.1308 1.9326,0.4034 4.794,0.5918 8.0225,0.585 1.7236,-0.007 13.7969,0 13.7969,0 l 2.207,7.3613 -10.4483,0 m -6.0253,21.6748 c -0.3135,-1.3276 -2.9678,-10.2265 -4.1094,-13.6528 -0.7617,-2.2915 -1.461,-4.7876 -3.1299,-6.3032 -1.4697,-1.3301 -3.1484,-1.5615 -5.0869,-1.7632 -1.5156,-0.1572 -3.8916,0.0337 -3.8916,0.0337 0,0 -2.1524,0.1641 -3.0938,1.8682 -0.6914,1.249 -0.4131,2.9155 -0.0595,4.206 0.2441,0.8975 4.2021,13.9419 5.0019,15.8154 0.7119,1.6773 1.0254,2.6143 2.3106,3.6084 1.3349,1.0284 3.2421,1.0152 3.958,1.0826 1.2607,0.1142 3.9033,0.0268 3.9033,0.0268 0,0 3.0215,-0.0268 4.0801,-1.1255 0.9756,-1.0141 0.3994,-2.5874 0.1172,-3.7964" id="path126" style="fill:#e00024;fill-opacity:1;fill-rule:nonzero;stroke:none"/><path d="m 128.4293,79.9899 -12.6826,-40.0249 10.5869,0 9.9404,30.9946 4.1983,-24.5005 2.165,0 18.5029,25.0947 -10.0381,-31.5888 10.92,0 12.6884,39.8637 c 0,0 -10.8837,0.009 -11.2832,0 -0.4179,-0.007 -5.163,0.2178 -8.4238,-3.9272 -1.5195,-1.9282 -8.3096,-11.4023 -8.3096,-11.4023 0,0 -1.1845,6.7128 -1.8203,9.9809 -0.7011,3.6392 -3.2275,5.1065 -6.8574,5.3926 -1.7676,0.1372 -9.5869,0.1172 -9.5869,0.1172" id="path128" style="fill:#e00024;fill-opacity:1;fill-rule:nonzero;stroke:none"/></g></svg>