<?xml version="1.0" encoding="UTF-8"?>
<!-- Created with Inkscape (http://www.inkscape.org/) -->
<svg width="314.05mm" height="96.028mm" version="1.1" viewBox="0 0 314.05 96.028" xmlns="http://www.w3.org/2000/svg" xmlns:cc="http://creativecommons.org/ns#" xmlns:dc="http://purl.org/dc/elements/1.1/" xmlns:rdf="http://www.w3.org/1999/02/22-rdf-syntax-ns#">
 <defs>
  <linearGradient id="SVGID_1_" x1="370.3" x2="604.31" y1="48.996" y2="283" gradientTransform="matrix(.29002 0 0 .29002 -319.7 99.82)" gradientUnits="userSpaceOnUse">
   <stop stop-color="#00AAF4" offset=".12"/>
   <stop stop-color="#00D258" offset=".88"/>
  </linearGradient>
 </defs>
 <metadata>
  <rdf:RDF>
   <cc:Work rdf:about="">
    <dc:format>image/svg+xml</dc:format>
    <dc:type rdf:resource="http://purl.org/dc/dcmitype/StillImage"/>
    <dc:title/>
   </cc:Work>
  </rdf:RDF>
 </metadata>
 <g transform="translate(319.7 -99.958)">
  <g stroke-width=".29002">
   <path class="st0" d="m-58.114 147.97 25.888-29.275c3.7102-4.1939 3.3135-10.603-0.8791-14.31-4.1926-3.7093-10.604-3.3148-14.312 0.87865l-24.229 27.402-24.228-27.402c-3.7102-4.194-10.116-4.5882-14.312-0.87865-4.1926 3.7093-4.5884 10.116-0.87908 14.31l25.885 29.275-25.888 29.275c-3.7102 4.1939-3.3135 10.603 0.8791 14.31 4.1926 3.7093 10.603 3.3149 14.312-0.87863l24.228-27.402 24.229 27.402c3.7102 4.1939 10.116 4.5882 14.312 0.87863 4.1926-3.7093 4.5879-10.116 0.8791-14.31z" fill="#00d258"/>
   <path class="st1" d="m-178.37 195.99c-26.474 0-48.014-21.537-48.014-48.014 0-26.477 21.54-48.014 48.014-48.014 26.473 0 48.014 21.537 48.014 48.014 0 26.477-21.54 48.014-48.014 48.014zm0-75.749c-15.293 0-27.735 12.442-27.735 27.735 0 15.292 12.442 27.735 27.735 27.735 15.292 0 27.735-12.442 27.735-27.735 0-15.293-12.442-27.735-27.735-27.735z" fill="url(#SVGID_1_)"/>
   <path class="st2" d="m-271.69 195.99c-26.477 0-48.014-21.541-48.014-48.014 0-26.473 21.537-48.014 48.014-48.014 8.602 0 17.045 2.3055 24.417 6.6647 4.8201 2.851 6.4151 9.0691 3.5659 13.889-2.8491 4.8202-9.069 6.4154-13.889 3.5642-4.2467-2.5115-9.1214-3.84-14.092-3.84-15.293 0-27.735 12.442-27.735 27.735 0 15.293 12.442 27.735 27.735 27.735 4.9711 0 9.8462-1.3286 14.092-3.84 4.8201-2.851 11.038-1.256 13.889 3.5641 2.8492 4.8202 1.2578 11.038-3.5659 13.889-7.3726 4.3589-15.816 6.6648-24.417 6.6648z" fill="#00aaf4"/>
  </g>
  <path d="m-13.945 176.7c1.3922 0 2.7515 0.35905 4.0778 1.0772 1.3263 0.71077 2.3595 1.733 3.0996 3.0666 0.74008 1.3263 1.1101 2.7112 1.1101 4.1547 0 1.4289-0.36638 2.8028-1.0991 4.1218-0.72543 1.319-1.7476 2.3448-3.0666 3.0776-1.3116 0.72543-2.6855 1.0881-4.1217 1.0881s-2.8138-0.36271-4.1327-1.0881c-1.3116-0.73275-2.3338-1.7586-3.0666-3.0776s-1.0991-2.6929-1.0991-4.1218c0-1.4435 0.37004-2.8284 1.1101-4.1547 0.74741-1.3336 1.7843-2.3558 3.1105-3.0666 1.3263-0.7181 2.6855-1.0772 4.0778-1.0772zm0 1.3739c-1.1651 0-2.3009 0.30043-3.4073 0.90129-1.0991 0.59353-1.9601 1.4472-2.583 2.561-0.62284 1.1065-0.93426 2.2606-0.93426 3.4623 0 1.1944 0.30409 2.3412 0.91228 3.4403 0.61552 1.0918 1.4728 1.9455 2.572 2.561 1.0991 0.60819 2.2459 0.91228 3.4403 0.91228s2.3412-0.30409 3.4403-0.91228c1.0991-0.61551 1.9528-1.4692 2.561-2.561 0.60819-1.0991 0.91228-2.2459 0.91228-3.4403 0-1.2017-0.31142-2.3558-0.93426-3.4623-0.61551-1.1138-1.4765-1.9674-2.583-2.561-1.1065-0.60086-2.2386-0.90129-3.3963-0.90129zm-3.304 11.508v-8.925h3.0666c1.0478 0 1.5724 0.0843 2.0413 0.2528 0.46896 0.16121 0.69233 0.44698 0.97078 0.85733 0.27845 0.41034 0.41767 0.84633 0.41767 1.308 0 1.0896-0.19634 1.9729-1.6226 2.706l2.6223 3.8009h-1.7586c-0.99856-1.4725-2.4473-3.5322-2.4473-3.5322h-1.8503v3.5322zm1.4399-4.7632h1.7476c0.83534 0 1.4088-0.27211 1.6233-0.59813 0.21179-0.32181 0.31001-0.66801 0.30808-1.0247-0.0013-0.24566-0.07328-0.49827-0.21983-0.70344-0.14655-0.2125-0.35172-0.37004-0.61552-0.47263-0.25646-0.10259-0.50256-0.15388-1.206-0.15388h-1.6377z" fill="#00d258"/>
 </g>
</svg>
