<?xml version="1.0" encoding="UTF-8"?>
<svg width="150px" height="82px" viewBox="0 0 150 82" version="1.1" xmlns="http://www.w3.org/2000/svg" xmlns:xlink="http://www.w3.org/1999/xlink">
    <!-- Generator: Sketch 55.2 (78181) - https://sketchapp.com -->
    <title>disneyplus-white</title>
    <desc>Created with Sketch.</desc>
    <defs>
        <radialGradient cx="98.3077855%" cy="99.7870837%" fx="98.3077855%" fy="99.7870837%" r="260.573231%" gradientTransform="translate(0.983078,0.997871),scale(0.366071,1.000000),translate(-0.983078,-0.997871)" id="radialGradient-1">
            <stop stop-color="#FFFFFF" offset="9%"/>
            <stop stop-color="#FFFFFF" stop-opacity="0.78" offset="24%"/>
            <stop stop-color="#FFFFFF" stop-opacity="0.5" offset="45%"/>
            <stop stop-color="#FFFFFF" stop-opacity="0.29" offset="64%"/>
            <stop stop-color="#FFFFFF" stop-opacity="0.13" offset="80%"/>
            <stop stop-color="#FFFFFF" stop-opacity="0.04" offset="92%"/>
            <stop stop-color="#FFFFFF" stop-opacity="0" offset="100%"/>
        </radialGradient>
    </defs>
    <g id="disneyplus-white" stroke="none" stroke-width="1" fill="none" fill-rule="evenodd">
        <path d="M68.0863122,55.9709623 L68.2672322,55.9709623 C69.5320627,56.091393 70.7750224,56.3787929 71.9631695,56.825545 C72.8374786,57.1863208 73.5484407,57.8520374 73.9619049,58.697081 C74.6861703,60.0091902 74.8185332,61.5635714 74.3264112,62.9775994 C73.8342893,64.3916274 72.763393,65.533961 71.3773333,66.1234042 C70.3156641,66.5990379 69.1787965,66.8881938 68.0173903,66.9779869 C65.8404519,67.184435 63.6480043,66.7973472 61.6765747,65.8584836 C60.3680798,65.2719923 59.2538887,64.3297453 58.4630908,63.1409108 C57.9333174,62.2327715 57.9837556,61.1020517 58.5923193,60.2438756 C59.5830718,58.893635 61.7196509,58.594531 63.3220853,58.6543518 C64.8818201,58.7548607 66.423617,59.0417978 67.9140074,59.5089345 C68.5147806,59.7097998 69.0923649,59.9733479 69.6370551,60.2951505 C69.7935431,60.4346508 69.8626004,60.6466774 69.8179751,60.8506292 C69.5509027,61.6539369 67.5780131,62.0812283 67.0094074,62.1666865 C65.4845102,62.3974239 64.6919082,61.8248535 62.95163,61.1497332 C62.4922239,60.9546274 62.0082102,60.8223804 61.5128852,60.7566252 C60.7202833,60.6797127 59.7898375,60.8933584 59.626148,61.747941 C59.5486108,62.192324 60.0655251,62.6025237 60.4876718,62.7734402 C61.3016834,63.1324358 62.1814353,63.321513 63.0722434,63.3289189 C65.7774283,63.3289189 68.8186075,62.9272651 71.0327238,61.3719247 C71.3698414,61.1764627 71.5935829,60.8340428 71.6357905,60.4489754 C71.6357905,59.6456677 70.2315066,59.1585556 70.2315066,59.1585556 C68.3991242,58.6017713 66.503061,58.2772997 64.5885253,58.1928772 C63.0980891,58.0646898 60.7547442,57.8681358 60.1947537,57.7826775 C59.6039679,57.7209671 59.0243416,57.5801028 58.471706,57.363932 C57.9243792,57.1144537 57.5105792,56.6449054 57.3344945,56.0735122 C57.1208977,55.0156047 57.3511064,53.917037 57.9720222,53.031198 C59.4193822,50.9203788 62.8654776,50.1170711 65.4931254,49.8008755 C68.1207731,49.48468 72.0407067,49.4932258 74.5046649,50.7921914 C74.8837354,50.9887454 75.0732706,51.1852994 74.9957335,51.5784075 C74.8322354,52.2925885 74.2804183,52.8564468 73.5656039,53.0397438 C72.6139874,53.2480644 71.6449151,53.3682225 70.6708837,53.3986685 C67.7072417,53.569585 64.1233025,53.475581 61.2975042,54.2532512 C61.0375261,54.3005914 60.7907731,54.4025768 60.5738242,54.5523551 C60.1258318,55.0309214 61.435348,55.1676546 61.6593442,55.2189296 L61.8402643,55.2189296 L68.0863122,55.9453248 L68.0863122,55.9709623 Z M50.4423037,42.8531186 C50.4423037,42.8531186 50.9247571,42.1352691 51.3038276,41.5968821 C52.2187442,40.4271117 53.2458957,39.3481336 54.3708525,38.3751055 L55.0428411,37.8196268 C55.0428411,37.8196268 54.4742353,37.8794475 54.1813172,37.9478141 C53.2819503,38.2270652 52.4514475,38.6899134 51.7432047,39.3066006 C50.8299894,40.0842708 49.8133913,41.3575989 50.2699989,42.485648 L50.4423037,42.8531186 L50.4423037,42.8531186 Z M55.5597554,44.211905 C56.9926175,44.1154961 58.3852949,43.700767 59.6347632,42.9983976 C60.8839728,42.3147315 62.7104033,40.9644909 62.5208681,39.383513 C62.4586241,38.8932952 62.1264984,38.4781885 61.6593442,38.3067389 C61.166805,38.0840497 60.6011405,38.0840497 60.1086013,38.3067389 C59.6769214,38.4229535 59.2626597,38.5953691 58.8766222,38.8194885 C57.1557414,39.8976774 55.6224438,41.2454588 54.3363915,42.8103894 C54.0865496,43.1351309 53.8280924,43.5111472 53.6213267,43.7589762 C53.414561,44.0068052 53.3973305,44.0580801 53.414561,44.1008093 C54.1077385,44.2493543 54.8208004,44.2839984 55.5252944,44.2033592 L55.5597554,44.211905 Z M51.8207419,46.9038404 C51.6431459,47.1626949 51.4847814,47.4340297 51.3469037,47.7156939 C51.2517958,47.8701131 51.1325694,48.0085706 50.993679,48.1258935 C50.8539851,48.2700451 50.6611104,48.3515148 50.4595342,48.3515148 C50.257958,48.3515148 50.0650832,48.2700451 49.9253894,48.1258935 C49.4003003,47.6608349 49.0891601,47.0034459 49.0638655,46.3056325 C49.0854232,46.0211729 49.0854232,45.7355094 49.0638655,45.4510498 C48.8716885,45.0027883 48.6227133,44.5806433 48.322955,44.1948133 C48.0298551,43.6253381 47.8541269,43.0036237 47.8060407,42.3660065 C47.8200343,40.675191 48.5407173,39.0659451 49.7961608,37.9221767 C51.0117373,36.6616713 52.4787985,35.6662863 54.1037801,34.999504 C55.8338314,34.216577 57.7796727,34.0359064 59.626148,34.4867544 C60.2868351,34.7260151 60.8784103,35.1221111 61.3491957,35.640441 C61.4107931,35.7413629 61.4894847,35.8309846 61.5818071,35.9053616 C61.7212593,35.9530694 61.8658076,35.9846138 62.012569,35.9993657 C62.6107156,36.1391916 63.1717778,36.4043502 63.6580796,36.7770359 C64.2546066,37.2305114 64.6648413,37.8834207 64.8125215,38.6143886 C65.0015937,40.2063097 64.4163102,41.7925611 63.2359329,42.8873019 C61.654929,44.5757513 59.7158146,45.8950503 57.5584907,46.7500155 C56.4141591,47.2022848 55.1886323,47.4174961 53.957321,47.3824066 C53.6127115,47.3824066 53.2594867,47.2627651 52.9234924,47.2456734 C52.6306276,47.1953234 52.3424685,47.1210057 52.0619685,47.0234819 C51.9844314,46.9636611 51.8724333,46.9038404 51.8552028,46.9294778 L51.8207419,46.9038404 Z M53.8367077,50.3478084 C53.9280019,50.3649343 54.0174339,50.3906892 54.1037801,50.4247209 C54.8156591,50.764271 55.3031406,51.4412465 55.3960658,52.2193445 C55.7994155,54.6791089 56.0354319,57.1630104 56.1025154,59.6542135 C56.1542068,60.8420834 56.1886678,62.0043158 56.231744,63.1750941 C56.3332215,64.2571154 56.3043,65.3472787 56.1455916,66.4225081 C56.067933,66.7962961 55.8451148,67.1247607 55.5252944,67.3369116 C54.9979089,67.5588549 54.4147127,67.6155118 53.8539382,67.4992823 C52.7081114,67.2599991 52.3376562,66.5336039 52.1739666,65.4226464 C51.8626885,62.0541059 51.8626885,58.6643826 52.1739666,55.295842 C52.2893116,53.9257898 52.5344929,52.5695597 52.9062619,51.2451202 C53.0441057,50.9203788 53.3197934,50.2538044 53.7677858,50.3905376 L53.8367077,50.3478084 Z M19.1431422,54.7489091 C19.1431422,54.7489091 17.4200945,54.8685507 16.282883,54.9967381 C14.2843409,55.2154769 12.3112265,55.6217998 10.3900598,56.2102454 C9.90760648,56.381162 8.92546929,56.7913616 8.8393169,57.2784738 C8.8194671,57.7913318 9.04652218,58.2830217 9.45099884,58.6030769 C9.65776456,58.84236 10.8208218,59.9533175 11.1740465,60.2267839 C13.072208,61.7184308 15.1500792,62.9700362 17.3597878,63.9527643 C18.0576221,64.2433224 19.2206793,64.6535221 19.2206793,64.6535221 C19.2206793,64.6535221 19.1345269,61.3804705 19.1517574,58.1416022 C19.1517574,56.4324369 19.1948336,54.7232716 19.1948336,54.7232716 L19.1431422,54.7489091 Z M50.3216904,56.0307831 C50.3562565,56.9571081 50.2985417,57.8845554 50.1493856,58.7996309 C50.0213662,59.4179093 49.8486144,60.0262371 49.6324713,60.6198919 C49.3137075,61.3291955 49.0121741,61.9103117 48.684795,62.4914279 C47.946732,63.6837867 47.0514496,64.7730367 46.0226863,65.7302962 C43.1021205,68.2342234 38.5791203,69.6613764 34.6936477,70.1313969 C31.8827974,70.4641441 29.0378259,70.3835141 26.2507139,69.8921137 C25.2858072,69.7211972 23.8556776,69.38791 23.8556776,69.38791 C23.8556776,69.38791 23.8556776,69.9604803 23.8556776,70.3535884 C23.8062686,70.6461776 23.7253981,70.9326736 23.614451,71.208171 C23.4222216,71.6046447 23.0384517,71.8756358 22.5978528,71.9260204 C22.0273706,72.0646016 21.4285061,72.0348996 20.8748051,71.8405622 C20.0615782,71.428657 19.5396599,70.6094905 19.5135974,69.7041055 C19.3929841,68.943527 19.2637555,67.6189239 19.2637555,67.6189239 L18.0403916,67.0378077 C16.3847798,66.2199528 14.8049649,65.2591114 13.3192409,64.1664099 C12.9315552,63.8758518 11.2429684,62.4572446 10.8725132,62.1325032 C9.8197224,61.2062042 8.91613719,60.1254505 8.19317401,58.9278183 C7.61190885,58.0783567 7.50176047,56.9953881 7.9002559,56.0478747 C8.47747688,54.6121759 10.5623646,53.4841268 11.9924942,52.9030106 C13.8222412,52.1701475 15.713383,51.5982252 17.6440907,51.1938453 C18.2240298,51.1249326 18.7993748,51.0222049 19.3671384,50.8861955 L19.427445,50.8349206 C19.427445,50.7921914 19.5135974,49.3650384 19.5049822,48.843743 C19.4963669,48.3224476 19.8926679,44.9553919 20.0132813,44.2375425 C20.1260677,43.4582469 20.349404,42.6986918 20.6766546,41.9814443 C20.7791126,41.8550143 20.9295524,41.7760367 21.0925641,41.7631008 C21.2555758,41.7501649 21.4167603,41.8044135 21.5381785,41.9130777 C23.0889214,42.8702102 23.5627595,46.1859909 23.6747576,47.8951562 C23.7436795,48.9206554 23.7781405,50.4589042 23.7781405,50.4589042 C23.7781405,50.4589042 25.5614949,50.4076292 26.6556302,50.4589042 C27.7763877,50.5084456 28.8928586,50.6283269 29.9983427,50.8178289 C31.973853,51.118013 33.904099,51.6605575 35.7447068,52.4329901 C37.0447,53.0259437 38.0827927,54.0678227 38.6652726,55.3642086 C39.0487447,56.2742397 38.9552759,57.3132957 38.4154307,58.1416022 C37.7893046,59.2452637 36.6615591,59.9782884 35.391482,60.1071423 C34.6584144,60.1018792 33.9352642,59.938586 33.2721333,59.6285761 C33.1320592,59.4858983 33.1320592,59.2585043 33.2721333,59.1158265 C33.3152095,59.0645515 33.9441219,58.7312643 34.3145772,58.5347103 C34.4927646,58.4427738 34.6578902,58.3278298 34.8056458,58.1928772 C35.1256821,57.9925001 35.3304254,57.6529527 35.3570211,57.2784738 C35.3570211,56.825545 34.8314915,56.5520785 34.3748839,56.3726161 C31.6072449,55.4585406 28.7370569,54.8845359 25.8285673,54.6634508 L23.8470624,54.5779926 L24.0969043,65.9781252 C24.0969043,65.9781252 25.0531958,66.1661334 25.819952,66.2857749 C26.2507139,66.3541415 28.0857597,66.5165122 28.5768283,66.5250581 C32.2899961,66.627608 36.4425411,66.2943207 39.8455603,64.6962512 C41.3266069,64.0600928 42.658457,63.1259973 43.7568786,61.9530409 C45.1704862,60.3143046 45.8570508,58.1787576 45.6608463,56.0307831 C45.4540806,53.5952225 43.7224177,50.7067332 42.3439795,48.9548387 C38.4757374,44.2973633 32.2383047,40.4859246 26.7417825,38.2298264 C21.3184705,35.9494051 15.5257818,34.6554656 9.64053408,34.409842 C7.43775027,34.3180654 5.23169353,34.4815414 3.0671071,34.8969541 C2.82588042,34.9653207 2.58465374,35.0422331 2.36065754,35.0935081 C2.17263844,35.141337 1.99268472,35.2161934 1.82651275,35.3156996 L1.74036036,35.392612 C1.8072391,35.4307068 1.87627546,35.4649469 1.94712609,35.4951619 C2.1280461,35.5720744 2.87757185,35.6148035 3.27387282,35.6917159 C3.61659179,35.7351935 3.92717167,35.9138785 4.13539667,36.1873739 C4.28857076,36.3707918 4.28857076,36.6363471 4.13539667,36.819765 C3.74771094,37.2897855 2.30896611,37.2043272 1.67143846,37.1103231 C1.03391081,37.0163191 0.172386955,36.8026734 0.0259278999,36.2130114 C-0.0708170147,35.5303224 0.105423914,34.8371725 0.516996495,34.2816546 C1.19663808,33.1200297 2.34952999,32.3067315 3.67878903,32.0511938 C5.84701059,31.4736533 8.07051498,31.1241962 10.3125227,31.008603 C14.6976401,30.9167445 19.0668484,31.5610667 23.2353805,32.9143223 C25.9907346,33.7589802 28.6825131,34.7956039 31.2906285,36.0164574 C33.2998874,37.0048897 35.2553731,38.0974145 37.1489907,39.2895089 C37.6228288,39.6057045 40.3969356,41.6225196 40.8276975,41.9728984 C41.6892214,42.6992937 42.8953548,43.7504304 43.7396481,44.5366464 C45.5833456,46.3258851 47.1613514,48.365944 48.4263379,50.5956374 C48.6675646,51.0656579 48.8484846,51.5356783 49.1586332,52.0740654 C49.4054721,52.604336 49.6184027,53.149499 49.7961608,53.7063183 C49.8650827,54.0225139 49.9770808,54.4925343 49.9943113,54.509626 C50.1190249,55.018936 50.211105,55.5355676 50.2699989,56.0564206 L50.3216904,56.0307831 Z M106.174282,53.5097643 C103.67487,53.8992672 101.155154,54.1474967 98.6273327,54.2532512 L97.9381136,56.3982536 C99.5093222,56.2736083 101.088056,56.2736083 102.659264,56.3982536 C102.659264,56.3982536 103.305407,56.3213412 103.382944,57.1246489 C103.393663,57.6411824 103.370641,58.1578622 103.314022,58.6714435 C103.314022,58.6714435 103.314022,59.1500098 102.581727,59.2781972 C101.849432,59.4063846 96.6889041,59.5943927 96.6889041,59.5943927 L95.8273802,62.388878 C95.8273802,62.388878 95.5172316,63.0383608 96.2150659,62.8503527 C96.9129003,62.6623445 102.245733,61.6795744 102.952182,61.8248535 C103.856126,62.0975429 104.426011,62.9817201 104.29616,63.9100351 C104.011857,65.0380842 98.6273327,68.4393232 95.3535421,68.1829484 C95.3535421,68.1829484 93.6304944,68.2940442 92.1745191,65.986671 C90.7185438,63.6792978 92.6914334,59.6371219 92.6914334,59.6371219 C92.6914334,59.6371219 91.8299095,57.6886734 92.4502067,57.0733739 C92.8809441,56.7972219 93.3847697,56.6544315 93.8975668,56.6631743 L95.2156983,53.9541472 C94.3088045,53.9915346 93.4317959,53.628537 92.820662,52.9628314 C91.9591381,51.9202405 91.9591381,51.4416742 92.5622048,51.159662 C96.2240906,50.250678 99.987329,49.8055993 103.762015,49.8350589 C103.762015,49.8350589 105.261066,49.6897798 106.561967,52.2620736 C106.561967,52.2620736 107.182265,53.3046644 106.113975,53.5524934 L106.174282,53.5097643 Z M89.9431723,63.9356726 C89.391797,65.2260924 87.9272065,66.6019705 86.1180064,65.7473879 C84.3088063,64.8928052 81.4916233,59.1158265 81.4916233,59.1158265 C81.4916233,59.1158265 80.4061033,56.9622782 80.1993375,57.0135531 C80.1993375,57.0135531 79.9667261,56.5948076 79.820267,58.9449099 C79.673808,61.2950122 79.820267,65.8670294 78.9070518,66.5848789 C78.5335601,66.9096463 78.0332603,67.051787 77.5430712,66.972401 C77.0528822,66.8930149 76.6241369,66.6004154 76.3741716,66.1746792 C75.8658726,65.3200965 75.6504916,63.3716481 75.9347945,59.9020425 C76.2190973,56.4324369 77.072006,52.7406399 78.1058346,51.5869533 C78.3551952,51.2291459 78.7657629,51.0155837 79.2042775,51.0155837 C79.6427921,51.0155837 80.0533597,51.2291459 80.3027204,51.5869533 C81.7251612,53.067855 82.9604907,54.7150825 83.9814272,56.4922577 L84.3863435,57.1759238 C84.3863435,57.1759238 86.4626159,60.5942545 86.6866121,60.5942545 C86.7812185,60.6640489 86.9107696,60.6640489 87.005376,60.5942545 C87.2207569,60.5344337 87.1346045,59.4234762 87.1346045,59.4234762 C86.6267689,55.9816356 85.8490383,52.5843345 84.8084901,49.2624885 C84.6387316,48.7673832 84.6060046,48.2361652 84.7137225,47.7242397 C84.9032578,46.972207 85.670014,47.3225859 85.670014,47.3225859 C85.670014,47.3225859 88.6078103,48.792468 90.0379399,53.5354017 C91.0743897,56.9076403 91.0413079,60.5143323 89.9431723,63.867306 L89.9431723,63.9356726 Z M121.586943,61.0984582 C120.251581,63.4143772 116.469492,68.2598609 111.446808,67.0805368 C109.505369,71.5673137 108.20903,76.3023993 107.595796,81.1469673 C107.595796,81.1469673 107.423491,82.3177455 106.441354,81.9160916 C104.849472,81.0747889 103.767335,79.5204024 103.538019,77.7457283 C103.184794,74.8230556 104.502925,69.8921137 107.173649,64.2262307 C106.182614,62.5264249 105.874933,60.5181898 106.312125,58.6030769 C107.092545,55.0738998 109.02081,51.8970277 111.800032,49.5615924 C111.800032,49.5615924 112.377253,49.0659345 112.713248,49.2112135 C113.049242,49.3564926 112.911398,50.9203788 112.61848,51.6724116 C112.325562,52.4244443 110.171752,56.0991497 110.171752,56.0991497 C110.171752,56.0991497 108.83639,58.594531 109.206846,60.5515253 C111.739726,56.6973576 117.477475,48.9292012 121.044183,51.3818535 C122.233086,52.2364361 122.767231,54.0737888 122.767231,56.0649664 C122.786351,57.8044994 122.372037,59.5217881 121.561098,61.0642749 L121.586943,61.0984582 Z M120.587576,55.0138297 C120.587576,55.0138297 120.389425,53.475581 118.864528,55.1676546 C116.691249,57.4797387 114.834487,60.0657322 113.34216,62.8588985 C114.96679,62.6522395 116.506894,62.0211065 117.804854,61.0300916 C118.743915,60.175509 120.92357,57.9621399 120.570345,54.9881923 L120.587576,55.0138297 Z M149.29355,54.6634508 L140.0494,54.6634508 C139.868112,51.5624252 139.482475,48.4764878 138.894958,45.4254124 C138.836447,45.1030789 138.553145,44.8688958 138.222969,44.8699302 L136.095005,44.8699302 C135.911451,44.8699302 135.737504,44.9512906 135.621167,45.0921251 C135.498958,45.2332496 135.451058,45.4233065 135.491938,45.6048747 C136.085608,48.5951195 136.477039,51.6213955 136.663611,54.6634508 L127.807146,54.6634508 C127.396535,54.6634239 127.062339,54.9911167 127.05762,55.3983919 L127.05762,57.2955654 C127.05762,57.7061819 127.393194,58.0390523 127.807146,58.0390523 L136.784224,58.0390523 C136.784224,58.5090728 136.784224,58.893635 136.784224,59.3209263 C136.794901,61.8387874 136.662591,64.3552462 136.387923,66.8583453 C136.364438,67.0540544 136.427243,67.2502959 136.560228,67.3967324 C136.692093,67.5413769 136.880573,67.6223932 137.077142,67.6190309 L139.041417,67.6190309 C139.425139,67.620574 139.746635,67.3313337 139.782327,66.9523494 C140.050784,64.417383 140.180204,61.8698212 140.170013,59.3209263 C140.170013,58.9363641 140.170013,58.4663436 140.170013,58.0390523 L149.250474,58.0390523 C149.664426,58.0390523 150,57.7061819 150,57.2955654 L150,55.3813003 C150,55.184892 149.920772,54.9966501 149.779955,54.8585736 C149.639139,54.7204971 149.448464,54.6440754 149.250474,54.6463592 L149.29355,54.6634508 Z" id="Shape" fill="#FFFFFF" fill-rule="nonzero"/>
        <path d="M137.953555,40.0397477 C129.076683,17.9972673 108.870418,2.7167911 85.4377881,0.326028863 C62.0051579,-2.06473337 39.1836121,8.82574202 26.1249472,28.6302043 C25.9973294,28.8263952 25.9655054,29.0707815 26.0385531,29.2936513 C26.1132799,29.5184863 26.2898743,29.6936791 26.513721,29.7650479 L28.1638495,30.3324697 C28.2610451,30.349412 28.3603941,30.349412 28.4575897,30.3324697 C28.7659055,30.3352171 29.0548933,30.1810131 29.2264978,29.9221801 C40.4386793,13.249609 59.1006867,3.27682278 79.0500129,3.29700225 C103.253275,3.30387777 125.105287,17.9379573 134.540985,40.4587669 C134.673517,40.7847512 134.987037,40.9982409 135.335812,41 L137.314238,41 C137.542169,40.9953803 137.753586,40.8788626 137.880837,40.6877312 C138.008089,40.4965998 138.035222,40.254816 137.953555,40.0397477 L137.953555,40.0397477 Z" id="Path" fill="url(#radialGradient-1)" fill-rule="nonzero"/>
    </g>
</svg>