<svg xmlns="http://www.w3.org/2000/svg" width="2500" height="472" viewBox="0 0 530.404 100.225"><path d="M59.24 36.977h-25.5v-7.914c0-4.988-.243-8.111-.728-9.367-.485-1.256-1.636-1.884-3.453-1.885-1.575 0-2.645.539-3.21 1.615-.565 1.077-.849 3.84-.849 8.29v41.83c0 3.913.283 6.487.85 7.726s1.694 1.857 3.391 1.857c1.857 0 3.12-.7 3.786-2.1.666-1.4 1-4.127 1-8.183V58.51h-5.149V45.266H59.24v46.783H43.188l-2.362-6.245c-1.736 2.69-3.927 4.71-6.572 6.057-2.645 1.346-5.765 2.019-9.358 2.019-4.28 0-8.288-.924-12.023-2.772s-6.572-4.137-8.51-6.864-3.15-5.59-3.635-8.586C.243 72.66 0 68.166 0 62.172V36.277c0-8.326.505-14.374 1.515-18.143S5.422 10.91 10.207 7.77c4.785-3.14 10.974-4.71 18.565-4.71 7.471 0 13.67 1.363 18.596 4.09C52.294 9.88 55.505 13.12 57 16.87c1.494 3.75 2.241 9.196 2.241 16.339v3.768zM88.192 48.28H65.235V43.49c0-5.527.717-9.79 2.15-12.786 1.434-2.996 4.311-5.644 8.632-7.94 4.32-2.297 9.934-3.445 16.84-3.445 8.277 0 15.576 1.3 19.776 3.903 4.2 2.602 6.724 5.796 7.571 9.582.848 3.787 1.271 11.584 1.272 23.392V92.05H96.611v-6.353c-1.494 2.548-3.423 4.459-5.785 5.733s-5.179 1.91-8.449 1.91c-4.28 0-8.208-1.067-11.78-3.202-3.575-2.136-5.362-6.811-5.362-14.024v-5.868c0-5.348.95-8.99 2.848-10.93 1.897-1.937 6.602-4.197 14.113-6.782 8.035-2.8 12.336-4.684 12.901-5.652s.85-2.942.85-5.922c0-3.732-.314-6.164-.94-7.295-.626-1.13-1.666-1.695-3.119-1.695-1.656 0-2.686.476-3.089 1.427-.404.95-.606 3.418-.606 7.402v7.482zm7.754 9.799c-3.917 2.548-6.188 4.684-6.814 6.406s-.939 4.199-.939 7.429c0 3.697.272 6.084.818 7.16.545 1.077 1.625 1.615 3.24 1.615 1.534 0 2.534-.422 2.998-1.266.465-.843.697-3.06.697-6.648V58.08zm57.058-37.47l-.424 6.783c1.898-2.691 4.16-4.71 6.784-6.057 2.625-1.346 5.613-2.02 8.965-2.02 6.542 0 11.69 2.692 15.446 8.076 2.06-2.691 4.381-4.71 6.966-6.057 2.584-1.346 5.451-2.02 8.601-2.02 4.16 0 7.602.898 10.328 2.692 2.726 1.795 4.472 3.993 5.24 6.595.767 2.603 1.15 6.828 1.15 12.679v50.767h-23.745V45.48c0-6.102-.232-9.88-.696-11.332-.465-1.454-1.545-2.181-3.24-2.181-1.737 0-2.857.718-3.362 2.153s-.757 5.222-.757 11.359v46.567h-23.745V46.664c0-7-.19-11.198-.575-12.598s-1.443-2.1-3.18-2.1c-1.09 0-2.02.368-2.786 1.104a4.032 4.032 0 0 0-1.272 2.69c-.08 1.06-.12 3.313-.12 6.758v49.528h-24.54v-71.44h24.962v.004zm126.96 36.985h-31.68v15.45c0 3.23.263 5.313.788 6.246.524.933 1.534 1.399 3.028 1.399 1.857 0 3.1-.62 3.726-1.857s.938-3.634.938-7.187v-9.422h23.2V67.5c0 4.414-.313 7.806-.939 10.175-.626 2.368-2.09 4.898-4.392 7.59-2.302 2.692-5.22 4.71-8.753 6.058-3.533 1.346-7.965 2.019-13.296 2.019-5.169 0-9.73-.664-13.689-1.992-3.957-1.328-7.036-3.15-9.237-5.464-2.2-2.315-3.725-4.863-4.573-7.645-.848-2.781-1.27-6.828-1.27-12.14V45.266c0-6.244.948-11.17 2.846-14.777s5.007-6.37 9.328-8.291c4.321-1.92 9.288-2.88 14.9-2.88 6.865 0 12.53 1.157 16.991 3.473 4.462 2.314 7.592 5.384 9.39 9.205 1.796 3.823 2.694 9.197 2.694 16.124v9.475zm-24.532-11.628v-5.222c0-3.697-.222-6.084-.666-7.16-.444-1.077-1.353-1.615-2.726-1.615-1.696 0-2.746.458-3.149 1.373-.404.915-.606 3.383-.606 7.402v5.222h7.147z"/><path fill="#FD0000" d="M342.778 29.27h-23.684v-6.46c0-3.015-.303-4.935-.908-5.761-.605-.825-1.615-1.237-3.028-1.238-1.535 0-2.696.557-3.483 1.669-.787 1.113-1.182 2.8-1.182 5.06 0 2.908.444 5.098 1.333 6.569.848 1.472 3.251 3.248 7.208 5.329 11.348 5.994 18.495 10.91 21.443 14.75 2.947 3.842 4.421 10.032 4.421 18.574 0 6.209-.817 10.785-2.453 13.729-1.635 2.942-4.795 5.41-9.479 7.402-4.684 1.99-10.136 2.987-16.354 2.987-6.824 0-12.649-1.148-17.475-3.445-4.826-2.297-7.986-5.222-9.48-8.775-1.494-3.553-2.24-8.596-2.24-15.127v-5.707H311.1V69.43c0 3.267.333 5.366 1 6.299.665.934 1.847 1.399 3.543 1.399 1.695 0 2.958-.592 3.785-1.776.828-1.185 1.242-2.942 1.242-5.275 0-5.133-.788-8.488-2.362-10.067-1.615-1.58-5.593-4.217-11.933-7.914-6.34-3.732-11.335-6.442-13.395-8.13s-3.766-4.02-5.118-6.998c-1.353-2.98-2.029-6.782-2.029-11.412 0-6.676.96-12.617 2.877-15.703 1.918-3.087 5.018-5.501 9.298-7.241S308.254.002 314.311.002c6.623 0 12.266.95 16.93 2.854s7.754 4.298 9.268 7.187c1.515 2.89 2.271 8.857 2.271 15.784v3.443h-.002zm36.313-20.188v8.602h6.867v11.305h-6.867v40.873c0 4.702.272 7.32.817 7.86.546.538 1.757.808 5.755.808v11.52h-9.873c-5.573 0-9.55-.205-11.933-.618-2.383-.413-4.482-1.364-6.3-2.854s-2.948-3.194-3.393-5.114-.666-6.434-.666-13.54V28.99h-5.27V17.684h5.27V9.082h25.593zm68.152 34.615v17.497c0 6.424-.363 11.135-1.09 14.132-.728 2.996-2.282 5.796-4.664 8.397-2.383 2.603-5.44 4.522-9.177 5.76s-8.026 1.858-12.872 1.858c-5.41 0-9.994-.53-13.75-1.588-3.755-1.06-6.673-2.656-8.752-4.792-2.08-2.135-3.564-4.72-4.452-7.752-.889-3.033-1.333-7.582-1.333-13.647V45.258c0-6.64.808-11.826 2.423-15.56s4.522-6.728 8.723-8.99c4.2-2.26 9.57-3.391 16.112-3.391 5.492 0 10.206.727 14.144 2.18 3.938 1.454 6.976 3.348 9.116 5.68 2.14 2.333 3.604 4.738 4.392 7.215.786 2.476 1.18 6.245 1.18 11.305zm-24.47-5.382c0-3.661-.224-5.967-.668-6.918s-1.393-1.427-2.847-1.427c-1.453 0-2.423.476-2.907 1.427s-.727 3.257-.727 6.918v32.247c0 3.373.242 5.57.727 6.595.484 1.022 1.434 1.534 2.847 1.534 1.454 0 2.413-.467 2.877-1.4.465-.933.697-2.942.697-6.03V38.316zM478.93 18.61l-.424 6.299c2.18-2.548 4.583-4.45 7.208-5.707 2.624-1.256 5.491-1.884 8.601-1.884 14.521-.526 19.588 7.424 19.762 21.05v30.094c0 6.496-.434 11.117-1.302 13.862-4.81 9.58-17.962 11.099-27.182 7.133-2.585-1.256-4.947-3.122-7.087-5.6v16.367h-24.472V18.61h24.896zm6.966 20.78c0-4.413-.182-7.087-.545-8.02-.364-.933-1.373-1.4-3.029-1.4-1.615 0-2.655.539-3.119 1.616-.465 1.076-.696 3.679-.696 7.806V69c0 4.307.242 6.999.727 8.075.484 1.077 1.534 1.615 3.15 1.615 1.574 0 2.554-.493 2.937-1.48s.575-3.383.575-7.188V39.39z"/><path fill="#F00" d="M522.267 18.312v-6.485h2.876c.578 0 1.018.058 1.318.175.301.116.541.322.721.617s.27.62.27.978c0 .46-.148.848-.446 1.163s-.758.517-1.38.602c.227.109.4.217.518.323.25.229.487.518.712.862l1.128 1.766h-1.079l-.858-1.35c-.25-.39-.457-.688-.619-.894s-.308-.351-.436-.434a1.31 1.31 0 0 0-.392-.173 2.582 2.582 0 0 0-.479-.03h-.995v2.88h-.859zm.858-3.623h1.845c.393 0 .7-.041.92-.122a.975.975 0 0 0 .505-.39c.115-.178.173-.372.173-.581 0-.307-.11-.56-.334-.757s-.575-.296-1.056-.296h-2.053v2.146z"/><path fill="none" stroke="#F00" d="M529.956 15.104a5.234 5.234 0 1 1-5.234-5.234 5.232 5.232 0 0 1 5.234 5.234z"/></svg>
