<?xml version="1.0" encoding="UTF-8" standalone="no"?>
<!-- Created with Inkscape (http://www.inkscape.org/) -->
<svg xmlns:dc="http://purl.org/dc/elements/1.1/" xmlns:cc="http://creativecommons.org/ns#" xmlns:rdf="http://www.w3.org/1999/02/22-rdf-syntax-ns#" xmlns:svg="http://www.w3.org/2000/svg" xmlns="http://www.w3.org/2000/svg" xmlns:sodipodi="http://sodipodi.sourceforge.net/DTD/sodipodi-0.dtd" xmlns:inkscape="http://www.inkscape.org/namespaces/inkscape" version="1.0" width="1000" height="287.76505" id="svg2829" inkscape:version="0.48.5 r10040" sodipodi:docname="Gw2k_2004_logo.svg">
  <metadata id="metadata46">
    <rdf:RDF>
      <cc:Work rdf:about="">
        <dc:format>image/svg+xml</dc:format>
        <dc:type rdf:resource="http://purl.org/dc/dcmitype/StillImage"/>
      </cc:Work>
    </rdf:RDF>
  </metadata>
  <sodipodi:namedview pagecolor="#ffffff" bordercolor="#666666" borderopacity="1" objecttolerance="10" gridtolerance="10" guidetolerance="10" inkscape:pageopacity="0" inkscape:pageshadow="2" inkscape:window-width="1058" inkscape:window-height="1041" id="namedview44" showgrid="false" fit-margin-left="0.5" fit-margin-bottom="0.5" fit-margin-top="0.5" fit-margin-right="0.5" inkscape:zoom="0.59444082" inkscape:cx="529.64045" inkscape:cy="-38.5575" inkscape:window-x="856" inkscape:window-y="-21" inkscape:window-maximized="0" inkscape:current-layer="svg2829"/>
  <defs id="defs2831">
    <clipPath id="clip24">
      <path d="m 234,354.157 126,0 0,-71.55699 -126,0 0,71.55699 z" id="path144" inkscape:connector-curvature="0"/>
    </clipPath>
    <clipPath id="clip23">
      <path d="M 0,774 594,774 594,0 0,0 0,774 z" id="path141" inkscape:connector-curvature="0"/>
    </clipPath>
    <clipPath id="clip22">
      <path d="m 234.011,282.60001 125.989,0 0,71.55699 -125.989,0 0,-71.55699 z" id="path138" inkscape:connector-curvature="0"/>
    </clipPath>
    <clipPath id="clip21">
      <path d="m 234,354.157 126,0 0,-71.55699 -126,0 0,71.55699 z" id="path135" inkscape:connector-curvature="0"/>
    </clipPath>
    <clipPath id="clip20">
      <path d="M 0,774 594,774 594,0 0,0 0,774 z" id="path132" inkscape:connector-curvature="0"/>
    </clipPath>
    <clipPath id="clip19">
      <path d="m 234,354.157 126,0 0,-71.55699 -126,0 0,71.55699 z" id="path129" inkscape:connector-curvature="0"/>
    </clipPath>
    <clipPath id="clip18">
      <path d="M 0,774 594,774 594,0 0,0 0,774 z" id="path126" inkscape:connector-curvature="0"/>
    </clipPath>
  </defs>
  <path inkscape:connector-curvature="0" d="m 254.76882,152.92641 -93.97434,0 c -4.82185,0 -8.72536,-3.90133 -8.72536,-8.71888 0,-4.83045 3.90351,-8.72321 8.72536,-8.72321 l 93.91845,0 c 1.50118,-24.049 9.15978,-39.796335 10.55556,-64.180865 C 266.9396,58.115412 264.46628,44.299378 257.29803,31.915724 240.38071,2.6964792 203.57168,-7.8268428 173.90076,7.5441252 c -0.96351,0.492506 -1.91627,1.01514 -2.86256,1.565716 C 143.31795,25.158274 134.5496,43.135856 107.07456,59.040205 l 0.0106,0 c -27.401925,15.850612 -47.328079,14.577398 -74.919275,30.4667 -0.07745,0.03947 -0.154866,0.08351 -0.236581,0.131434 C 1.8325191,107.05463 -8.4348539,145.56704 8.9771061,175.65086 c 5.7423379,9.92976 13.8009699,17.6744 23.0833379,23.00596 l -0.0088,0.0141 c 0.0882,0.0398 0.163464,0.0821 0.247327,0.13566 0.597928,0.33546 1.19581,0.66242 1.808756,0.98931 26.685738,14.74728 46.347351,13.86336 73.179363,29.30745 l -0.009,-0.0211 c 26.74815,15.414 35.86707,32.8281 61.86247,48.46148 0.61722,0.38056 1.23232,0.75062 1.86249,1.11835 0.12023,0.0754 0.21935,0.14201 0.34398,0.21283 l 0.005,0 c 18.00126,10.32762 40.64585,11.50189 60.20638,1.39151 0.0837,-0.0317 0.17618,-0.0733 0.25149,-0.11206 0.78287,-0.41273 1.55923,-0.82369 2.31845,-1.26891 0.13965,-0.0733 0.2819,-0.14835 0.40875,-0.22376 0.4624,-0.26251 0.9033,-0.54627 1.34636,-0.83448 0.12026,-0.0645 0.2493,-0.13742 0.35501,-0.20014 21.59079,-13.41599 32.36143,-37.94891 29.15474,-61.84734 -1.54417,-23.78237 -8.99633,-39.37054 -10.62657,-62.85181 m -41.09336,25.84306 c -0.009,0.0317 -0.0222,0.0472 -0.0396,0.0581 0,0.0176 -0.004,0.0317 -0.0176,0.0395 l 0,0 c -11.79652,19.40997 -33.13995,32.39156 -57.46213,32.39156 -37.05419,0 -67.200413,-30.12899 -67.221949,-67.17034 0.02149,-37.04133 30.167759,-67.170324 67.221949,-67.170324 24.32218,0 45.66561,12.985853 57.46213,32.389364 l 0,0 c 0.009,0.007 0.0176,0.0176 0.0176,0.0317 0.0176,0.0211 0.0307,0.0395 0.0396,0.0581 l 0,0.004 c 0.78719,1.30976 1.23453,2.8432 1.23453,4.47988 0,4.81322 -3.89923,8.72962 -8.72105,8.72962 -3.16365,0 -5.93592,-1.69686 -7.47797,-4.21965 l 0.0176,-0.002 c -8.73436,-14.38819 -24.55053,-24.040453 -42.57332,-24.040453 -27.44708,0 -49.75406,22.315523 -49.77982,49.738993 0.0254,27.42124 22.33274,49.71961 49.77982,49.71961 18.02279,0 33.83896,-9.62648 42.57291,-24.01458 l -0.0176,-0.007 c 1.54205,-2.52705 4.31432,-4.21535 7.47797,-4.21535 4.82182,0 8.72105,3.91214 8.72105,8.72969 0,1.63235 -0.44734,3.16794 -1.23453,4.47125 z" style="fill:#231f20;fill-opacity:1;fill-rule:nonzero;stroke:none" id="path3045"/>
  <path inkscape:connector-curvature="0" d="m 378.02698,171.81811 c 0,-9.12322 -3.22601,-11.09755 -11.45668,-11.09755 l -3.86267,0 0,-8.04789 45.65916,0 0,8.04789 -6.18971,0 c -6.2628,0 -9.12537,2.33131 -9.12537,11.45023 l 0,26.49868 c -13.42462,4.46479 -26.48141,6.79402 -41.34055,6.79402 -28.45578,0 -53.68548,-13.42462 -53.68548,-56.01257 0,-47.24633 24.16511,-66.393952 61.38064,-66.393952 10.20721,0 21.48112,1.610855 33.64539,4.290621 l 0,31.496851 -12.52989,0 -1.06676,-14.48916 c -0.54198,-6.084324 -4.12934,-11.992283 -21.28753,-11.992283 -26.86426,0 -42.95788,15.386053 -42.95788,54.571593 0,24.88352 8.9555,49.21209 38.82854,49.21209 7.16398,0 15.03118,-1.59366 23.98879,-4.27772 l 0,-20.05085 z" style="fill:#231f20;fill-opacity:1;fill-rule:nonzero;stroke:none" id="path3047"/>
  <path inkscape:connector-curvature="0" d="m 436.77523,179.15837 c 0,-11.9965 8.05435,-18.97549 27.374,-18.97549 l 11.45238,0 c 0,10.02434 -0.70971,15.20966 -3.21745,21.30254 -2.49477,6.25419 -10.37702,12.86545 -19.86374,12.86545 -8.94686,0 -15.74519,-5.35739 -15.74519,-15.1925 m 39.91037,23.43606 27.38041,0 0,-7.51021 c -12.35357,0 -13.78595,-0.73335 -13.78595,-15.57094 0,-14.49353 0.36781,-27.73961 0.36781,-40.79862 0,-15.56885 -11.99443,-23.08981 -31.32698,-23.08981 -31.67532,0 -35.42827,15.56885 -35.78958,27.20407 l 15.75163,0 c 0.35899,-11.63522 3.20881,-19.15618 19.14544,-19.15618 10.73192,0 17.17323,6.26498 17.17323,18.97556 l 0,9.48239 -18.60776,0 c -25.23402,0 -35.9638,12.34708 -35.9638,28.80634 0,14.68487 10.91473,23.81027 26.12227,23.81027 17.35604,0 24.50924,-8.60062 29.17196,-16.82914 l 0.36118,0 0,14.67627 z" style="fill:#231f20;fill-opacity:1;fill-rule:nonzero;stroke:none" id="path3049"/>
  <path inkscape:connector-curvature="0" d="m 523.01355,125.82131 -15.56667,0 0,-8.04571 c 16.64633,0 19.15622,-7.87587 20.22291,-23.808162 l 10.38143,0 0,23.808162 23.09623,0 0,8.04571 -23.09623,0 0,53.14996 c 0,13.78375 3.56794,16.47215 9.30817,16.47215 6.61767,0 9.84368,-4.47561 10.19425,-17.17541 l 11.08465,0 c 0,19.31961 -8.21993,26.47929 -23.96515,26.47929 -14.85048,0 -22.36929,-6.81126 -22.36929,-22.90916 0,-8.7705 0.7097,-31.67103 0.7097,-41.1599 l 0,-14.85693 z" style="fill:#231f20;fill-opacity:1;fill-rule:nonzero;stroke:none" id="path3051"/>
  <path inkscape:connector-curvature="0" d="m 591.84425,152.13069 c 0.7183,-17.18405 8.41348,-27.91379 22.3693,-27.91379 12.70631,0 19.50675,10.19854 19.68526,27.91379 l -42.05456,0 m 43.12344,26.30934 c -2.1356,12.16431 -10.36846,17.70665 -20.56919,17.70665 -14.14077,0 -22.37144,-10.72763 -22.55425,-35.42612 l 57.08786,0 0,-10.19858 c 0,-24.70067 -15.57094,-34.89713 -34.17655,-34.89713 -23.97589,0 -38.66298,15.39034 -38.66298,44.55803 0,30.96777 13.42889,44.56442 38.12097,44.56442 18.43788,0 30.60003,-8.05649 33.27976,-26.30727 l -12.52562,0 z" style="fill:#231f20;fill-opacity:1;fill-rule:nonzero;stroke:none" id="path3053"/>
  <path inkscape:connector-curvature="0" d="m 717.00147,117.7756 16.80976,0 18.24214,73.37505 0.35724,0 16.65059,-56.91372 c 0.71619,-2.68402 1.06676,-4.47772 1.06676,-5.54878 0,-2.32275 -1.43664,-3.39807 -6.79832,-3.39807 l -7.51667,0 0,-7.51448 36.85424,0 0,7.51448 c -7.50807,0.71834 -10.38143,3.57658 -12.88909,11.63095 l -20.0294,66.75525 -16.45918,0 -18.94977,-73.3751 -0.3572,0 -19.65517,73.3751 -16.84419,0 -19.48523,-66.39826 c -2.33138,-7.87795 -4.29496,-11.09324 -12.52136,-11.98794 l 0,-7.51448 40.06308,0 0,7.51448 -8.05649,0 c -5.35735,0 -6.97039,2.14423 -6.97039,4.64764 0,1.61519 0.54843,4.47772 1.43668,7.52096 l 14.86557,53.69197 0.33792,0 19.84873,-73.37505 z" style="fill:#231f20;fill-opacity:1;fill-rule:nonzero;stroke:none" id="path3055"/>
  <path inkscape:connector-curvature="0" d="m 812.36946,179.15837 c 0,-11.9965 8.05005,-18.97549 27.38689,-18.97549 l 11.44167,0 c 0,10.02434 -0.72261,15.20966 -3.23035,21.30254 -2.49907,6.25419 -10.37494,12.86545 -19.85084,12.86545 -8.95761,0 -15.74737,-5.35739 -15.74737,-15.1925 m 39.90392,23.43606 27.37399,0 0,-7.51021 c -12.345,0 -13.77305,-0.73335 -13.77305,-15.57094 0,-14.49353 0.34392,-27.73961 0.34392,-40.79862 0,-15.56885 -11.98365,-23.08981 -31.30541,-23.08981 -31.67321,0 -35.42616,15.56885 -35.78747,27.20407 l 15.74088,0 c 0.36118,-11.63522 3.23031,-19.15618 19.14329,-19.15618 10.74052,0 17.18828,6.26498 17.18828,18.97556 l 0,9.48239 -18.61203,0 c -25.23405,0 -35.96816,12.34708 -35.96816,28.80634 0,14.68487 10.92121,23.81027 26.13732,23.81027 17.34532,0 24.50282,-8.60062 29.1655,-16.82914 l 0.3528,0 0,14.67627 z" style="fill:#231f20;fill-opacity:1;fill-rule:nonzero;stroke:none" id="path3057"/>
  <path inkscape:connector-curvature="0" d="m 876.25783,230.36847 c 25.31795,5.16164 32.03668,-6.13594 41.79226,-26.34166 l -26.48793,-66.56813 c -2.31415,-5.90577 -5.54019,-11.2739 -14.48705,-12.1686 l 0,-7.51448 42.23953,0 0,7.51448 -8.05216,0 c -4.83475,0 -6.98544,1.07532 -6.98544,3.93363 0,1.96999 1.24743,5.19173 3.22601,10.20066 l 18.07442,46.53663 19.86377,-48.50232 c 1.60871,-3.76157 2.68407,-6.62411 2.68407,-8.23497 0,-3.4024 -2.86473,-3.93363 -8.60274,-3.93363 l -6.60692,0 0,-7.51448 39.36621,0 0,7.51448 c -9.65231,0 -12.16431,4.10999 -16.46571,14.67412 l -24.21673,59.00418 c -6.57253,14.43116 -14.85697,31.95927 -27.92457,38.74681 -6.59829,3.41745 -17.25717,5.06703 -27.41702,2.04966 l 0,-9.39638 z" style="fill:#231f20;fill-opacity:1;fill-rule:nonzero;stroke:none" id="path3059"/>
  <path inkscape:connector-curvature="0" d="m 378.02698,171.81811 c 0,-9.12322 -3.22601,-11.09755 -11.45668,-11.09755 l -3.86267,0 0,-8.04789 45.65916,0 0,8.04789 -6.18971,0 c -6.2628,0 -9.12537,2.33131 -9.12537,11.45023 l 0,26.49868 c -13.42462,4.46479 -26.48141,6.79402 -41.34055,6.79402 -28.45578,0 -53.68548,-13.42462 -53.68548,-56.01257 0,-47.24633 24.16511,-66.393952 61.38064,-66.393952 10.20721,0 21.48112,1.610855 33.64539,4.290621 l 0,31.496851 -12.52989,0 -1.06676,-14.48916 c -0.54198,-6.084324 -4.12934,-11.992283 -21.28753,-11.992283 -26.86426,0 -42.95788,15.386053 -42.95788,54.571593 0,24.88352 8.9555,49.21209 38.82854,49.21209 7.16398,0 15.03118,-1.59366 23.98879,-4.27772 l 0,-20.05085 z" style="fill:#231f20;fill-opacity:1;fill-rule:nonzero;stroke:none" id="path3061"/>
  <path inkscape:connector-curvature="0" d="m 436.77523,179.15837 c 0,-11.9965 8.05435,-18.97549 27.374,-18.97549 l 11.45238,0 c 0,10.02434 -0.70971,15.20966 -3.21745,21.30254 -2.49477,6.25419 -10.37702,12.86545 -19.86374,12.86545 -8.94686,0 -15.74519,-5.35739 -15.74519,-15.1925 m 39.91037,23.43606 27.38041,0 0,-7.51021 c -12.35357,0 -13.78595,-0.73335 -13.78595,-15.57094 0,-14.49353 0.36781,-27.73961 0.36781,-40.79862 0,-15.56885 -11.99443,-23.08981 -31.32698,-23.08981 -31.67532,0 -35.42827,15.56885 -35.78958,27.20407 l 15.75163,0 c 0.35899,-11.63522 3.20881,-19.15618 19.14544,-19.15618 10.73192,0 17.17323,6.26498 17.17323,18.97556 l 0,9.48239 -18.60776,0 c -25.23402,0 -35.9638,12.34708 -35.9638,28.80634 0,14.68487 10.91473,23.81027 26.12227,23.81027 17.35604,0 24.50924,-8.60062 29.17196,-16.82914 l 0.36118,0 0,14.67627 z" style="fill:#231f20;fill-opacity:1;fill-rule:nonzero;stroke:none" id="path3063"/>
  <path inkscape:connector-curvature="0" d="m 523.01355,125.82131 -15.56667,0 0,-8.04571 c 16.64633,0 19.15622,-7.87587 20.22291,-23.808162 l 10.38143,0 0,23.808162 23.09623,0 0,8.04571 -23.09623,0 0,53.14996 c 0,13.78375 3.56794,16.47215 9.30817,16.47215 6.61767,0 9.84368,-4.47561 10.19425,-17.17541 l 11.08465,0 c 0,19.31961 -8.21993,26.47929 -23.96515,26.47929 -14.85048,0 -22.36929,-6.81126 -22.36929,-22.90916 0,-8.7705 0.7097,-31.67103 0.7097,-41.1599 l 0,-14.85693 z" style="fill:#231f20;fill-opacity:1;fill-rule:nonzero;stroke:none" id="path3065"/>
  <path inkscape:connector-curvature="0" d="m 591.84425,152.13069 c 0.7183,-17.18405 8.41348,-27.91379 22.3693,-27.91379 12.70631,0 19.50675,10.19854 19.68526,27.91379 l -42.05456,0 m 43.12344,26.30934 c -2.1356,12.16431 -10.36846,17.70665 -20.56919,17.70665 -14.14077,0 -22.37144,-10.72763 -22.55425,-35.42612 l 57.08786,0 0,-10.19858 c 0,-24.70067 -15.57094,-34.89713 -34.17655,-34.89713 -23.97589,0 -38.66298,15.39034 -38.66298,44.55803 0,30.96777 13.42889,44.56442 38.12097,44.56442 18.43788,0 30.60003,-8.05649 33.27976,-26.30727 l -12.52562,0 z" style="fill:#231f20;fill-opacity:1;fill-rule:nonzero;stroke:none" id="path3067"/>
  <path inkscape:connector-curvature="0" d="m 717.00147,117.7756 16.80976,0 18.24214,73.37505 0.35724,0 16.65059,-56.91372 c 0.71619,-2.68402 1.06676,-4.47772 1.06676,-5.54878 0,-2.32275 -1.43664,-3.39807 -6.79832,-3.39807 l -7.51667,0 0,-7.51448 36.85424,0 0,7.51448 c -7.50807,0.71834 -10.38143,3.57658 -12.88909,11.63095 l -20.0294,66.75525 -16.45918,0 -18.94977,-73.3751 -0.3572,0 -19.65517,73.3751 -16.84419,0 -19.48523,-66.39826 c -2.33138,-7.87795 -4.29496,-11.09324 -12.52136,-11.98794 l 0,-7.51448 40.06308,0 0,7.51448 -8.05649,0 c -5.35735,0 -6.97039,2.14423 -6.97039,4.64764 0,1.61519 0.54843,4.47772 1.43668,7.52096 l 14.86557,53.69197 0.33792,0 19.84873,-73.37505 z" style="fill:#231f20;fill-opacity:1;fill-rule:nonzero;stroke:none" id="path3069"/>
  <path inkscape:connector-curvature="0" d="m 812.36946,179.15837 c 0,-11.9965 8.05005,-18.97549 27.38689,-18.97549 l 11.44167,0 c 0,10.02434 -0.72261,15.20966 -3.23035,21.30254 -2.49907,6.25419 -10.37494,12.86545 -19.85084,12.86545 -8.95761,0 -15.74737,-5.35739 -15.74737,-15.1925 m 39.90392,23.43606 27.37399,0 0,-7.51021 c -12.345,0 -13.77305,-0.73335 -13.77305,-15.57094 0,-14.49353 0.34392,-27.73961 0.34392,-40.79862 0,-15.56885 -11.98365,-23.08981 -31.30541,-23.08981 -31.67321,0 -35.42616,15.56885 -35.78747,27.20407 l 15.74088,0 c 0.36118,-11.63522 3.23031,-19.15618 19.14329,-19.15618 10.74052,0 17.18828,6.26498 17.18828,18.97556 l 0,9.48239 -18.61203,0 c -25.23405,0 -35.96816,12.34708 -35.96816,28.80634 0,14.68487 10.92121,23.81027 26.13732,23.81027 17.34532,0 24.50282,-8.60062 29.1655,-16.82914 l 0.3528,0 0,14.67627 z" style="fill:#231f20;fill-opacity:1;fill-rule:nonzero;stroke:none" id="path3071"/>
  <path inkscape:connector-curvature="0" d="m 876.25783,230.36847 c 25.31795,5.16164 32.03668,-6.13594 41.79226,-26.34166 l -26.48793,-66.56813 c -2.31415,-5.90577 -5.54019,-11.2739 -14.48705,-12.1686 l 0,-7.51448 42.23953,0 0,7.51448 -8.05216,0 c -4.83475,0 -6.98544,1.07532 -6.98544,3.93363 0,1.96999 1.24743,5.19173 3.22601,10.20066 l 18.07442,46.53663 19.86377,-48.50232 c 1.60871,-3.76157 2.68407,-6.62411 2.68407,-8.23497 0,-3.4024 -2.86473,-3.93363 -8.60274,-3.93363 l -6.60692,0 0,-7.51448 39.36621,0 0,7.51448 c -9.65231,0 -12.16431,4.10999 -16.46571,14.67412 l -24.21673,59.00418 c -6.57253,14.43116 -14.85697,31.95927 -27.92457,38.74681 -6.59829,3.41745 -17.25717,5.06703 -27.41702,2.04966 l 0,-9.39638 z" style="fill:#231f20;fill-opacity:1;fill-rule:nonzero;stroke:none" id="path3073"/>
  <path inkscape:connector-curvature="0" d="m 985.76236,117.6831 0,1.56787 -3.75938,0 0,10.69105 -1.84962,0 0,-10.69105 -3.7164,0 0,-1.56787 9.3254,0 m 11.85461,12.25892 -0.48179,-7.39623 c -0.0603,-0.95062 0,-2.12055 -0.044,-3.32065 l -0.086,0 c -0.30973,1.13773 -0.67105,2.43025 -1.05816,3.50776 l -2.54639,7.05213 -1.41949,0 -2.49477,-7.23924 c -0.30127,-0.98501 -0.61083,-2.18292 -0.8947,-3.32065 l -0.086,0 c -0.044,1.16997 0,2.21739 -0.0602,3.32065 l -0.46457,7.39623 -1.78076,0 0.94632,-12.25892 2.43455,0 2.40016,6.65206 c 0.30974,0.92479 0.55058,1.93775 0.86891,3.07977 l 0.0602,0 c 0.2752,-1.14202 0.54202,-2.21735 0.86028,-3.10986 l 2.40016,-6.62197 2.4002,0 0.92909,12.25892 -1.88401,0 z" style="fill:#231f20;fill-opacity:1;fill-rule:nonzero;stroke:none" id="path3075"/>
</svg>