<?xml version="1.0" encoding="UTF-8" standalone="no"?>
<!-- Created with Inkscape (http://www.inkscape.org/) -->
<svg xmlns:dc="http://purl.org/dc/elements/1.1/" xmlns:cc="http://creativecommons.org/ns#" xmlns:rdf="http://www.w3.org/1999/02/22-rdf-syntax-ns#" xmlns:svg="http://www.w3.org/2000/svg" xmlns="http://www.w3.org/2000/svg" xmlns:sodipodi="http://sodipodi.sourceforge.net/DTD/sodipodi-0.dtd" xmlns:inkscape="http://www.inkscape.org/namespaces/inkscape" id="svg3150" version="1.1" inkscape:version="0.91 r13725" width="999" height="258.72" xml:space="preserve" sodipodi:docname="Gateway.svg"><metadata id="metadata3156"><rdf:RDF><cc:Work rdf:about=""><dc:format>image/svg+xml</dc:format><dc:type rdf:resource="http://purl.org/dc/dcmitype/StillImage"/><dc:title/></cc:Work></rdf:RDF></metadata><defs id="defs3154"/><sodipodi:namedview pagecolor="#ffffff" bordercolor="#666666" borderopacity="1" objecttolerance="10" gridtolerance="10" guidetolerance="10" inkscape:pageopacity="0" inkscape:pageshadow="2" inkscape:window-width="1680" inkscape:window-height="931" id="namedview3152" showgrid="false" fit-margin-left="0.5" fit-margin-bottom="0.5" fit-margin-top="0.5" fit-margin-right="0.5" inkscape:zoom="0.23701292" inkscape:cx="548.89021" inkscape:cy="531.57517" inkscape:window-x="0" inkscape:window-y="1" inkscape:window-maximized="1" inkscape:current-layer="g3237"/><g id="g3158" inkscape:groupmode="layer" inkscape:label="8508815" transform="matrix(1.25,0,0,-1.25,402.82374,-939.11545)"><g id="g3223" transform="matrix(6.9449545,0,0,6.9449545,-2901.1918,-538.68068)"><path id="path3174" style="fill:#ffffff;fill-opacity:1;fill-rule:nonzero;stroke:none" d="m 384.28418,-33.30176 c -2.4873,-0.74658 -7.26953,-2.93554 -8.18555,-3.0791 -2.41748,-0.38232 -3.43554,-2.29102 -3.5625,-2.80029 -0.12744,-0.51026 0.38135,-13.99951 0.38135,-13.99951 l 2.67334,-1.14551 3.43555,-2.92627 1.78222,-1.14649 c 0,0 0.47168,-1.36621 1.78125,-1.27246 1.78174,0.12696 1.52686,-0.12695 1.52686,-0.12695 l 2.03662,0.63623 8.52686,4.07129 4.07324,2.41894 2.32959,1.6167 0.46972,14.5459 -4.79736,2.31739 -6.78418,2.26464 c 0,0 -3.48535,-0.7124 -5.68701,-1.37451 l 0,0 z" inkscape:connector-curvature="0"/><path id="path3176" style="fill:#000000;fill-opacity:1;fill-rule:nonzero;stroke:none" d="m 402.53906,-36.08203 c 0.0967,-1.08936 -0.14404,-1.66699 -0.24072,-2.71387 -0.0244,-2.65967 -0.18213,-4.2207 -0.18213,-4.2207 0,0 -0.27685,-3.54785 0.10205,-5.94141 0.26319,-1.17676 0.25586,-2.54004 -0.20752,-2.81396 -0.99511,-0.49073 -2.2041,0.28418 -1.72412,4.0791 -0.12012,1.18701 -0.50537,5.52002 0.26953,9.34766 0.13428,1.03417 -0.0112,1.36425 0.12158,2.39843 0.0854,0.6709 1.47754,0.98096 1.86133,-0.13525 l 0,0 z" inkscape:connector-curvature="0"/><path id="path3178" style="fill:#000000;fill-opacity:1;fill-rule:nonzero;stroke:none" d="m 386.68652,-42.45605 c 1.00293,0.26611 0.38037,-0.02002 1.24561,0.33398 0.85937,0.39404 1.26318,0.81641 2.06396,1.28613 2.55225,1.09326 3.95508,1.9253 6.63428,2.7544 1.00244,0.30175 3.49561,1.05371 3.2959,1.47656 -0.9917,2.61572 0.35791,1.34961 0.76318,1.17236 1.56739,-0.6831 1.77344,-3.45605 0.0884,-3.67041 -1.39111,-0.17676 -2.20459,-0.32373 -3.53418,-0.7251 -2.60742,-0.80664 -3.7334,-1.61767 -6.21679,-2.6831 -0.84864,-0.49805 -1.64747,-0.99658 -2.5586,-1.41309 -0.72363,-0.43017 0.43848,0.20606 -0.29687,-0.20019 -2.84815,-1.70899 -3.54834,1.27588 -1.48487,1.66846 l 0,0 z" inkscape:connector-curvature="0"/><path id="path3180" style="fill:#000000;fill-opacity:1;fill-rule:nonzero;stroke:none" d="m 382.3252,-44.42139 c -1.3379,1.18848 -2.67139,1.73828 -4.15137,2.74024 -1.18848,0.81103 -2.40528,1.56982 -3.92627,1.67627 -0.43799,0.03222 -0.63281,0.06982 -0.67529,-0.13037 -0.0239,-0.10791 0.0488,-0.62549 0.12158,-1.86475 -0.45508,-4.0542 -0.68701,-6.90234 0.50781,-10.29395 0.15479,-0.43798 1.53564,-0.46826 1.96045,-0.69091 2.38135,-1.24463 3.41406,-1.18946 5.22949,-3.24512 1.25049,-1.41797 0.062,-4.48926 -1.94922,-2.09619 -1.61328,1.82861 -2.88183,2.54492 -4.979,3.88818 -0.94775,0.5835 -2.46484,0.22949 -2.56055,1.29541 -0.3667,4.06592 0.38819,6.93848 -0.0762,11.44043 -0.10498,1.01611 -0.45801,1.64404 -0.48682,2.63965 -0.0459,1.58154 2.00342,1.47266 2.25928,1.41895 0.49365,0.0371 0.5376,-0.10694 1.02051,-0.20704 1.79394,-0.73193 2.77637,-1.72461 4.43262,-2.85644 1.51123,-1.02344 3.07324,-1.00684 4.51464,-1.90527 0.43702,-0.27198 1.01026,-3.33252 -1.24169,-1.80909 l 0,0 z" inkscape:connector-curvature="0"/><path id="path3182" style="fill:#000000;fill-opacity:1;fill-rule:nonzero;stroke:none" d="m 400.90869,-38.60449 c -1.43017,0.1167 -3.88476,-0.16992 -5.40478,-1.06739 -1.08985,-0.64404 -1.55469,-1.97851 -1.21582,-3.1582 0.27343,-0.95361 1.57861,-1.05713 1.57861,-2.05322 0,-0.6377 -0.4458,-0.94483 -0.4458,-1.58301 0,-1.07373 1.31933,-1.83887 2.44531,-2.15478 1.38525,-0.38819 3.46143,-0.96094 3.61475,-0.49366 l -0.57227,10.51026 0,0 z" inkscape:connector-curvature="0"/><path id="path3184" style="fill:#000000;fill-opacity:1;fill-rule:nonzero;stroke:none" d="m 377.78857,-42.95068 c -0.9165,1.25781 -1.44043,1.53906 -4.208,2.104 -0.63135,-2.77393 -0.45948,-8.15723 -0.45948,-10.98877 0,-0.41748 1.05567,-0.9248 2.17139,-0.2583 0.34131,0.20312 0.60059,0.18115 1.02637,0.76953 0.52588,0.72754 -0.0488,0.87793 0.46484,2.00684 0.23535,0.51758 0.49463,0.45312 0.63916,0.59668 0.022,0.02197 0.7666,0.16943 1.21778,0.85888 0.25781,0.39453 0.31933,1.01661 0.31933,1.64746 0,0.62696 -0.229,1.4585 -0.31933,1.75879 0,0 -0.28565,0.72803 -0.85206,1.50489 l 0,0 z" inkscape:connector-curvature="0"/><path id="path3186" style="fill:#000000;fill-opacity:1;fill-rule:nonzero;stroke:none" d="m 381.52783,-34.83691 c 3.08447,1.61132 2.98242,1.83496 6.13233,2.59326 2.71972,0.65576 3.93359,-1.13965 6.88964,-2.11914 -0.43847,-1.82666 -0.81298,-3.15088 -2.66113,-3.15088 -1.24804,0 -1.87256,0.84424 -3.12012,0.84424 -2.2871,0 -2.95703,-2.71729 -5.2456,-2.71729 -2.26465,0 -5.23047,0.67529 -4.6582,2.89502 0.32226,1.25586 2.66308,1.65479 2.66308,1.65479 l 0,0 z" inkscape:connector-curvature="0"/><path id="path3188" style="fill:#000000;fill-opacity:1;fill-rule:nonzero;stroke:none" d="m 384.42578,-58.17725 c 0,-0.0249 1.85645,0.84327 2.00488,0.88233 1.06104,0.27783 2.63086,1.55566 3.70313,1.73144 2.19189,0.37256 3.96191,1.97657 3.33154,3.72461 -0.52978,1.46533 -3.00195,1.25 -3.00195,2.76221 0,0.54834 0.22412,0.84424 0.02,1.35107 -0.25098,0.62745 -1.13184,1.43506 -1.72363,1.51954 -1.72217,0.24658 -3.93653,-1.43458 -4.26612,-3.56641 0.13135,-2.53125 -0.48193,-6.09912 -0.0679,-8.40479 l 0,0 z" inkscape:connector-curvature="0"/><path id="path3190" style="fill:#000000;fill-opacity:1;fill-rule:nonzero;stroke:none" d="m 383.64893,-60.21289 c -0.62989,-0.4624 -0.87598,0.58203 -0.91065,1.25879 -0.0308,0.58545 0.13379,1.21533 0.13379,1.80078 0,1.06396 -0.26953,1.62109 -0.26953,2.68457 0,3.23291 0.24805,4.87939 0.24805,8.11133 0,1.29346 0.15771,0.95312 -0.52539,1.99267 -0.32129,0.48926 0.34619,1.68262 0.87939,1.81055 0.67773,0.09277 1.29541,-0.82031 1.5708,-1.73291 0.16797,-0.91846 0.16065,-1.41699 0.16065,-2.07031 0,-3.22559 -0.18555,-4.94922 -0.18555,-8.17432 0,-1.05762 0.33349,-3.54004 0.8916,-3.01025 l -1.99316,-2.6709 0,0 z" inkscape:connector-curvature="0"/><path id="path3192" style="fill:#000000;fill-opacity:1;fill-rule:nonzero;stroke:none" d="m 383.00732,-59.2373 c 0.22754,0.7246 3.71485,2.32519 3.71485,2.32519 0.36767,0.34082 2.48681,1.88818 5.08056,2.51221 3.32422,1.24951 4.73682,3.08203 7.84864,4.83447 0.35986,0.20313 0.0308,0.10205 0.46728,0.28027 1.17481,0.47803 2.33985,-1.86914 0.91748,-2.69531 -0.51953,-0.11767 -1.1665,-0.57568 -1.73877,-1.02441 -3.32177,-2.06494 -3.31201,-2.08985 -6.89404,-3.6919 -2.22266,-0.99316 -3.32568,-1.89502 -5.61328,-2.85791 -0.55762,-0.2334 -4.26856,-1.86279 -3.78272,0.31739 l 0,0 z" inkscape:connector-curvature="0"/><path id="path3194" style="fill:#000000;fill-opacity:1;fill-rule:nonzero;stroke:none" d="m 372.06543,-37.21094 c 1.50586,1.47315 3.16943,1.24512 4.37549,1.85205 2.07422,1.04297 3.80517,1.83838 5.97021,2.57129 1.35108,0.45752 3.43408,1.16016 5.09278,1.46875 1.2124,0.22656 0.72168,-2.40136 -0.67139,-2.54931 -10.02002,-2.29248 -12.84082,-3.65332 -11.85352,-4.18946 0.55079,-0.54443 -5.63476,-3.00732 -2.91357,0.84668 l 0,0 z" inkscape:connector-curvature="0"/><path id="path3196" style="fill:#000000;fill-opacity:1;fill-rule:nonzero;stroke:none" d="m 388.30176,-30.63086 c 1.3374,0.12695 2.58691,-0.48437 3.8872,-0.90723 3.34278,-0.95263 2.6377,-1.24316 5.87549,-2.40087 0.24268,-0.0669 2.97315,-1.05909 3.21534,-1.10401 0.7124,-0.13232 1.73925,-1.0581 0.35205,-1.43701 -0.75293,-0.34766 -1.93067,0.01562 -2.37012,0.23437 -0.48731,0.24561 -1.68067,0.36719 -4.85059,1.65235 -1.2041,0.48828 -1.66064,0.3457 -2.94824,0.7417 -0.62109,-0.10498 -3.6958,1.25781 -4.24805,1.30273 -1.1372,0.09229 -0.79785,1.6294 1.08692,1.91797 l 0,0 z" inkscape:connector-curvature="0"/></g><g id="g3237" transform="matrix(6.8426863,0,0,6.8426863,-2437.0023,-384.54234)"><path id="path3172" style="fill:#008240;fill-opacity:1;fill-rule:evenodd;stroke:none" d="m 386.79017,-71.847662 c -0.28515,-0.61132 -1.07519,-1.81494 -2.35205,-2.12841 -1.70263,-0.41748 -2.58642,0.84521 -3.05517,2.11767 5.26464,2.77393 6.05859,5.36621 5.32763,7.06787 -0.46679,1.08399 -2.0166,2.2544 -4.68994,1.59815 -4.42285,-1.08496 -5.93457,-5.89795 -4.30615,-9.68311 1.04199,-2.42431 3.29883,-3.65722 6.02002,-2.98974 3.00391,0.7373 4.33301,3.17919 4.73682,4.42968 l -1.68116,-0.41211 0,0 m -5.8374,0.98926 c -0.1748,0.70899 -1.51416,5.95215 0.96973,6.56152 0.59033,0.14454 1.29443,-0.15234 1.60547,-0.87597 0.40136,-0.93506 0.29052,-2.25537 -0.31006,-3.41358 -0.61573,-1.18603 -1.54737,-1.81494 -2.26514,-2.27197 l 0,0 z" inkscape:connector-curvature="0"/><path id="path3198" style="fill:#008240;fill-opacity:1;fill-rule:nonzero;stroke:none" d="m 395.98695,-68.345702 2.55908,-7.62793 1.31006,0 3.01563,9.87109 c 0.45752,1.48682 0.83447,1.60547 1.54785,1.67627 l 0,1.18066 -3.71045,0 0,-1.18066 c 0.43652,0 1.24951,-0.02295 1.24951,-0.94531 0,-0.23535 -0.0781,-0.49561 -0.11914,-0.58936 l -1.76563,-5.97558 -2.14306,6.42334 c -0.0801,0.2373 -0.0991,0.3789 -0.0991,0.49658 0,0.59033 0.65527,0.59033 0.93213,0.59033 l 0.53613,0 0,1.18066 -5.59668,0 0,-1.18066 c 0.87353,0 0.99316,-0.26025 1.29101,-1.08691 l 0.43702,-1.22705 -1.58789,-5.19629 -2.14405,6.42334 c -0.11865,0.33105 -0.13818,0.40185 -0.13818,0.54443 0,0.54248 0.41748,0.54248 1.03174,0.54248 l 0,1.18066 -5.21924,0 0,-1.18066 c 0.77295,0 1.01221,-0.0708 1.36914,-1.08691 l 3.61182,-10.46045 1.34863,0 2.28369,7.62793 0,0 z" inkscape:connector-curvature="0"/><path id="path3200" style="fill:#008240;fill-opacity:1;fill-rule:evenodd;stroke:none" d="m 410.78773,-68.488282 c -0.35596,-0.0459 -1.15137,-0.16455 -1.54834,-0.2124 -2.12305,-0.26075 -5.15869,-0.80323 -5.15869,-4.1792 0,-1.53565 0.79443,-3.30713 3.11621,-3.30713 1.70606,0 2.95606,1.01562 3.73047,1.65283 0.59473,-1.39355 1.62646,-1.65283 2.38135,-1.65283 0.37597,0 1.07226,0.02392 2.0039,0.44873 l 0,1.41748 c -0.45605,-0.28418 -0.7539,-0.30713 -0.89257,-0.30713 -0.63477,0 -0.75489,0.77881 -0.75489,2.00635 l 0,5.14941 c 0,1.93604 -0.13818,4.43994 -4.18603,4.43994 -1.68701,0 -4.68457,-0.42578 -4.68457,-3.18896 0,-1.22705 0.81396,-1.58203 1.31054,-1.58203 1.31006,0 1.34864,1.39355 1.36963,1.88916 0.0195,0.80273 0.0391,1.70019 1.52735,1.70019 1.76709,0 1.78564,-1.46386 1.78564,-3.2583 l 0,-1.01611 0,0 m 0,-4.77051 c -0.51514,-0.4956 -1.44824,-1.29932 -2.24072,-1.29932 -0.87451,0 -1.39014,0.63916 -1.39014,1.79493 0,1.86523 1.03223,2.55029 3.35401,3.02295 0.0395,0.02294 0.23779,0.0708 0.27685,0.0708 l 0,-3.58936 0,0 z" inkscape:connector-curvature="0"/><path id="path3202" style="fill:#008240;fill-opacity:1;fill-rule:nonzero;stroke:none" d="m 419.55726,-75.690432 -0.13867,-0.354 c -0.37695,-0.96924 -0.99219,-2.7168 -1.92529,-2.7168 -0.23731,0 -0.3374,0.2832 -0.3374,0.30713 l 0.0396,0.75586 c 0,0.02295 -0.0791,0.42529 -0.19776,0.68457 -0.1792,0.35498 -0.57617,0.63818 -1.03222,0.63818 -0.81299,0 -1.32862,-0.82666 -1.32862,-1.65381 0,-0.44873 0.2168,-2.00683 2.22119,-2.00683 2.20362,0 2.95752,2.10058 3.90918,4.79394 l 0.31885,0.89649 3.17383,8.62011 c 0.45703,1.25147 0.95361,1.27637 1.58789,1.29932 l 0,1.18066 -4.0874,0 0,-1.18066 c 0.69482,0 1.46728,0 1.46728,-0.80371 0,-0.1167 -0.0186,-0.30615 -0.0991,-0.49561 l -2.04248,-5.87988 -2.28271,5.87988 c -0.13868,0.35401 -0.19922,0.52051 -0.19922,0.70899 0,0.59033 0.65527,0.59033 0.95312,0.59033 l 0.49561,0 0,1.18066 -5.9126,0 0,-1.18066 c 0.45508,0 1.01221,-0.02295 1.44824,-1.13379 l 3.96875,-10.13037 0,0 z" inkscape:connector-curvature="0"/><path id="path3204" style="fill:#008240;fill-opacity:1;fill-rule:nonzero;stroke:none" d="m 354.05726,-74.288572 c -0.69433,-0.54297 -1.38916,-0.77832 -2.22217,-0.77832 -4.22656,0 -4.40576,5.73828 -4.40576,8.00585 0,3.33057 0.71534,7.74561 4.28711,7.74561 2.04346,0 3.69043,-1.79395 4.16748,-5.05371 l 1.19043,0 -0.37695,5.07764 c -1.5874,0.85058 -3.29492,1.25244 -5.04004,1.25244 -6.31152,0 -7.99853,-5.87989 -7.99853,-9.42383 0,-2.1958 0.61621,-4.74609 2.22265,-6.63623 1.44824,-1.70068 3.5127,-2.24219 5.53711,-2.24219 1.60791,0 3.92871,0.33008 5.97315,2.05274 l 0,3.59033 c 0,1.58301 0.0596,1.67773 1.11084,1.67773 l 0.77392,0 0,1.41602 -7.46045,0 0,-1.41602 1.21045,0 c 0.97168,0 1.03076,-0.09472 1.03076,-1.67773 l 0,-3.59033 0,0 z" inkscape:connector-curvature="0"/><path id="path3206" style="fill:#008240;fill-opacity:1;fill-rule:evenodd;stroke:none" d="m 365.78578,-68.431152 c -0.3584,-0.04785 -1.15186,-0.16455 -1.54834,-0.21143 -2.12305,-0.26123 -5.15967,-0.80371 -5.15967,-4.17969 0,-1.53711 0.79346,-3.30664 3.11572,-3.30664 1.70557,0 2.95703,1.01514 3.73047,1.65186 0.59522,-1.39258 1.62696,-1.65186 2.38086,-1.65186 0.37695,0 1.07373,0.02295 2.00586,0.44776 l 0,1.4165 c -0.45654,-0.28223 -0.75391,-0.30713 -0.89453,-0.30713 -0.6333,0 -0.75293,0.77881 -0.75293,2.00879 l 0,5.14795 c 0,1.93604 -0.13965,4.43945 -4.18799,4.43945 -1.68652,0 -4.6831,-0.4248 -4.6831,-3.18847 0,-1.22803 0.81298,-1.58203 1.31005,-1.58203 1.31055,0 1.34961,1.39306 1.37012,1.88818 0.019,0.80371 0.0386,1.70117 1.52783,1.70117 1.76514,0 1.78565,-1.46387 1.78565,-3.2583 l 0,-1.01611 0,0 m 0,-4.77051 c -0.51611,-0.49561 -1.44922,-1.29932 -2.24219,-1.29932 -0.87451,0 -1.39014,0.63916 -1.39014,1.7959 0,1.86524 1.03321,2.55078 3.35547,3.02246 0.0381,0.02393 0.23731,0.0708 0.27686,0.0708 l 0,-3.58984 0,0 z" inkscape:connector-curvature="0"/><path id="path3208" style="fill:#008240;fill-opacity:1;fill-rule:nonzero;stroke:none" d="m 373.85902,-64.888672 2.85791,0 0,1.3706 -2.85791,0 0,4.8169 -0.99121,0 c -0.10059,-1.13281 -0.49658,-4.8877 -3.65186,-5.05322 l 0,-1.13428 1.76612,0 0,-7.17871 c 0,-2.14942 0.3374,-4.06153 2.62011,-4.06153 1.42774,0 2.85743,0.92041 3.3335,1.41553 l 0,1.20557 c -0.49658,-0.35401 -1.34863,-0.85157 -2.02441,-0.85157 -1.05225,0 -1.05225,1.15772 -1.05225,2.292 l 0,7.17871 0,0 z" inkscape:connector-curvature="0"/></g></g></svg>