<?xml version="1.0" encoding="UTF-8" standalone="no"?>
<svg
   xmlns:dc="http://purl.org/dc/elements/1.1/"
   xmlns:cc="http://creativecommons.org/ns#"
   xmlns:rdf="http://www.w3.org/1999/02/22-rdf-syntax-ns#"
   xmlns:svg="http://www.w3.org/2000/svg"
   xmlns="http://www.w3.org/2000/svg"
   xmlns:xlink="http://www.w3.org/1999/xlink"
   height="144.746499386"
   width="690.862994438"
   version="1.1"
   viewBox="0 0 916.40002 192"
   id="Layer_1">
  <metadata
     id="metadata97">
    <rdf:RDF>
      <cc:Work
         rdf:about="">
        <dc:format>image/svg+xml</dc:format>
        <dc:type
           rdf:resource="http://purl.org/dc/dcmitype/StillImage" />
        <dc:title></dc:title>
      </cc:Work>
    </rdf:RDF>
  </metadata>
  <style
     id="style3">.st0{clip-path:url(#SVGID_2_);fill:none;} .st1{clip-path:url(#SVGID_4_);} .st2{fill:none;} .st3{opacity:0.5;} .st4{clip-path:url(#SVGID_6_);} .st5{opacity:0.54;enable-background:new ;} .st6{clip-path:url(#SVGID_8_);} .st7{fill:#4285F4;} .st8{opacity:0.2;fill:#1A237E;enable-background:new ;} .st9{opacity:0.2;fill:#FFFFFF;enable-background:new ;} .st10{fill:#FFFFFF;} .st11{clip-path:url(#SVGID_10_);fill:#F5F5F5;} .st12{clip-path:url(#SVGID_10_);fill:#1A237E;} .st13{clip-path:url(#SVGID_10_);fill:#E1E1E1;} .st14{clip-path:url(#SVGID_10_);} .st15{fill:url(#SVGID_11_);} .st16{fill:#F5F5F5;} .st17{fill:#E1E1E1;}</style>
  <defs
     id="defs5">
    <path
       d="m 353,75 872,0 0,192 -872,0 z"
       id="SVGID_1_" />
  </defs>
  <clipPath
     id="SVGID_2_">
    <use
       height="100%"
       width="100%"
       y="0"
       x="0"
       style="overflow:visible"
       id="use9"
       overflow="visible"
       xlink:href="#SVGID_1_" />
  </clipPath>
  <path
     transform="translate(-113,-75)"
     style="fill:none"
     clip-path="url(#SVGID_2_)"
     d="m 353,116 872,0 0,136 -872,0 0,-136 z"
     class="st0"
     id="XMLID_60_" />
  <defs
     id="defs12">
    <path
       d="m 353,75 872,0 0,192 -872,0 z"
       id="SVGID_3_" />
  </defs>
  <clipPath
     id="SVGID_4_">
    <use
       height="100%"
       width="100%"
       y="0"
       x="0"
       style="overflow:visible"
       id="use16"
       overflow="visible"
       xlink:href="#SVGID_3_" />
  </clipPath>
  <g
     transform="translate(-113,-75)"
     id="g3427">
    <path
       style="opacity:0.5"
       id="path20"
       d="m 801.2,219 0,-91.6 28,0 c 14.1,0 25.3,4.2 33.8,12.7 8.4,8.5 12.7,19.5 12.7,33.1 0,13.6 -4.2,24.6 -12.7,33.1 -8.4,8.5 -19.7,12.7 -33.8,12.7 l -28,0 z m 11.8,-11.3 16.3,0 c 10.6,0 19,-3 25.2,-9.1 6.2,-6.1 9.3,-14.5 9.3,-25.5 0,-10.8 -3.1,-19.3 -9.3,-25.4 -6.2,-6.1 -14.6,-9.2 -25.2,-9.2 l -16.3,0 0,69.2 z m 129.7,11.3 -11.3,0 0,-8.7 -0.5,0 c -1.8,3 -4.5,5.5 -8.2,7.6 -3.7,2.1 -7.6,3.1 -11.6,3.1 -7.9,0 -13.8,-2.4 -17.9,-7.2 -4.1,-4.8 -6.1,-11.2 -6.1,-19.2 l 0,-38.4 11.8,0 0,36.5 c 0,11.7 5.2,17.5 15.5,17.5 4.9,0 8.8,-2 11.9,-5.9 3.1,-3.9 4.6,-8.4 4.6,-13.6 l 0,-34.6 11.8,0 0,62.9 z m 19.2,-55.2 c 6.1,-6.4 13.8,-9.5 23.2,-9.5 9.4,0 17.1,3.2 23.2,9.5 6.1,6.4 9.1,14.3 9.1,23.9 0,9.6 -3,17.5 -9.1,23.9 -6.1,6.4 -13.8,9.5 -23.2,9.5 -9.4,0 -17.1,-3.2 -23.2,-9.5 -6.1,-6.4 -9.1,-14.3 -9.1,-23.9 0,-9.6 3,-17.6 9.1,-23.9 z m 8.7,40.3 c 4.1,4.1 8.9,6.2 14.4,6.2 5.5,0 10.3,-2.1 14.4,-6.2 4.1,-4.1 6.1,-9.6 6.1,-16.4 0,-6.8 -2,-12.3 -6.1,-16.4 -4.1,-4.1 -8.9,-6.2 -14.4,-6.2 -5.5,0 -10.3,2.1 -14.4,6.2 -4.1,4.1 -6.1,9.6 -6.1,16.4 0,6.8 2.1,12.3 6.1,16.4 z"
       class="st3" />
    <g
       id="g22">
      <defs
         id="defs24">
        <path
           id="SVGID_5_"
           d="m 353,75 872,0 0,192 -872,0 z" />
      </defs>
      <clipPath
         id="SVGID_6_">
        <use
           height="100%"
           width="100%"
           y="0"
           x="0"
           style="overflow:visible"
           xlink:href="#SVGID_5_"
           overflow="visible"
           id="use28" />
      </clipPath>
      <g
         id="XMLID_21_"
         class="st4"
         clip-path="url(#SVGID_6_)">
        <path
           style="opacity:0.5"
           id="XMLID_71_"
           class="st3"
           d="m 353.7,168.6 c 0,-28.9 24.3,-52.5 53.3,-52.5 16,0 27.4,6.3 36,14.5 l -10.1,10.1 c -6.1,-5.8 -14.5,-10.2 -25.9,-10.2 -21.1,0 -37.6,17 -37.6,38.1 0,21.1 16.5,38.1 37.6,38.1 13.7,0 21.5,-5.5 26.5,-10.5 4.1,-4.1 6.8,-10 7.8,-18 l -34.3,0 0,-14.3 48.3,0 c 0.5,2.6 0.8,5.6 0.8,9 0,10.8 -2.9,24.1 -12.4,33.5 -9.2,9.6 -21,14.7 -36.6,14.7 C 378,221 353.7,197.5 353.7,168.6 Z" />
        <path
           style="opacity:0.5"
           id="XMLID_68_"
           class="st3"
           d="m 495,153.5 c -18.7,0 -33.9,14.2 -33.9,33.8 0,19.5 15.2,33.8 33.9,33.8 18.7,0 33.9,-14.3 33.9,-33.8 0,-19.6 -15.2,-33.8 -33.9,-33.8 z m 0,54.2 c -10.2,0 -19.1,-8.4 -19.1,-20.5 0,-12.2 8.8,-20.5 19.1,-20.5 10.2,0 19.1,8.3 19.1,20.5 0,12.1 -8.9,20.5 -19.1,20.5 z" />
        <path
           style="opacity:0.5"
           id="XMLID_65_"
           class="st3"
           d="m 569,153.5 c -18.7,0 -33.9,14.2 -33.9,33.8 0,19.5 15.2,33.8 33.9,33.8 18.7,0 33.9,-14.3 33.9,-33.8 0,-19.6 -15.2,-33.8 -33.9,-33.8 z m 0,54.2 c -10.2,0 -19.1,-8.4 -19.1,-20.5 0,-12.2 8.8,-20.5 19.1,-20.5 10.3,0 19.1,8.3 19.1,20.5 0,12.1 -8.9,20.5 -19.1,20.5 z" />
        <path
           style="opacity:0.5"
           id="XMLID_62_"
           class="st3"
           d="m 659.8,155.5 0,5.5 -0.5,0 c -3.3,-4 -9.7,-7.6 -17.8,-7.6 -16.9,0 -32.4,14.8 -32.4,33.9 0,18.9 15.5,33.7 32.4,33.7 8.1,0 14.5,-3.6 17.8,-7.7 l 0.5,0 0,4.9 c 0,12.9 -6.9,19.8 -18,19.8 -9.1,0 -14.7,-6.5 -17,-12 l -12.9,5.4 c 3.7,9 13.6,20 30,20 17.4,0 32.1,-10.2 32.1,-35.2 l 0,-60.7 -14.2,0 z m -17,52.2 c -10.2,0 -18.8,-8.6 -18.8,-20.4 0,-11.9 8.6,-20.6 18.8,-20.6 10.1,0 18,8.7 18,20.6 0.1,11.9 -7.9,20.4 -18,20.4 z" />
        <path
           style="opacity:0.5"
           id="XMLID_57_"
           class="st3"
           d="m 684.2,119.7 14.8,0 0,99.3 -14.8,0 0,-99.3 z" />
        <path
           style="opacity:0.5"
           id="XMLID_53_"
           class="st3"
           d="m 739.7,207.7 c -7.6,0 -12.9,-3.5 -16.4,-10.2 L 768.5,178.8 767,175 c -2.8,-7.6 -11.4,-21.5 -28.9,-21.5 -17.4,0 -31.9,13.7 -31.9,33.8 0,18.9 14.3,33.8 33.5,33.8 15.5,0 24.4,-9.5 28.2,-15 l -11.5,-7.7 c -3.9,5.6 -9.1,9.3 -16.7,9.3 z m -1.1,-41.2 c 5.9,0 10.9,2.9 12.5,7.2 l -30.2,12.5 c -0.4,-13 10.1,-19.7 17.7,-19.7 z" />
        <path
           style="fill:none"
           id="XMLID_52_"
           class="st2"
           d="m 353,116 416,0 0,136 -416,0 0,-136 z" />
      </g>
    </g>
    <g
       id="g38">
      <g
         style="opacity:0.54000005;enable-background:new"
         class="st5"
         id="g40">
        <defs
           id="defs42">
          <path
             style="opacity:0.54000005;enable-background:new"
             id="SVGID_7_"
             class="st5"
             d="m 353,75 872,0 0,192 -872,0 z" />
        </defs>
        <clipPath
           id="SVGID_8_">
          <use
             height="100%"
             width="100%"
             y="0"
             x="0"
             style="overflow:visible"
             xlink:href="#SVGID_7_"
             overflow="visible"
             id="use46" />
        </clipPath>
        <g
           class="st6"
           id="g48"
           clip-path="url(#SVGID_8_)">
          <path
             style="fill:#4285f4"
             id="XMLID_50_"
             class="st7"
             d="m 285,108 c 0,-6.6 -5.4,-12 -12,-12 l -69,0 c -50.2,0 -89.7,45.7 -79.3,97.7 6.4,32 31.9,56.9 64,62.8 50,9.2 93.8,-27.5 96.2,-75.5 l 0.1,0 0,-73 z" />
          <path
             style="opacity:0.2;fill:#1a237e;enable-background:new"
             class="st8"
             d="m 188.7,255.5 c -32.1,-5.9 -57.6,-30.8 -64,-62.8 -1.1,-5.5 -1.6,-10.9 -1.7,-16.2 0,5.6 0.5,11.4 1.7,17.3 6.4,32 31.9,56.9 64,62.8 50,9.2 93.8,-27.4 96.2,-75.4 l 0.1,0 0,-1 -0.1,0 c -2.5,47.8 -46.2,84.4 -96.2,75.3 z"
             id="path51" />
          <path
             style="opacity:0.2;fill:#ffffff;enable-background:new"
             class="st9"
             d="m 273,96 -69,0 c -44.9,0 -81.2,36.5 -81,81.4 C 123.3,133 159.4,97 204,97 l 69,0 c 6.6,0 12,5.4 12,12 l 0,-1 c 0,-6.6 -5.4,-12 -12,-12 z"
             id="path53" />
          <path
             style="fill:#ffffff"
             class="st10"
             d="m 177.9,146 44.2,0 c 4.9,0 8.9,4 8.9,8.9 l 0,-1 c 0,-4.9 -4,-8.9 -8.9,-8.9 l -44.2,0 c -4.9,0 -8.9,4 -8.9,8.9 l 0,1 c 0,-4.9 4,-8.9 8.9,-8.9 z m 53.1,19 0,1 18,-18 0,-1 -18,18 z"
             id="path55" />
          <path
             style="opacity:0.2;fill:#1a237e;enable-background:new"
             class="st8"
             d="m 222.1,200 -44.2,0 c -4.9,0 -8.9,-4 -8.9,-8.9 l 0,1 c 0,4.9 4,8.9 8.9,8.9 l 44.2,0 c 4.9,0 8.9,-4 8.9,-8.9 l 0,-1 c 0,4.9 -4,8.9 -8.9,8.9 z m 8.9,-19 18,18 0,-1 -18,-18 0,1 z"
             id="path57" />
          <defs
             id="defs59">
            <path
               id="SVGID_9_"
               d="M 284.6,184.8 249,148 l 0,50 -18,-18 0,11.1 c 0,4.9 -4,8.9 -8.9,8.9 l -44.2,0 c -2.1,0 -4,-0.7 -5.6,-2 l 56.2,56.2 c 30.4,-9.6 53,-36.7 56.1,-69.4 z" />
          </defs>
          <clipPath
             id="SVGID_10_">
            <use
               height="100%"
               width="100%"
               y="0"
               x="0"
               style="overflow:visible"
               xlink:href="#SVGID_9_"
               overflow="visible"
               id="use63" />
          </clipPath>
          <path
             style="fill:#f5f5f5"
             class="st11"
             d="m 249,198 -18,-18 0,11.1 c 0,4.9 -4,8.9 -8.9,8.9 l -44.2,0 c -4.9,0 -8.9,-4 -8.9,-8.9 l 0,-18.1 80,0 0,25 z"
             id="path65"
             clip-path="url(#SVGID_10_)" />
          <path
             style="fill:#1a237e"
             class="st12"
             d="m 251.8,148 0.4,0.4 -66.1,66.2 -13.8,-13.8 0,-52.8 79.5,0 z m 0.4,0.4 32.4,32.4 0,57.9 -15.5,15.5 -43.4,0 -39.6,-39.6 66.1,-66.2 z m 16.9,105.8 15.5,-15.5 0,15.5 -15.5,0 z"
             id="path67"
             clip-path="url(#SVGID_10_)" />
          <path
             style="fill:#e1e1e1"
             class="st13"
             d="m 249,148 -18,18 0,-11.1 c 0,-4.9 -4,-8.9 -8.9,-8.9 l -44.2,0 c -4.9,0 -8.9,4 -8.9,8.9 l 0,18.1 80,0 0,-25 z"
             id="path69"
             clip-path="url(#SVGID_10_)" />
          <path
             style="fill:none"
             class="st14 st2"
             d="m 113,76 192,0 0,192 -192,0 0,-192 z"
             id="path71"
             clip-path="url(#SVGID_10_)" />
        </g>
      </g>
      <path
         style="fill:#4285f4"
         id="XMLID_12_"
         class="st7"
         d="m 285,107 c 0,-6.6 -5.4,-12 -12,-12 l -69,0 c -50.2,0 -89.7,45.7 -79.3,97.7 6.4,32 31.9,56.9 64,62.8 50,9.2 93.8,-27.5 96.2,-75.5 l 0.1,0 0,-73 z" />
      <path
         style="opacity:0.2;fill:#1a237e;enable-background:new"
         class="st8"
         d="m 188.7,254.5 c -32.1,-5.9 -57.6,-30.8 -64,-62.8 -1.1,-5.5 -1.6,-10.9 -1.7,-16.2 0,5.6 0.5,11.4 1.7,17.3 6.4,32 31.9,56.9 64,62.8 50,9.2 93.8,-27.4 96.2,-75.4 l 0.1,0 0,-1 -0.1,0 c -2.5,47.8 -46.2,84.4 -96.2,75.3 z"
         id="path74" />
      <path
         style="opacity:0.2;fill:#ffffff;enable-background:new"
         class="st9"
         d="m 273,95 -69,0 c -44.9,0 -81.2,36.5 -81,81.4 C 123.3,132 159.4,96 204,96 l 69,0 c 6.6,0 12,5.4 12,12 l 0,-1 c 0,-6.6 -5.4,-12 -12,-12 z"
         id="path76" />
      <path
         style="fill:#ffffff"
         class="st10"
         d="m 177.9,145 44.2,0 c 4.9,0 8.9,4 8.9,8.9 l 0,-1 c 0,-4.9 -4,-8.9 -8.9,-8.9 l -44.2,0 c -4.9,0 -8.9,4 -8.9,8.9 l 0,1 c 0,-4.9 4,-8.9 8.9,-8.9 z m 53.1,19 0,1 18,-18 0,-1 -18,18 z"
         id="path78" />
      <path
         style="opacity:0.2;fill:#1a237e;enable-background:new"
         class="st8"
         d="m 222.1,199 -44.2,0 c -4.9,0 -8.9,-4 -8.9,-8.9 l 0,1 c 0,4.9 4,8.9 8.9,8.9 l 44.2,0 c 4.9,0 8.9,-4 8.9,-8.9 l 0,-1 c 0,4.9 -4,8.9 -8.9,8.9 z m 8.9,-19 18,18 0,-1 -18,-18 0,1 z"
         id="path80" />
      <linearGradient
         id="SVGID_11_"
         gradientUnits="userSpaceOnUse"
         x1="219.149"
         y1="344.49899"
         x2="280.47198"
         y2="405.82199"
         gradientTransform="translate(0,-164)">
        <stop
           offset="0"
           stop-color="#1A237E"
           stop-opacity=".2"
           id="stop83" />
        <stop
           offset="1"
           stop-color="#1A237E"
           stop-opacity=".02"
           id="stop85" />
      </linearGradient>
      <path
         style="fill:url(#SVGID_11_)"
         class="st15"
         d="M 284.6,183.8 249,147 l 0,50 -18,-18 0,11.1 c 0,4.9 -4,8.9 -8.9,8.9 l -44.2,0 c -2.1,0 -4,-0.7 -5.6,-2 l 56.2,56.2 c 30.4,-9.6 53,-36.7 56.1,-69.4 z"
         id="path87" />
      <path
         style="fill:#f5f5f5"
         class="st16"
         d="m 249,197 -18,-18 0,11.1 c 0,4.9 -4,8.9 -8.9,8.9 l -44.2,0 c -4.9,0 -8.9,-4 -8.9,-8.9 l 0,-22.5 80,0 0,29.4 z"
         id="path89" />
      <path
         style="fill:#e1e1e1"
         class="st17"
         d="m 249,147 -18,18 0,-11.1 c 0,-4.9 -4,-8.9 -8.9,-8.9 l -44.2,0 c -4.9,0 -8.9,4 -8.9,8.9 l 0,18.1 80,0 0,-25 z"
         id="path91" />
      <path
         style="fill:none"
         class="st2"
         d="m 113,75 192,0 0,192 -192,0 0,-192 z"
         id="path93" />
    </g>
  </g>
</svg>
