<?xml version="1.0" encoding="UTF-8"?>
<svg width="50px" height="21px" viewBox="0 0 50 21" version="1.1" xmlns="http://www.w3.org/2000/svg" xmlns:xlink="http://www.w3.org/1999/xlink">
    <!-- Generator: Sketch 51.3 (57544) - http://www.bohemiancoding.com/sketch -->
    <title>Group</title>
    <desc>Created with Sketch.</desc>
    <defs/>
    <g id="Desktop" stroke="none" stroke-width="1" fill="none" fill-rule="evenodd">
        <g id="Icons-Copy-4" transform="translate(-352.000000, -869.000000)" fill="#000000" fill-rule="nonzero">
            <g id="Group" transform="translate(352.000000, 869.000000)">
                <polygon id="Rectangle-path" points="0 18.8079844 9.72222222 18.8079844 9.72222222 20.2153846 0 20.2153846"/>
                <polygon id="Rectangle-path" points="0 16.1211295 9.72222222 16.1211295 9.72222222 17.5285297 0 17.5285297"/>
                <polygon id="Rectangle-path" points="2.77777778 13.4342746 6.94444444 13.4342746 6.94444444 14.8416748 2.77777778 14.8416748"/>
                <polygon id="Rectangle-path" points="2.77777778 10.7474197 6.94444444 10.7474197 6.94444444 12.1548199 2.77777778 12.1548199"/>
                <polygon id="Rectangle-path" points="2.77777778 8.06056475 6.94444444 8.06056475 6.94444444 9.46796495 2.77777778 9.46796495"/>
                <polygon id="Rectangle-path" points="2.77777778 5.37370983 6.94444444 5.37370983 6.94444444 6.78111003 2.77777778 6.78111003"/>
                <rect id="Rectangle-path" x="0" y="2.68685492" width="9.72222222" height="1.40740019"/>
                <rect id="Rectangle-path" x="0" y="0" width="9.72222222" height="1.40740019"/>
                <path d="M11.1111111,17.5285297 L26.0606061,17.5285297 C26.3131313,17.0935151 26.5025253,16.6201168 26.6161616,16.1211295 L11.1111111,16.1211295 L11.1111111,17.5285297 Z" id="Shape"/>
                <path d="M24.8989899,10.7474197 L13.8888889,10.7474197 L13.8888889,12.1548199 L26.0606061,12.1548199 C25.7449495,11.6174489 25.3535354,11.1440506 24.8989899,10.7474197 Z" id="Shape"/>
                <path d="M13.8888889,8.06056475 L13.8888889,9.46796495 L24.8989899,9.46796495 C25.3661616,9.07133398 25.7575758,8.59793574 26.0606061,8.06056475 L13.8888889,8.06056475 Z" id="Shape"/>
                <path d="M26.0606061,2.68685492 L11.1111111,2.68685492 L11.1111111,4.09425511 L26.6161616,4.09425511 C26.489899,3.59526777 26.3005051,3.12186952 26.0606061,2.68685492 Z" id="Shape"/>
                <path d="M21.4646465,0 L11.1111111,0 L11.1111111,1.40740019 L25.0378788,1.40740019 C24.1035354,0.537370983 22.8409091,0 21.4646465,0 Z" id="Shape"/>
                <rect id="Rectangle-path" x="13.8888889" y="5.37370983" width="4.16666667" height="1.40740019"/>
                <path d="M22.2222222,6.78111003 L26.5782828,6.78111003 C26.7045455,6.33330088 26.7676768,5.85990263 26.7676768,5.37370983 L22.2222222,5.37370983 L22.2222222,6.78111003 Z" id="Shape"/>
                <polygon id="Rectangle-path" points="13.8888889 13.4342746 18.0555556 13.4342746 18.0555556 14.8416748 13.8888889 14.8416748"/>
                <path d="M22.2222222,13.4342746 L22.2222222,14.8416748 L26.7676768,14.8416748 C26.7676768,14.355482 26.7045455,13.8820837 26.5782828,13.4342746 L22.2222222,13.4342746 Z" id="Shape"/>
                <path d="M11.1111111,20.2025901 L21.4646465,20.2153846 C22.8535354,20.2153846 24.1035354,19.6780136 25.0378788,18.8079844 L11.1111111,18.8079844 L11.1111111,20.2025901 Z" id="Shape"/>
                <polygon id="Rectangle-path" points="27.7777778 18.8079844 34.7222222 18.8079844 34.7222222 20.2153846 27.7777778 20.2153846"/>
                <polygon id="Rectangle-path" points="27.7777778 16.1211295 34.7222222 16.1211295 34.7222222 17.5285297 27.7777778 17.5285297"/>
                <polygon id="Rectangle-path" points="30.5555556 13.4342746 34.7222222 13.4342746 34.7222222 14.8416748 30.5555556 14.8416748"/>
                <polygon id="Rectangle-path" points="30.5555556 10.7474197 34.7222222 10.7474197 34.7222222 12.1548199 30.5555556 12.1548199"/>
                <polygon id="Shape" points="36.6540404 2.68685492 27.7777778 2.68685492 27.7777778 4.09425511 37.1338384 4.09425511"/>
                <polygon id="Shape" points="35.7323232 0 27.7777778 0 27.7777778 1.40740019 36.2121212 1.40740019"/>
                <polygon id="Rectangle-path" points="43.0555556 18.8079844 50 18.8079844 50 20.2153846 43.0555556 20.2153846"/>
                <polygon id="Rectangle-path" points="43.0555556 16.1211295 50 16.1211295 50 17.5285297 43.0555556 17.5285297"/>
                <polygon id="Rectangle-path" points="43.0555556 13.4342746 47.2222222 13.4342746 47.2222222 14.8416748 43.0555556 14.8416748"/>
                <polygon id="Rectangle-path" points="43.0555556 10.7474197 47.2222222 10.7474197 47.2222222 12.1548199 43.0555556 12.1548199"/>
                <polygon id="Shape" points="43.0555556 9.46796495 47.2222222 9.46796495 47.2222222 8.06056475 43.0555556 8.06056475 43.0555556 8.06056475 39.280303 8.06056475 38.8888889 9.19927945 38.4974747 8.06056475 34.7222222 8.06056475 34.7222222 8.06056475 30.5555556 8.06056475 30.5555556 9.46796495 34.7222222 9.46796495 34.7222222 8.17571568 35.1641414 9.46796495 42.6136364 9.46796495 43.0555556 8.17571568"/>
                <polygon id="Shape" points="47.2222222 5.37370983 40.2020202 5.37370983 39.7222222 6.78111003 47.2222222 6.78111003"/>
                <polygon id="Shape" points="42.0454545 0 41.5656566 1.40740019 50 1.40740019 50 0"/>
                <polygon id="Shape" points="38.8888889 20.2025901 39.3686869 18.8079844 38.4090909 18.8079844"/>
                <polygon id="Shape" points="37.9671717 17.5285297 39.8106061 17.5285297 40.3030303 16.1211295 37.4747475 16.1211295"/>
                <polygon id="Shape" points="37.0328283 14.8416748 40.7449495 14.8416748 41.2373737 13.4342746 36.540404 13.4342746"/>
                <polygon id="Shape" points="36.0984848 12.1548199 41.6792929 12.1548199 42.1590909 10.7474197 35.6186869 10.7474197"/>
                <polygon id="Shape" points="30.5555556 6.78111003 38.0555556 6.78111003 37.5757576 5.37370983 30.5555556 5.37370983"/>
                <polygon id="Shape" points="40.6439394 4.09425511 50 4.09425511 50 2.68685492 41.1237374 2.68685492"/>
            </g>
        </g>
    </g>
</svg>