<?xml version="1.0" encoding="UTF-8" standalone="no"?>
<!-- Created with Inkscape (http://www.inkscape.org/) -->
<svg xmlns:dc="http://purl.org/dc/elements/1.1/" xmlns:cc="http://creativecommons.org/ns#" xmlns:rdf="http://www.w3.org/1999/02/22-rdf-syntax-ns#" xmlns:svg="http://www.w3.org/2000/svg" xmlns="http://www.w3.org/2000/svg" xmlns:sodipodi="http://sodipodi.sourceforge.net/DTD/sodipodi-0.dtd" xmlns:inkscape="http://www.inkscape.org/namespaces/inkscape" width="1000" height="569.13202" id="svg2" version="1.1" inkscape:version="0.92.2 (5c3e80d, 2017-08-06)" sodipodi:docname="Intel_old.svg">
  <defs id="defs4">
    <clipPath id="clipPath3035" clipPathUnits="userSpaceOnUse">
      <path id="path3037" d="m -0.30829,-8.20527 h 5.06393 v 9.7702 h -5.06393 z" inkscape:connector-curvature="0"/>
    </clipPath>
    <clipPath id="clipPath3025" clipPathUnits="userSpaceOnUse">
      <path id="path3027" d="M 0,0 H 593.99994 V 791.99994 H 0 Z" inkscape:connector-curvature="0"/>
    </clipPath>
    <clipPath id="clipPath3017" clipPathUnits="userSpaceOnUse">
      <path id="path3019" d="m 0,650.2679 h 141.732 v 141.732 H 0 Z" inkscape:connector-curvature="0"/>
    </clipPath>
    <clipPath id="clipPath3150" clipPathUnits="userSpaceOnUse">
      <path id="path3152" d="m -0.38789,-0.47304 h 5.87003 v 9.9 h -5.87003 z" inkscape:connector-curvature="0"/>
    </clipPath>
    <clipPath id="clipPath3140" clipPathUnits="userSpaceOnUse">
      <path id="path3142" d="M 0,0 H 593.99994 V 791.99994 H 0 Z" inkscape:connector-curvature="0"/>
    </clipPath>
    <clipPath id="clipPath3132" clipPathUnits="userSpaceOnUse">
      <path id="path3134" d="M 1,0 H 118.842 V 119.5499 H 1 Z" inkscape:connector-curvature="0"/>
    </clipPath>
    <clipPath id="clipPath3439" clipPathUnits="userSpaceOnUse">
      <path id="path3441" d="m 50.441,691.8 h 99 v -56.76 h -99 z" inkscape:connector-curvature="0" style="clip-rule:evenodd"/>
    </clipPath>
  </defs>
  <sodipodi:namedview id="base" pagecolor="#ffffff" bordercolor="#666666" borderopacity="1.0" inkscape:pageopacity="0.0" inkscape:pageshadow="2" inkscape:zoom="0.70710678" inkscape:cx="469.38956" inkscape:cy="380.70715" inkscape:document-units="px" inkscape:current-layer="g3124" showgrid="false" fit-margin-top="0.2" fit-margin-left="0.2" fit-margin-right="0.2" fit-margin-bottom="0.2" inkscape:window-width="1366" inkscape:window-height="705" inkscape:window-x="-8" inkscape:window-y="-8" inkscape:window-maximized="1"/>
  <metadata id="metadata7">
    <rdf:RDF>
      <cc:Work rdf:about="">
        <dc:format>image/svg+xml</dc:format>
        <dc:type rdf:resource="http://purl.org/dc/dcmitype/StillImage"/>
        <dc:title/>
      </cc:Work>
    </rdf:RDF>
  </metadata>
  <g inkscape:label="Layer 1" inkscape:groupmode="layer" id="layer1" transform="translate(-147.33445,-173.7437)">
    <g transform="matrix(1.25,0,0,-1.25,31.09375,1055.9341)" inkscape:label="14-intel-multicore" id="g3124">
      <g id="g3128" transform="matrix(12.17395,0,0,12.17395,-384.10798,-306.08537)">
        <g clip-path="url(#clipPath3132)" id="g3130">
          <g id="g3136">
            <g clip-path="url(#clipPath3140)" id="g3138">
              <g transform="matrix(101.192,0,0,80,39.251,37.843)" id="g3144">
                <g id="g3146">
                  <g clip-path="url(#clipPath3150)" id="g3148">
                    <path id="path3154" style="fill:#287ac7;fill-opacity:1;fill-rule:nonzero;stroke:none" d="M -6e-4,0.2147 H 0.0505 V 0.4726 H -6e-4 Z" inkscape:connector-curvature="0"/>
                    <path id="path3156" style="fill:#287ac7;fill-opacity:1;fill-rule:nonzero;stroke:none" d="M -6e-4,0.5067 H 0.0505 V 0.5659 H -6e-4 Z" inkscape:connector-curvature="0"/>
                    <path id="path3158" style="fill:#287ac7;fill-opacity:1;fill-rule:nonzero;stroke:none" d="M 0.1398,0.2147 H 0.0882 v 0.258 H 0.1403 V 0.4339 c 0,0 0.0146,0.0449 0.0576,0.0449 0.0452,0 0.0694,-0.0422 0.0705,-0.0817 V 0.2147 H 0.2162 V 0.376 c 0,0.0082 -0.0081,0.0422 -0.0371,0.0415 C 0.15,0.4169 0.1398,0.3876 0.1398,0.3719" inkscape:connector-curvature="0"/>
                    <path id="path3160" style="fill:#287ac7;fill-opacity:1;fill-rule:nonzero;stroke:none" d="m 0.4938,0.3202 c -0.0452,0 -0.0484,-0.0558 -0.0484,-0.0558 h 0.0947 c 0,0 -0.0022,0.0558 -0.0463,0.0558 v 0.0524 c 0.0818,0 0.0993,-0.1061 0.0995,-0.1165 10e-5,-0.0041 0.0042,-0.0044 0.0043,10e-5 V 0.5659 H 0.6488 V 0.2147 H 0.4454 c 0,0 0.0054,-0.0619 0.0484,-0.0619 0.0344,0 0.0414,0.0334 0.0414,0.0334 h 0.0522 c 0,-0.0075 -0.018,-0.0878 -0.0936,-0.0878 -0.0818,0 -0.1033,0.1037 -0.1033,0.1126 h -0.028 c -0.05,7e-4 -0.0511,0.0425 -0.0511,0.0534 V 0.4216 H 0.2781 V 0.4727 H 0.3114 V 0.5659 H 0.3625 V 0.4727 H 0.4007 V 0.4216 H 0.3625 c 0,0 0,-0.1211 0,-0.13 0,-0.0222 0.0154,-0.0272 0.0261,-0.0272 h 0.003 c 5e-4,0.0163 0.0207,0.1082 0.1022,0.1082" inkscape:connector-curvature="0"/>
                  </g>
                </g>
              </g>
            </g>
          </g>
        </g>
      </g>
    </g>
  </g>
</svg>