<?xml version="1.0" encoding="UTF-8" standalone="no"?>
<!-- Creator: CorelDRAW -->
<svg xmlns:dc="http://purl.org/dc/elements/1.1/" xmlns:cc="http://creativecommons.org/ns#" xmlns:rdf="http://www.w3.org/1999/02/22-rdf-syntax-ns#" xmlns:svg="http://www.w3.org/2000/svg" xmlns="http://www.w3.org/2000/svg" xmlns:sodipodi="http://sodipodi.sourceforge.net/DTD/sodipodi-0.dtd" xmlns:inkscape="http://www.inkscape.org/namespaces/inkscape" xml:space="preserve" width="1000" height="732.97302" viewBox="0 0 1280.9422 1157.3142" id="svg3312" sodipodi:version="0.32" inkscape:version="0.92.2 (5c3e80d, 2017-08-06)" sodipodi:docname="Nvidia_old.svg" version="1.0" style="clip-rule:evenodd;fill-rule:evenodd;image-rendering:optimizeQuality;shape-rendering:geometricPrecision;text-rendering:geometricPrecision"><metadata id="metadata3323"><rdf:RDF><cc:Work rdf:about=""><dc:format>image/svg+xml</dc:format><dc:type rdf:resource="http://purl.org/dc/dcmitype/StillImage"/><dc:title/></cc:Work></rdf:RDF></metadata><defs id="defs3321"/><sodipodi:namedview inkscape:window-height="705" inkscape:window-width="1366" inkscape:pageshadow="2" inkscape:pageopacity="0.0" guidetolerance="10.0" gridtolerance="10.0" objecttolerance="10.0" borderopacity="1.0" bordercolor="#666666" pagecolor="#ffffff" id="base" inkscape:zoom="0.50000001" inkscape:cx="473.56404" inkscape:cy="461.66437" inkscape:window-x="-8" inkscape:window-y="-8" inkscape:current-layer="svg3312" showgrid="false" inkscape:window-maximized="1"/><g id="Ebene_x0020_1" transform="matrix(10.097985,0,0,10.097986,-237.69747,-209.45789)"><metadata id="CorelCorpID_0Corel-Layer"/><path d="m 68.7426,20.7425 v 9.08466 c 0.596741,-0.04903 1.19545,-0.08822 1.79612,-0.108456 23.128,-0.77885 38.2031,18.9723 38.2031,18.9723 0,0 -17.3165,21.0479 -35.3466,21.0479 -1.6539,0 -3.19934,-0.152163 -4.65263,-0.408156 v 5.61833 c 1.24378,0.151469 2.53126,0.246166 3.87436,0.246166 16.7817,0 28.918,-8.56816 40.6672,-18.7099 1.95094,1.5592 9.92953,5.35517 11.5676,7.01624 -11.1758,9.35557 -37.2126,16.8902 -51.9749,16.8902 -1.426,0 -2.79119,-0.08556 -4.13417,-0.212172 v 7.89106 h 63.786 v -67.3282 h -63.786 z m 3.35787,19.8915 c -1.16088,0 -2.27342,0.08487 -3.35787,0.197834 v -6.07852 c 0.589572,-0.04579 1.18828,-0.07573 1.79612,-0.09863 16.6302,-0.518463 27.5457,14.2941 27.5457,14.2941 0,0 -11.7858,16.3724 -24.4287,16.3724 -1.81508,0 -3.44609,-0.297734 -4.91314,-0.785441 v -18.4408 c 6.47419,0.780931 7.77809,3.64392 11.6707,10.1299 l 8.6602,-7.30149 c 0,0 -6.32018,-8.28939 -16.9731,-8.28939 l 9e-5,3.5e-5 z" id="path3316" style="fill:#c1d72f;fill-rule:nonzero" inkscape:connector-curvature="0"/><path d="m 157.5976,131.33417 c 0.0802,0.3226 0.24154,0.73006 0.24154,1.01334 0,0.69086 -0.76914,1.016 -1.01068,1.05508 -1.46323,0.2442 -2.27804,0.36573 -2.27804,0.85216 0,0.16118 0.16777,0.44458 0.56876,0.44458 1.58256,0 3.00336,-0.1613 4.50498,-0.1613 1.58464,0 2.96694,0.1613 4.70628,0.1613 0.49025,0 0.81481,-0.0809 0.81481,-0.48644 0,-0.60518 -0.77376,-0.48308 -1.86804,-0.8103 -0.52494,-0.15921 -1.34044,-0.69132 -2.11212,-2.923 l -7.65796,-20.8383 c -0.0392,-0.16129 -0.2442,-0.28339 -0.49106,-0.28339 -0.1613,0 -0.31993,0.0829 -0.40087,0.2442 l -10.2382,22.7846 c -0.20246,0.44654 -0.4055,0.7326 -1.21834,1.01588 -1.01334,0.36572 -2.06587,0.28536 -2.06587,0.8103 0,0.3663 0.16129,0.48643 0.48585,0.48643 1.37952,0 2.9622,-0.1613 4.50302,-0.1613 1.17926,0 2.47588,0.1613 3.57212,0.1613 0.2834,0 0.93298,0 0.93298,-0.48643 0,-0.3219 -0.81088,-0.48308 -2.07038,-0.8103 -0.32514,-0.0783 -1.17452,-0.40342 -1.17452,-1.21626 0,-0.44666 1.79161,-5.3369 2.76575,-7.32438 0.16384,-0.32514 0.81088,-0.48644 3.5727,-0.4447 3.3285,0.0392 3.48713,0.0392 3.81424,1.05253 l 2.1031,5.86438 z m -8.63545,-9.63757 2.71811,-6.53432 c 0.0392,-0.1221 0.1221,-0.20245 0.20038,-0.20245 0.16592,0 0.20512,0.16129 0.24616,0.2442 l 2.14947,6.41233 c 0.1221,0.36618 0.20235,0.56864 0.20235,0.77168 0,0.24154 -2.59798,0.24154 -2.83755,0.24154 -0.3271,0 -2.92508,0 -2.92508,-0.20235 0,-0.24223 0.16326,-0.48643 0.24616,-0.73063 z m -19.3614,10.3258 v -18.6288 c 0,-1.05253 0.0412,-2.27145 1.13995,-2.39355 1.90261,-0.20245 2.63521,-0.0804 2.63521,-0.80833 0,-0.49037 -0.93564,-0.49037 -1.82688,-0.49037 -1.21568,0 -2.02922,0.1613 -3.6504,0.1613 -1.90978,0 -2.55682,-0.1613 -3.81239,-0.1613 -0.49025,0 -1.09821,0 -1.09821,0.57131 0,0.56668 0.32456,0.48574 1.50174,0.72739 1.17463,0.20304 1.62118,0.40539 1.62118,1.70663 v 18.9129 c 0,1.49977 -1.25557,1.70478 -1.98748,1.78305 -1.82873,0.20512 -2.07096,0.16327 -2.07096,0.69086 0,0.48574 0.56668,0.60588 1.50162,0.60588 1.016,0 2.15132,-0.1613 4.13949,-0.1613 2.07038,0 2.92312,0.1613 3.9775,0.1613 0.76914,0 1.50174,-0.0392 1.50174,-0.48644 0,-0.5661 -0.89586,-0.5661 -2.19248,-0.8103 -0.44469,-0.0783 -1.37964,-0.28328 -1.37964,-1.38022 z m -26.3802,2.51565 c 6.97901,0 12.5784,-4.99338 12.5784,-11.0792 0,-9.78003 -6.89611,-14.0017 -15.4206,-14.0017 -2.5959,0 -4.50302,0.2442 -6.49049,0.2442 h -3.69491 c -0.485741,0 -1.58452,0 -1.58452,0.69341 0,0.44458 0.287906,0.44458 1.22088,0.52494 1.05253,0.0803 2.75662,0 2.75662,0.77179 v 19.0714 c 0,2.35644 -0.930434,2.4805 -1.82422,2.63972 -1.21834,0.20512 -1.50174,0.56876 -1.50174,0.89321 0,0.40353 0.527597,0.40353 0.730634,0.40353 0.976106,0 2.47322,-0.1613 3.65306,-0.1613 h 9.576866 z m -7.14216,-5.07443 v -17.4889 c 0,-0.56933 0.08024,-1.29662 3.40886,-1.29662 5.03003,0 12.4973,3.69214 12.4973,12.0116 0,8.23643 -7.54765,10.8761 -10.715,10.8761 -2.63706,0 -5.19122,-1.26008 -5.19122,-4.10226 z m -17.4066,2.55878 v -18.6288 c 0,-1.05253 0.04371,-2.27145 1.13798,-2.39355 1.90723,-0.20245 2.63717,-0.0804 2.63717,-0.80833 0,-0.49037 -0.932978,-0.49037 -1.82618,-0.49037 -1.21637,0 -2.02933,0.1613 -3.65109,0.1613 -1.90457,0 -2.55878,-0.1613 -3.81435,-0.1613 -0.4884,0 -1.09624,0 -1.09624,0.57131 0,0.56668 0.324559,0.48574 1.50174,0.72739 1.17718,0.20304 1.62384,0.40539 1.62384,1.70663 v 18.9129 c 0,1.49977 -1.2602,1.70478 -1.98748,1.78305 -1.82688,0.20512 -2.06911,0.16327 -2.06911,0.69086 0,0.48574 0.566678,0.60588 1.49781,0.60588 1.01519,0 2.15328,-0.1613 4.14134,-0.1613 2.06842,0 2.92046,0.1613 3.97299,0.1613 0.773763,0 1.50428,-0.0392 1.50428,-0.48644 0,-0.5661 -0.891816,-0.5661 -2.19052,-0.8103 -0.447237,-0.0783 -1.38218,-0.28328 -1.38218,-1.38022 z m -18.7536,-19.1152 -5.51647,15.0593 c -0.163841,0.40284 -0.532106,0.4447 -0.732484,0.4447 -0.1221,0 -0.568759,-0.56876 -2.63717,-5.80437 l -4.13949,-10.4271 c -0.03908,-0.1221 -0.08024,-0.2442 -0.08024,-0.36619 0,-0.85273 0.850075,-0.81353 1.66292,-0.81353 0.771797,0 1.62384,-0.0804 1.62384,-0.77111 0,-0.44723 -0.893897,-0.52759 -1.17718,-0.52759 -1.2987,0 -2.63718,0.16129 -3.93645,0.16129 -1.54278,0 -3.08626,-0.16129 -4.6272,-0.16129 -0.2442,0 -1.01322,0.12406 -1.01322,0.49036 0,0.64762 0.688084,0.68878 1.41872,0.80834 0.771797,0.1221 1.62384,0.28328 1.99002,1.01588 l 9.41107,22.7663 c 0.124759,0.24154 0.246859,0.56876 0.571303,0.56876 0.2442,0 0.405497,-0.11956 0.486434,-0.32722 l 8.11641,-19.8844 c 1.38022,-3.36769 1.58256,-3.81424 3.77308,-4.13938 0.283397,-0.0392 0.324559,-0.3219 0.324559,-0.6053 0,-0.36885 -0.243506,-0.6934 -0.607841,-0.6934 -0.405497,0 -2.55427,0.16129 -3.77261,0.16129 -1.54348,0 -2.84472,-0.16129 -4.26147,-0.16129 -0.241541,0 -0.688894,0.12406 -0.688894,0.77376 0,0.24154 0.2442,0.44458 0.566794,0.52494 1.17452,0.32513 3.3285,0.20303 3.3285,1.42392 0,0.16129 -0.04174,0.36375 -0.0829,0.48319 l -2.4e-5,1.4e-4 z m -33.967,16.7824 5.68227,-11.7472 c 0.702537,-1.46705 1.66038,-3.44539 1.66038,-5.04183 0,-2.23422 -1.46705,-3.51061 -3.8946,-3.51061 -5.93561,0 -11.5532,11.5538 -12.7005,13.4036 -0.320512,0.51118 -0.575812,0.89321 -0.765206,0.89321 -0.06394,0 -0.131234,-0.19067 -0.131234,-0.31994 0,-0.69999 3.83332,-8.80785 3.83332,-11.2981 0,-1.72235 -0.447237,-2.6788 -1.97904,-2.6788 -2.48952,0 -6.25554,4.2106 -7.14933,5.48895 -0.382603,0.57593 -1.15174,1.34044 -1.15174,2.04298 0,0.256 0.193209,0.50933 0.513837,0.50933 0.637903,0 3.6393,-4.71935 5.29771,-4.71935 0.573269,0 0.955872,0.31543 0.955872,0.8266 0,0.4447 -0.320628,1.27847 -0.637903,2.1697 l -6.06037,16.2111 c -0.193209,0.51315 -0.640447,1.53365 -0.640447,2.10495 0,0.76914 0.447237,1.15174 1.52972,1.15174 1.02247,0 1.47168,-0.82914 2.10507,-2.23422 1.21637,-2.74552 2.36546,-4.72386 3.70393,-6.89148 7.34068,-11.8739 9.57687,-14.49 11.8712,-14.49 0.895747,0 1.47168,0.69988 1.47168,1.72235 0,0.63849 -0.131234,1.46971 -0.640563,2.55485 l -7.27802,15.5105 c -0.444578,1.02247 -0.889156,2.10495 -0.889156,2.74552 0,0.69988 0.444578,1.08248 1.59366,1.08248 4.33998,0 9.8309,-5.74425 9.8309,-7.08469 0,-0.25599 -0.193903,-0.51187 -0.575812,-0.51187 -0.449203,0 -3.83262,4.15048 -5.42443,4.15048 -0.382603,0 -0.705081,-0.25518 -0.705081,-0.76648 0,-0.31796 0.322478,-0.76717 0.573847,-1.27384 z m 15.2246,-79.959996 c 0,0 9.19762,-13.578 27.5666,-14.9764 v -4.9262 c -20.3454,1.63286 -37.9635,18.8639 -37.9635,18.8639 0,0 9.97774,28.8489 37.9635,31.4886 v -5.23053 c -20.5367,-2.58688 -27.5666,-25.2193 -27.5666,-25.2193 z m 15.9742,1.65124 c 0,0 2.84206,10.2154 11.5924,13.1548 v 4.79497 c -15.5198,-2.76829 -19.8296,-18.9031 -19.8296,-18.9031 0,0 7.45365,-8.25736 19.8296,-9.59583 v 5.26313 c -0.0073,0 -0.01376,-0.002 -0.02093,-0.0045 -6.49974,-0.778272 -11.5715,5.29054 -11.5715,5.29054 l 2.8e-5,-10e-7 z" id="path3318" style="fill:#000000;fill-rule:nonzero" inkscape:connector-curvature="0" sodipodi:nodetypes="cscssssscccscccssssscscccccccsccssscccscssssscsscssssscccsssssscsscssscscsssscccscssssscsscssssscscccsccssssssscccscccssssscscccccsscsssscssssccssccssccssssssccccccccccccccsccccc"/></g></svg>