<?xml version="1.0" encoding="UTF-8" standalone="no"?>
<!-- Generator: Adobe Illustrator 15.0.0, SVG Export Plug-In . SVG Version: 6.00 Build 0)  -->
<svg xmlns:dc="http://purl.org/dc/elements/1.1/" xmlns:cc="http://creativecommons.org/ns#" xmlns:rdf="http://www.w3.org/1999/02/22-rdf-syntax-ns#" xmlns:svg="http://www.w3.org/2000/svg" xmlns="http://www.w3.org/2000/svg" xmlns:xlink="http://www.w3.org/1999/xlink" xmlns:sodipodi="http://sodipodi.sourceforge.net/DTD/sodipodi-0.dtd" xmlns:inkscape="http://www.inkscape.org/namespaces/inkscape" version="1.1" x="0px" y="0px" width="482.289px" height="88.855px" viewBox="0 0 482.289 88.855" enable-background="new 0 0 482.289 88.855" xml:space="preserve" id="svg2" inkscape:version="0.48.2 r9819" sodipodi:docname="Packard_Bell_2009_logo.svg"><metadata id="metadata159"><rdf:RDF><cc:Work rdf:about=""><dc:format>image/svg+xml</dc:format><dc:type rdf:resource="http://purl.org/dc/dcmitype/StillImage"/></cc:Work></rdf:RDF></metadata><defs id="defs157"/><sodipodi:namedview pagecolor="#ffffff" bordercolor="#666666" borderopacity="1" objecttolerance="10" gridtolerance="10" guidetolerance="10" inkscape:pageopacity="0" inkscape:pageshadow="2" inkscape:window-width="1252" inkscape:window-height="1024" id="namedview155" showgrid="false" inkscape:zoom="1.2108922" inkscape:cx="358.83814" inkscape:cy="-161.00977" inkscape:window-x="662" inkscape:window-y="-8" inkscape:window-maximized="0" inkscape:current-layer="g94"/>
<g id="Background">
</g>
<g id="Guides">
</g>
<g id="Foreground">
</g>
<g id="Primer_plano">
	<g id="g8">
		<g id="g10">
			
				<linearGradient id="SVGID_1_" gradientUnits="userSpaceOnUse" x1="1756.4766" y1="-1555.3477" x2="1756.4766" y2="-1566.2051" gradientTransform="matrix(1 0 0 1 -1692 1584)">
				<stop offset="0" style="stop-color:#780A0B" id="stop13"/>
				<stop offset="1" style="stop-color:#ED1C24" id="stop15"/>
			</linearGradient>
			<path fill="url(#SVGID_1_)" d="M49.394,28.652h-1.176v-3.521c0-0.126,0.008-0.186,0.015-0.247l0.023-0.142l0.003-0.029     l0.022-0.09c0.02-0.068,0.03-0.1,0.042-0.132c0.029-0.089,0.042-0.118,0.055-0.146l0.007-0.015l0.077-0.164l0.074-0.133l0.002,0     l0.036-0.058l0.003-0.007l0.07-0.102l0.001-0.005l0.041-0.057l0.047-0.06l0.02-0.027l0.12-0.145     c0.013-0.021,0.041-0.049,0.068-0.078l0.037-0.043l0.076-0.082l0.055-0.052c0.029-0.031,0.061-0.061,0.095-0.095l0.095-0.086     l0.005-0.001l0.095-0.084l0.111-0.094l0.139-0.112l0.111-0.083c0.055-0.043,0.105-0.08,0.157-0.117l0.157-0.109l0.143-0.1     l0.193-0.124l0.003,0l0.09-0.06l0.223-0.14l0.094-0.054l0.144-0.082l0.1-0.06l0.159-0.091l0.101-0.055l0.098-0.052     c0.179-0.095,0.321-0.169,0.473-0.245c0.027-0.016,0.074-0.041,0.124-0.063l0.109-0.054l0.131-0.063l0.298-0.141     c0.026-0.016,0.059-0.029,0.09-0.043l0.076-0.036c0.25-0.114,0.512-0.229,0.783-0.345l0.032-0.018l0.094-0.033     c0.187-0.084,0.419-0.183,0.661-0.281c0.319-0.131,0.633-0.254,0.936-0.372c0.058-0.024,0.112-0.042,0.17-0.063l0.086-0.033     c0.375-0.145,0.743-0.278,1.106-0.409l0.186-0.068l0.214-0.079l0.229-0.08c0.471-0.155,0.916-0.296,1.35-0.429     c0.433-0.132,0.852-0.251,1.259-0.36l0.198-0.05l0.202-0.048l0.095-0.022c0.363-0.088,0.72-0.169,1.064-0.238l0.079-0.019     c0.051-0.011,0.102-0.022,0.15-0.034c0.168-0.032,0.343-0.063,0.513-0.089c0.678-0.116,1.358-0.184,2.021-0.209h0.342     c0.629,0,1.22,0.033,1.809,0.107c0.7,0.08,1.476,0.217,2.362,0.422c0.885,0.215,1.769,0.47,2.635,0.761     c0.903,0.299,1.857,0.654,2.917,1.085c1.027,0.423,1.94,0.843,2.716,1.249c0.766,0.392,1.445,0.792,2.013,1.189     c0.569,0.405,1.004,0.806,1.298,1.196c0.327,0.436,0.494,0.872,0.494,1.293v3.521h-1.178c0-0.159-0.088-0.359-0.259-0.585     c-0.221-0.293-0.57-0.611-1.033-0.944c-0.521-0.361-1.152-0.733-1.877-1.104c-0.763-0.396-1.641-0.802-2.62-1.204     c-1.052-0.428-1.983-0.775-2.844-1.06c-0.835-0.28-1.687-0.525-2.531-0.729c-0.84-0.195-1.571-0.327-2.228-0.398     c-0.547-0.069-1.09-0.102-1.674-0.102h-0.319c-0.589,0.023-1.222,0.089-1.856,0.196c-0.227,0.038-0.467,0.086-0.704,0.134     c-0.316,0.065-0.646,0.139-0.982,0.223l-0.2,0.045c-0.101,0.023-0.2,0.046-0.304,0.074c-0.39,0.105-0.794,0.221-1.212,0.348     c-0.428,0.129-0.863,0.269-1.313,0.419l-0.313,0.111l-0.241,0.088c-0.376,0.133-0.761,0.275-1.155,0.427     c-0.381,0.144-0.757,0.29-1.153,0.452c-0.227,0.093-0.45,0.188-0.668,0.279l-0.086,0.036c-0.292,0.128-0.524,0.232-0.75,0.334     l-0.192,0.088l-0.255,0.123l-0.071,0.034l-0.11,0.053l-0.178,0.089c-0.162,0.082-0.313,0.159-0.459,0.24l-0.09,0.05l-0.326,0.183     l-0.107,0.063c-0.108,0.064-0.225,0.133-0.334,0.205c-0.13,0.082-0.249,0.161-0.361,0.239c-0.116,0.081-0.218,0.153-0.316,0.226     c-0.102,0.079-0.188,0.148-0.268,0.22c-0.09,0.076-0.165,0.146-0.234,0.216c-0.073,0.074-0.134,0.139-0.187,0.202     c-0.057,0.064-0.102,0.129-0.146,0.191c-0.04,0.061-0.072,0.116-0.104,0.17c-0.023,0.053-0.044,0.103-0.063,0.152     c-0.014,0.046-0.022,0.088-0.026,0.128C49.396,28.573,49.394,28.612,49.394,28.652L49.394,28.652z" id="path17"/>
			
				<linearGradient id="SVGID_2_" gradientUnits="userSpaceOnUse" x1="1739.7607" y1="-1542.0396" x2="1739.7607" y2="-1557.8701" gradientTransform="matrix(1 0 0 1 -1692 1584)">
				<stop offset="0" style="stop-color:#780A0B" id="stop20"/>
				<stop offset="1" style="stop-color:#ED1C24" id="stop22"/>
			</linearGradient>
			<path fill="url(#SVGID_2_)" d="M10.593,41.96h-0.008H10.58c-0.642,0-1.179-0.061-1.686-0.199     c-0.55-0.159-1.027-0.386-1.439-0.671l-2.224-1.556c-0.184-0.128-0.312-0.277-0.383-0.442c-0.054-0.109-0.082-0.226-0.082-0.341     l0.02-4.102l3.345,1.953c0.3,0.211,0.663,0.378,1.081,0.503c0.401,0.108,0.827,0.159,1.368,0.159     c0.213-0.007,0.453-0.029,0.697-0.059c0.069-0.008,0.144-0.02,0.215-0.033c0.244-0.036,0.47-0.074,0.707-0.129     c0.279-0.066,0.567-0.146,0.863-0.241l0.135-0.043c0.282-0.093,0.584-0.202,0.896-0.33l21.726-8.531l0.008-0.001l0.126-0.055     l0.118-0.045l0.009-0.003l0.078-0.027c0.09-0.03,0.124-0.04,0.163-0.052c0.009-0.003,0.066-0.018,0.114-0.03l0.02-0.007     l0.075-0.022l0.112-0.024l0.091-0.021c0.036-0.008,0.072-0.017,0.111-0.022l0.018-0.003l0.071-0.014     c0.15-0.026,0.29-0.044,0.443-0.063l0.172-0.017c0.197-0.017,0.411-0.029,0.647-0.029c1.443,0,3.714,0.43,6.326,2.477     c0.636,0.417,1.422,0.874,2.296,1.335c0.035,0.02,0.279,0.147,0.563,0.298c0.445,0.235,0.99,0.528,1.035,0.553l0.452,0.242     c2.405,1.275,4.89,2.596,7.421,3.271c2.757,0.729,5.583,1.131,8.401,1.187l0.315,0.004l0.314,0.002     c0.572,0,1.17-0.016,1.829-0.053c0.132-0.007,0.261-0.016,0.388-0.029l0.203-0.013c0.418-0.031,0.837-0.065,1.25-0.108     l0.459-0.053l0.219-0.028c0.391-0.049,0.789-0.107,1.183-0.171c0.225-0.034,0.441-0.069,0.659-0.109     c0.57-0.1,1.136-0.209,1.696-0.341c0.276-0.063,0.549-0.138,0.824-0.214l0.113-0.031l0.195-0.054     c0.261-0.078,0.52-0.16,0.78-0.248l0.104-0.035l0.075-0.024c0.323-0.112,0.647-0.232,0.972-0.358     c0.181-0.071,0.356-0.144,0.531-0.216l0.134-0.055l0.163-0.067l0.219-0.092c0.436-0.184,0.865-0.378,1.293-0.576l0.286-0.134     c0.773-0.361,1.537-0.732,2.297-1.101l0.214-0.104c0.29-0.14,0.565-0.277,0.838-0.414c0.348-0.175,0.688-0.352,1.015-0.523     l0.09-0.048l0.004-0.002l0.064-0.034c0.316-0.167,0.617-0.334,0.911-0.5c0.281-0.161,0.554-0.321,0.812-0.478     c0.241-0.147,0.476-0.291,0.699-0.438l0.138-0.088c0.188-0.124,0.364-0.242,0.532-0.355l0.1-0.069     c0.185-0.131,0.365-0.259,0.535-0.389l0.057-0.045c0.176-0.132,0.346-0.267,0.502-0.402c0.167-0.14,0.318-0.273,0.46-0.407     c0.146-0.134,0.269-0.257,0.386-0.382c0.142-0.154,0.244-0.27,0.338-0.385c0.102-0.127,0.186-0.243,0.26-0.356     c0.076-0.115,0.139-0.221,0.196-0.33c0.05-0.104,0.093-0.203,0.127-0.3c0.038-0.107,0.063-0.196,0.08-0.288     c0.015-0.092,0.025-0.174,0.025-0.254l1.179,0.007v3.521c-0.004,0.141-0.009,0.22-0.02,0.297     c-0.011,0.076-0.018,0.126-0.029,0.18c-0.002,0.025-0.012,0.071-0.022,0.113l-0.041,0.158c-0.012,0.038-0.025,0.085-0.042,0.132     L90.6,30.542l-0.037,0.097l-0.042,0.11l-0.029,0.073c-0.031,0.07-0.053,0.112-0.075,0.155l-0.006,0.011l-0.035,0.077     l-0.042,0.076l-0.073,0.125l-0.035,0.058c-0.043,0.071-0.069,0.115-0.1,0.158l-0.081,0.121l-0.065,0.09l-0.058,0.079     c-0.063,0.083-0.095,0.125-0.133,0.168l-0.095,0.116l-0.11,0.128l-0.066,0.072l-0.049,0.056l-0.012,0.011l-0.057,0.059v0.002     l-0.067,0.069c-0.055,0.058-0.108,0.114-0.168,0.17l-0.1,0.098l-0.056,0.052l-0.008,0.007l-0.045,0.041l-0.053,0.05l-0.101,0.091     l-0.167,0.148l-0.008,0.008l-0.057,0.047l-0.064,0.057l-0.003,0.002l-0.086,0.073l-0.114,0.091     c-0.074,0.065-0.161,0.133-0.252,0.201l-0.115,0.091l-0.08,0.06l-0.008,0.006l-0.134,0.104c-0.104,0.076-0.212,0.153-0.321,0.229     l-0.098,0.068l-0.147,0.104l-0.091,0.061l-0.091,0.064c-0.107,0.071-0.215,0.142-0.322,0.21     c-0.071,0.049-0.124,0.084-0.179,0.117c-0.266,0.17-0.484,0.306-0.713,0.445l-0.009,0.005l-0.066,0.043     c-0.241,0.144-0.493,0.292-0.754,0.439c-0.318,0.181-0.636,0.355-0.963,0.533l-0.098,0.049c-0.332,0.177-0.716,0.375-1.109,0.573     l-0.112,0.057c-0.229,0.115-0.469,0.23-0.71,0.35l-0.482,0.233c-0.673,0.327-1.347,0.654-2.027,0.972l-0.19,0.092l-0.009,0.004     l-0.063,0.028l-0.066,0.029c-0.439,0.201-0.879,0.401-1.32,0.589l-0.122,0.051l-0.069,0.028c-0.29,0.124-0.585,0.246-0.88,0.36     c-0.341,0.132-0.661,0.25-0.979,0.362l-0.175,0.058l-0.067,0.022l-0.107,0.036c-0.183,0.063-0.366,0.123-0.552,0.179     l-0.101,0.028c-0.125,0.035-0.227,0.063-0.327,0.092l-0.086,0.023l-0.114,0.031c-0.095,0.028-0.187,0.055-0.286,0.078     c-0.146,0.04-0.29,0.075-0.437,0.107c-0.453,0.103-0.907,0.199-1.364,0.286c-0.066,0.014-0.142,0.024-0.219,0.038l-0.153,0.025     c-0.236,0.043-0.47,0.082-0.699,0.115c-0.407,0.067-0.814,0.127-1.224,0.177c-0.229,0.027-0.463,0.059-0.692,0.082     c-0.433,0.049-0.866,0.083-1.299,0.112l-0.234,0.018c-0.122,0.01-0.247,0.019-0.371,0.024c-0.682,0.037-1.303,0.054-1.894,0.054     l-0.33-0.003l-0.312-0.001c-2.934-0.06-5.854-0.473-8.692-1.228c-2.654-0.707-5.191-2.055-7.646-3.355l-0.493-0.262     c-0.084-0.046-1.505-0.803-1.58-0.842c-0.9-0.475-1.718-0.954-2.433-1.422c-2.39-1.87-4.382-2.256-5.64-2.256     c-0.199,0-0.379,0.011-0.548,0.025l-0.132,0.015c-0.14,0.013-0.265,0.032-0.38,0.054l-0.18,0.034l-0.095,0.021l-0.076,0.018     l-0.207,0.06l-0.112,0.038l-0.081,0.033l-0.073,0.031l-21.781,8.553l-0.062,0.026l-0.174,0.067     c-0.169,0.069-0.338,0.13-0.506,0.188l-0.148,0.048l-0.083,0.028l-0.141,0.045l-0.175,0.056c-0.204,0.063-0.404,0.118-0.603,0.17     l-0.098,0.025l-0.008,0l-0.068,0.018c-0.139,0.032-0.274,0.059-0.41,0.084c-0.084,0.018-0.172,0.028-0.26,0.042l-0.102,0.014     l-0.084,0.014c-0.067,0.01-0.132,0.019-0.196,0.029C11.137,41.932,10.86,41.956,10.593,41.96L10.593,41.96z" id="path24"/>
			
				<linearGradient id="SVGID_3_" gradientUnits="userSpaceOnUse" x1="1798.3604" y1="-1535.5776" x2="1798.3604" y2="-1549.8315" gradientTransform="matrix(1 0 0 1 -1692 1584)">
				<stop offset="0" style="stop-color:#780A0B" id="stop27"/>
				<stop offset="1" style="stop-color:#ED1C24" id="stop29"/>
			</linearGradient>
			<path fill="url(#SVGID_3_)" d="M126.301,48.422h-1.181c0-0.129-0.015-0.256-0.051-0.375c-0.103-0.326-0.373-0.719-0.783-1.128     c-0.446-0.439-1.06-0.909-1.875-1.438c-0.82-0.519-1.789-1.056-2.867-1.593c-1.132-0.563-2.411-1.14-3.813-1.716     c-1.414-0.586-2.758-1.097-3.989-1.519c-1.271-0.437-2.392-0.777-3.428-1.038c-1.068-0.271-2.056-0.469-2.932-0.593     c-0.773-0.104-1.512-0.155-2.202-0.155h-0.271c-0.687,0.016-1.401,0.095-2.17,0.239c-0.384,0.071-0.779,0.158-1.182,0.261     c-0.436,0.111-0.841,0.228-1.258,0.36c-0.35,0.112-0.715,0.245-1.083,0.379l-0.121,0.045l-0.244,0.091     c-0.41,0.159-0.832,0.326-1.265,0.511c-0.397,0.172-0.813,0.362-1.229,0.561l-0.615,0.297C93.355,41.8,92.968,41.99,92.57,42.2     l-0.315,0.17l-0.42,0.229l-0.271,0.163c-0.149,0.083-0.236,0.136-0.321,0.186l-0.169,0.104l-0.187,0.114l-0.098,0.063     l-0.077,0.045c-0.168,0.108-0.335,0.216-0.496,0.329c-0.161,0.108-0.312,0.216-0.458,0.325c-0.321,0.24-0.577,0.452-0.814,0.663     c-0.141,0.128-0.252,0.233-0.356,0.334c-0.083,0.089-0.178,0.194-0.264,0.298c-0.088,0.102-0.166,0.201-0.234,0.297     c-0.071,0.102-0.13,0.195-0.184,0.29c-0.057,0.1-0.1,0.188-0.138,0.275c-0.063,0.138-0.103,0.26-0.129,0.379     c-0.027,0.13-0.041,0.24-0.041,0.351H86.42V43.29v-0.012l0.001-0.079c0.003-0.08,0.009-0.16,0.017-0.24     c0.018-0.104,0.022-0.152,0.036-0.198c0,0.003,0,0.004,0,0.004c0.001,0,0.006-0.039,0.016-0.076     c0.018-0.09,0.032-0.14,0.046-0.188l0.022-0.075c0.018-0.051,0.03-0.092,0.05-0.137l0.034-0.094l0.057-0.124l0.047-0.107     l0.043-0.088l0.003-0.008l0.03-0.059l0.049-0.085c0.052-0.091,0.071-0.123,0.092-0.155c0.018-0.033,0.04-0.07,0.066-0.107     l0.084-0.12c0.021-0.035,0.044-0.066,0.066-0.098l0.075-0.099l0,0l0.079-0.104c0.03-0.036,0.059-0.07,0.087-0.103     c0.049-0.06,0.092-0.109,0.138-0.157c0.017-0.021,0.061-0.067,0.104-0.115l0.09-0.098l0.195-0.19l0.127-0.114l0.059-0.056     c0.077-0.069,0.146-0.13,0.216-0.188l0.206-0.176l0.177-0.142l0.056-0.043l0.218-0.167l0.109-0.081l0.202-0.147l0.134-0.092     l0.093-0.066l0.007-0.005l0.068-0.047c0.144-0.094,0.291-0.191,0.441-0.285l0.102-0.064l0.102-0.063l0.101-0.064l0.209-0.129     l0.068-0.038c0.104-0.064,0.216-0.129,0.325-0.19l0.076-0.046l0.154-0.092l0.478-0.263l0.091-0.05l0.139-0.075l0.117-0.064     l0.117-0.06c0.206-0.106,0.413-0.212,0.618-0.315l0.268-0.127l0.206-0.099c0.21-0.104,0.428-0.209,0.643-0.313l0.146-0.067     l0.153-0.074c0.321-0.149,0.638-0.292,0.95-0.43c0.388-0.166,0.757-0.317,1.123-0.456l0.127-0.048l0.338-0.126l0.117-0.042     l0.154-0.058c0.121-0.045,0.241-0.09,0.355-0.131c0.206-0.071,0.409-0.139,0.608-0.204l0.293-0.092     c0.329-0.098,0.645-0.186,0.957-0.267l0.086-0.023c0.384-0.098,0.757-0.182,1.122-0.25c0.037-0.008,0.092-0.02,0.147-0.026     c0.797-0.153,1.574-0.24,2.346-0.257h0.285c0.747,0,1.54,0.057,2.359,0.167c0.933,0.131,1.96,0.339,3.063,0.618     c1.044,0.263,2.195,0.611,3.523,1.063c1.262,0.435,2.626,0.955,4.055,1.546c1.431,0.593,2.738,1.182,3.889,1.754     c1.124,0.56,2.128,1.116,2.98,1.656c0.885,0.572,1.561,1.093,2.067,1.591c0.554,0.556,0.918,1.101,1.081,1.625     c0.07,0.237,0.103,0.472,0.103,0.714V48.422L126.301,48.422z" id="path31"/>
			
				<linearGradient id="SVGID_4_" gradientUnits="userSpaceOnUse" x1="1815.957" y1="-1518.644" x2="1815.957" y2="-1536.8281" gradientTransform="matrix(1 0 0 1 -1692 1584)">
				<stop offset="0" style="stop-color:#780A0B" id="stop34"/>
				<stop offset="1" style="stop-color:#ED1C24" id="stop36"/>
			</linearGradient>
			<path fill="url(#SVGID_4_)" d="M113.43,65.356c-1.457,0-2.874-0.079-4.333-0.237l-0.525-0.057v-0.53V61.01v-0.657l0.653,0.073     c1.416,0.154,2.789,0.228,4.205,0.228c0.646,0,1.291-0.017,1.918-0.049c0.457-0.024,0.907-0.059,1.355-0.098     c0.137-0.013,0.271-0.027,0.409-0.043c0.322-0.031,0.63-0.068,0.941-0.108l0.447-0.063c0.326-0.049,0.65-0.099,0.973-0.155     l0.17-0.029l0.17-0.029c0.441-0.085,0.886-0.176,1.325-0.274c0.305-0.073,0.606-0.153,0.91-0.235     c0.278-0.075,0.519-0.144,0.76-0.212c0.25-0.072,0.498-0.149,0.741-0.225l0.108-0.038c0.122-0.039,0.242-0.079,0.367-0.12     c0.327-0.111,0.647-0.228,0.969-0.349l0.138-0.05l0.08-0.029c0.412-0.16,0.829-0.331,1.242-0.514     c0.401-0.177,0.805-0.366,1.194-0.56c0.43-0.214,0.795-0.409,1.154-0.607l0.088-0.047l0.076-0.043     c0.351-0.195,0.692-0.397,1.03-0.607l0.152-0.094c0.362-0.228,0.718-0.459,1.069-0.702c0.312-0.214,0.605-0.422,0.894-0.63     l0.065-0.047l0.201-0.148c0.273-0.201,0.533-0.396,0.78-0.585l0.076-0.061c0.257-0.198,0.509-0.402,0.754-0.608l0.093-0.079     l0.08-0.067c0.244-0.206,0.476-0.408,0.696-0.604c0.225-0.208,0.441-0.418,0.643-0.621l0.075-0.076     c0.189-0.189,0.371-0.381,0.543-0.571c0.215-0.24,0.381-0.434,0.534-0.628c0.18-0.225,0.324-0.419,0.458-0.609     c0.122-0.185,0.236-0.367,0.341-0.549c0.12-0.208,0.21-0.385,0.29-0.56c0.082-0.181,0.15-0.354,0.207-0.525     c0.058-0.173,0.105-0.334,0.134-0.499c0.028-0.116,0.041-0.226,0.057-0.333l0.007-0.104v-0.001l0.005-0.081     c0.007-0.071,0.013-0.143,0.013-0.215h1.18v3.522l-0.004,0.146l-0.012,0.14l-0.004,0.093c-0.006,0.051-0.01,0.104-0.015,0.158     c-0.02,0.16-0.034,0.262-0.057,0.366v0.003l-0.013,0.066l-0.04,0.178l-0.059,0.222l-0.038,0.116l-0.03,0.094     c-0.034,0.11-0.057,0.167-0.079,0.229l-0.072,0.188l-0.002,0.008l-0.029,0.063l-0.057,0.132l-0.06,0.131v0.006l-0.033,0.062     c-0.032,0.068-0.066,0.139-0.104,0.206c-0.022,0.048-0.062,0.119-0.103,0.189l-0.057,0.098l-0.052,0.095     c-0.047,0.077-0.087,0.146-0.132,0.215c-0.04,0.064-0.087,0.138-0.132,0.207c-0.023,0.037-0.057,0.089-0.092,0.137l-0.161,0.227     l-0.177,0.235l-0.1,0.128c-0.009,0.011-0.033,0.041-0.056,0.069l-0.242,0.298c-0.08,0.095-0.16,0.184-0.241,0.274l-0.004,0.006     l-0.1,0.112l-0.068,0.074l-0.081,0.089c-0.097,0.104-0.193,0.205-0.294,0.307l-0.096,0.097l-0.097,0.096l-0.129,0.134     c-0.13,0.126-0.25,0.244-0.38,0.364l-0.062,0.06l-0.136,0.124l-0.125,0.115c-0.13,0.115-0.273,0.241-0.423,0.369l-0.186,0.157     l-0.167,0.139l-0.083,0.071l-0.095,0.079c-0.196,0.162-0.395,0.32-0.602,0.479l-0.009,0.008l-0.063,0.048     c-0.222,0.172-0.41,0.318-0.606,0.462c-0.037,0.029-0.091,0.066-0.143,0.105l-0.065,0.046c-0.085,0.067-0.187,0.137-0.286,0.208     l-0.101,0.073l-0.159,0.117c-0.218,0.153-0.432,0.303-0.655,0.452c-0.092,0.066-0.194,0.137-0.3,0.207     c-0.198,0.134-0.398,0.266-0.6,0.396c-0.074,0.046-0.153,0.094-0.23,0.142l-0.067,0.041l-0.111,0.072l-0.222,0.135     c-0.217,0.132-0.438,0.261-0.66,0.387l-0.085,0.047l-0.163,0.091l-0.07,0.038l-0.068,0.04c-0.105,0.057-0.207,0.117-0.313,0.171     c-0.241,0.129-0.489,0.256-0.739,0.38l-0.068,0.034c-0.272,0.135-0.497,0.244-0.722,0.349l-0.529,0.241l-0.339,0.146     c-0.304,0.13-0.613,0.259-0.929,0.376l-0.141,0.054l-0.074,0.027l-0.165,0.063c-0.216,0.082-0.434,0.161-0.649,0.238     l-0.135,0.045l-0.099,0.032l-0.489,0.158l-0.196,0.065l-0.271,0.088l-0.194,0.053l-0.121,0.034     c-0.242,0.07-0.492,0.139-0.742,0.207l-0.128,0.035c-0.089,0.025-0.179,0.053-0.271,0.075c-0.195,0.051-0.392,0.099-0.586,0.146     c-0.418,0.093-0.83,0.182-1.245,0.259h-0.003l-0.119,0.022l-0.204,0.034l-0.186,0.031c-0.325,0.058-0.653,0.112-0.979,0.159     l-0.455,0.063c-0.332,0.044-0.66,0.082-0.992,0.115l-0.196,0.021l-0.208,0.021c-0.469,0.042-0.936,0.076-1.41,0.099     C114.735,65.336,114.068,65.356,113.43,65.356L113.43,65.356z" id="path38"/>
			
				<linearGradient id="SVGID_5_" gradientUnits="userSpaceOnUse" x1="1767.9883" y1="-1518.2148" x2="1767.9883" y2="-1534.751" gradientTransform="matrix(1 0 0 1 -1692 1584)">
				<stop offset="0" style="stop-color:#780A0B" id="stop41"/>
				<stop offset="1" style="stop-color:#ED1C24" id="stop43"/>
			</linearGradient>
			<path fill="url(#SVGID_5_)" d="M97.707,65.785h-1.181c0-0.183-0.017-0.353-0.05-0.523c-0.097-0.458-0.335-0.948-0.723-1.496     c-0.396-0.548-0.949-1.129-1.642-1.722c-0.732-0.62-1.597-1.251-2.562-1.875c-0.984-0.637-2.099-1.287-3.412-1.989l-0.192-0.099     l-0.127-0.064l-0.144-0.087c-1.33-0.697-2.506-1.265-3.561-1.72c-1.106-0.485-2.162-0.889-3.233-1.234     c-0.998-0.317-1.974-0.564-2.898-0.735c-0.926-0.169-1.809-0.263-2.616-0.28c-0.136-0.007-0.233-0.011-0.334-0.011     c-0.67,0-1.401,0.054-2.225,0.164c-0.373,0.051-0.757,0.123-1.144,0.203c-0.175,0.036-0.348,0.075-0.517,0.112     c-0.357,0.085-0.717,0.171-1.089,0.275c-0.449,0.129-0.906,0.275-1.376,0.436l-0.095,0.031c-0.493,0.17-0.992,0.357-1.502,0.564     c-0.481,0.205-0.982,0.427-1.491,0.664l-0.18,0.087l-0.098,0.048c-0.474,0.223-0.949,0.456-1.435,0.708l-0.505,0.27l-0.122,0.066     c-0.424,0.227-0.834,0.453-1.226,0.673l-0.081,0.049c-0.305,0.175-0.594,0.346-0.877,0.513c-0.225,0.135-0.448,0.271-0.66,0.404     l-0.26,0.166l-0.162,0.106c-0.154,0.099-0.305,0.198-0.452,0.295c-0.127,0.087-0.252,0.171-0.374,0.255l-0.075,0.05l-0.148,0.103     c-0.181,0.128-0.365,0.262-0.543,0.393c-0.229,0.175-0.402,0.31-0.565,0.443c-0.175,0.144-0.341,0.28-0.495,0.417     c-0.18,0.163-0.321,0.293-0.453,0.422c-0.146,0.139-0.265,0.265-0.374,0.389c-0.143,0.154-0.243,0.274-0.334,0.393     c-0.098,0.124-0.185,0.243-0.262,0.361c-0.079,0.123-0.144,0.234-0.199,0.344c-0.059,0.112-0.102,0.214-0.14,0.314     c-0.037,0.103-0.065,0.201-0.086,0.299c-0.03,0.129-0.042,0.271-0.042,0.421h-1.18v-3.521l0.002-0.118     c0.003-0.1,0.011-0.207,0.025-0.313c0.008-0.053,0.018-0.124,0.03-0.194l0.03-0.132c0.014-0.048,0.027-0.098,0.04-0.149     c0.002-0.018,0.02-0.067,0.036-0.119l0.041-0.115c0.015-0.04,0.034-0.083,0.052-0.133l0.005-0.003l0.041-0.101l0.055-0.115     l0.039-0.082c0.031-0.058,0.054-0.098,0.075-0.14l0.068-0.114l0.06-0.108l0.08-0.119l0.078-0.116l0.083-0.116     c0.025-0.036,0.061-0.082,0.096-0.131l0.103-0.125l0.114-0.139c0.038-0.048,0.087-0.103,0.135-0.156     c0.015-0.016,0.044-0.05,0.072-0.078l0.008-0.008L55.7,57.87l0.162-0.168l0.17-0.171l0.203-0.195     c0.063-0.062,0.133-0.125,0.207-0.19l0.101-0.089c0.064-0.058,0.118-0.104,0.174-0.149c0.081-0.072,0.175-0.153,0.274-0.235     l0.104-0.083c0.082-0.068,0.179-0.146,0.278-0.225l0.25-0.189c0.034-0.025,0.068-0.053,0.101-0.077     c0.158-0.121,0.31-0.226,0.461-0.335l0.003-0.003l0.072-0.048l0.138-0.098l0.104-0.071l0.088-0.062l0.174-0.119l0.006-0.004     l0.058-0.037l0.068-0.045l0.237-0.157l0.171-0.112l0.126-0.079l0.113-0.076l0.15-0.094l0.089-0.06     c0.193-0.119,0.381-0.236,0.575-0.352l0.006-0.005l0.061-0.034c0.331-0.197,0.631-0.372,0.94-0.55     c0.008-0.004,0.042-0.027,0.08-0.047c0.402-0.229,0.823-0.459,1.253-0.691l0.067-0.037l0.087-0.047l0.065-0.036     c0.142-0.074,0.28-0.149,0.426-0.223c0.224-0.12,0.457-0.237,0.687-0.353l0.561-0.27l0.229-0.11l0.118-0.057l0.157-0.074     l0.009-0.004l0.094-0.047c0.429-0.2,0.852-0.387,1.269-0.563l0.082-0.037l0.084-0.037l0.162-0.063l0.281-0.112     c0.364-0.14,0.73-0.275,1.092-0.403l0.098-0.032c0.387-0.129,0.706-0.238,1.021-0.332l0.346-0.104l0.102-0.029     c0.236-0.069,0.469-0.13,0.697-0.19c0.093-0.021,0.181-0.04,0.271-0.06l0.181-0.04c0.182-0.042,0.359-0.082,0.537-0.119     l0.122-0.028l0.149-0.033c0.325-0.063,0.646-0.116,0.958-0.159c0.886-0.117,1.665-0.173,2.385-0.173     c0.122,0,0.238,0.006,0.356,0.01c0.883,0.02,1.828,0.121,2.809,0.301c0.981,0.183,2.008,0.442,3.042,0.773     c1.095,0.35,2.189,0.768,3.343,1.275c1.086,0.464,2.287,1.047,3.678,1.775l0.134,0.083l0.095,0.049l0.195,0.098     c1.363,0.729,2.507,1.397,3.508,2.043c0.997,0.645,1.901,1.307,2.685,1.969c0.769,0.659,1.385,1.308,1.837,1.932     c0.485,0.687,0.784,1.32,0.919,1.94c0.048,0.254,0.074,0.507,0.074,0.767V65.785L97.707,65.785z" id="path45"/>
			
				<linearGradient id="SVGID_6_" gradientUnits="userSpaceOnUse" x1="1765.9961" y1="-1495.4932" x2="1765.9961" y2="-1525.7715" gradientTransform="matrix(1 0 0 1 -1692 1584)">
				<stop offset="0" style="stop-color:#780A0B" id="stop48"/>
				<stop offset="1" style="stop-color:#ED1C24" id="stop50"/>
			</linearGradient>
			<path fill="url(#SVGID_6_)" d="M80.234,88.507c-1.965,0-3.994-0.201-6.034-0.598c-2.205-0.422-4.513-1.087-6.857-1.979     c-2.251-0.863-4.581-1.867-6.922-3.178c-2.247-1.248-4.548-2.725-6.836-4.383c-2.936-2.127-14.988-11.196-16.008-14.539     c-0.136-0.451-0.313-1.411-0.373-3.088c-0.052-1.502-0.026-2.14,0.173-2.514c1.609,5.148,14.014,13.479,16.901,15.566     c2.239,1.625,4.497,3.075,6.717,4.311c2.296,1.284,4.572,2.36,6.769,3.202c2.276,0.866,4.518,1.514,6.663,1.924     c1.954,0.382,3.906,0.574,5.808,0.574c0.186,0,0.375-0.006,0.554-0.012c0.377-0.008,0.745-0.025,1.119-0.048l0.198-0.018     l0.157-0.014c0.256-0.02,0.515-0.043,0.772-0.071c0.141-0.018,0.284-0.038,0.429-0.056c0.245-0.033,0.485-0.064,0.724-0.105     c0.157-0.024,0.312-0.051,0.464-0.08c0.331-0.058,0.665-0.118,1.003-0.192c0.388-0.083,0.774-0.177,1.164-0.275     c0.459-0.12,0.927-0.248,1.396-0.391c0.452-0.136,0.904-0.287,1.356-0.442c0.418-0.144,0.838-0.3,1.262-0.46     c0.431-0.168,0.872-0.347,1.309-0.538l0.131-0.057l0.121-0.054c0.352-0.152,0.704-0.308,1.058-0.473l0.263-0.128l0.176-0.085     l0.157-0.075c0.232-0.112,0.465-0.224,0.698-0.342c0.171-0.085,0.342-0.175,0.509-0.264l0.003-0.001l0.065-0.032     c0.304-0.156,0.608-0.315,0.914-0.479c0.374-0.204,0.749-0.418,1.126-0.635c0.162-0.094,0.326-0.191,0.491-0.287l0.145-0.087     c0.235-0.14,0.474-0.282,0.715-0.427l0.427-0.264l0.212-0.135l0.106-0.066c0.209-0.131,0.418-0.266,0.627-0.4     c0.217-0.14,0.433-0.283,0.647-0.426c0.336-0.221,0.674-0.445,1.01-0.676c0.46-0.315,0.896-0.631,1.314-0.947l0.104-0.08     c0.386-0.293,0.757-0.585,1.109-0.878l0.064-0.055c0.393-0.329,0.73-0.627,1.049-0.922c0.379-0.359,0.694-0.672,0.988-0.984     c0.292-0.307,0.557-0.611,0.808-0.914c0.281-0.343,0.511-0.644,0.721-0.946c0.212-0.311,0.404-0.61,0.567-0.901     c0.193-0.341,0.344-0.64,0.472-0.924c0.225-0.512,0.397-1.029,0.512-1.541l0.024-0.095c0.044-0.222,0.081-0.45,0.108-0.671     c0.007-0.067,0.01-0.132,0.015-0.196l0.008-0.08c0.015-0.227,0.029-0.4,0.029-0.574h1.178v3.521c0,0.095,0,0.185-0.003,0.28     c-0.004,0.097-0.012,0.191-0.021,0.287l-0.009,0.1l-0.005,0.063c-0.006,0.088-0.012,0.176-0.022,0.265     c-0.001,0.029-0.004,0.063-0.01,0.1c-0.022,0.164-0.051,0.335-0.082,0.508l-0.021,0.099l-0.003,0.007l-0.016,0.065l-0.021,0.102     l-0.034,0.149c-0.027,0.126-0.062,0.252-0.099,0.377c-0.031,0.108-0.065,0.215-0.102,0.323c-0.041,0.126-0.08,0.236-0.121,0.344     c-0.034,0.095-0.075,0.197-0.118,0.301l-0.111,0.261l-0.143,0.311l-0.064,0.132l-0.083,0.167     c-0.052,0.095-0.105,0.193-0.157,0.29l-0.072,0.122l-0.086,0.153c-0.057,0.1-0.114,0.192-0.174,0.288l-0.15,0.238     c-0.089,0.13-0.151,0.22-0.211,0.307c-0.079,0.117-0.147,0.212-0.216,0.309l-0.063,0.084l-0.161,0.211l-0.171,0.217l-0.06,0.077     l-0.003,0.001l-0.112,0.136l-0.145,0.174l-0.042,0.053c-0.075,0.084-0.148,0.172-0.226,0.258     c-0.094,0.104-0.189,0.212-0.289,0.319l-0.16,0.171l-0.105,0.115l-0.104,0.104l-0.36,0.366c-0.129,0.124-0.256,0.248-0.393,0.375     v0.001l-0.072,0.066l-0.088,0.084l-0.265,0.241c-0.155,0.138-0.313,0.276-0.471,0.413l-0.234,0.199l-0.111,0.092h-0.004     l-0.053,0.048l-0.118,0.095c-0.183,0.154-0.374,0.305-0.567,0.459l-0.27,0.206l-0.13,0.098l-0.081,0.063l-0.082,0.063     l-0.059,0.045c-0.251,0.187-0.49,0.362-0.733,0.535c-0.171,0.119-0.343,0.239-0.519,0.358c-0.192,0.135-0.391,0.269-0.588,0.402     c-0.084,0.056-0.172,0.114-0.261,0.171l-0.157,0.103c-0.232,0.153-0.465,0.308-0.697,0.459l-0.112,0.074l-0.177,0.115     l-0.211,0.131l-0.2,0.124c-0.233,0.147-0.465,0.294-0.699,0.436l-0.093,0.057l-0.175,0.108l-0.292,0.173l-0.139,0.078     c-0.213,0.131-0.431,0.259-0.649,0.383l-0.114,0.069l-0.151,0.087c-0.299,0.169-0.597,0.337-0.894,0.498l-0.086,0.048     l-0.251,0.133c-0.141,0.077-0.283,0.149-0.424,0.221l-0.229,0.117l-0.195,0.103l-0.33,0.168c-0.075,0.041-0.109,0.06-0.146,0.077     c-0.138,0.069-0.291,0.143-0.446,0.215l-0.256,0.123l-0.229,0.11l-0.271,0.131h-0.001l-0.077,0.037     c-0.288,0.135-0.572,0.26-0.858,0.384l-0.156,0.068l-0.246,0.11c-0.442,0.19-0.853,0.355-1.258,0.518l-0.079,0.03     c-0.429,0.165-0.851,0.32-1.271,0.466c-0.422,0.146-0.798,0.267-1.173,0.384l-0.098,0.032l-0.155,0.052l-0.014,0.004     l-0.066,0.016c-0.451,0.136-0.905,0.264-1.355,0.379l-0.114,0.031c-0.363,0.093-0.735,0.181-1.108,0.26     c-0.234,0.048-0.472,0.097-0.706,0.141c-0.062,0.012-0.127,0.023-0.192,0.035l-0.133,0.023c-0.17,0.03-0.335,0.057-0.498,0.085     c-0.251,0.041-0.502,0.075-0.752,0.108l-0.143,0.018c-0.106,0.015-0.209,0.028-0.313,0.04c-0.271,0.031-0.539,0.053-0.81,0.075     l-0.136,0.013l-0.231,0.021c-0.4,0.024-0.788,0.044-1.174,0.05C80.638,88.501,80.433,88.507,80.234,88.507L80.234,88.507z" id="path52"/>
		</g>
		<linearGradient id="SVGID_7_" gradientUnits="userSpaceOnUse" x1="4.7881" y1="49.0586" x2="139.3247" y2="49.0586">
			<stop offset="0" style="stop-color:#931619" id="stop55"/>
			<stop offset="1" style="stop-color:#EF3B41" id="stop57"/>
		</linearGradient>
		<path fill="url(#SVGID_7_)" d="M80.232,84.437c-1.966,0-3.995-0.203-6.026-0.599c-2.205-0.419-4.515-1.087-6.855-1.978    c-2.251-0.861-4.577-1.962-6.92-3.272c-2.245-1.252-4.532-2.717-6.798-4.358l-0.088-0.043l-0.047-0.023l-0.04-0.031    c-3.198-2.425-16.128-12.449-16.205-15.36c-0.015-0.636-0.043-2.097,15.455-10.059c7.103-3.648,14.296-7.101,15.124-7.499    l0.098-0.088l0.059-0.053l0.069-0.036l15.456-7.644c1.706-0.851,3.111-1.488,4.558-2.067c1.31-0.53,2.635-0.988,3.938-1.364    c1.268-0.366,2.501-0.657,3.673-0.863c1.185-0.195,2.355-0.313,3.481-0.355c0.354-0.012,0.707-0.017,1.065-0.017    c1.147,0,2.354,0.064,3.594,0.194c1.648,0.179,3.384,0.466,5.158,0.856c1.81,0.403,3.699,0.913,5.774,1.563    c2.027,0.641,4.166,1.406,6.54,2.342c3.199,1.258,5.379,2.19,7.281,3.117c1.949,0.943,3.643,1.873,5.027,2.767    c1.432,0.925,2.623,1.861,3.543,2.782c0.956,0.982,1.582,1.916,1.923,2.862c0.275,0.763,0.329,1.578,0.151,2.416    c-0.171,0.818-0.559,1.678-1.155,2.555c-0.598,0.863-1.413,1.771-2.426,2.705c-1.072,0.972-2.339,1.957-3.767,2.932    c-1.541,1.065-3.208,1.998-4.95,2.766c-1.743,0.771-3.604,1.389-5.525,1.84c-1.979,0.45-3.995,0.729-5.989,0.825    c-0.62,0.036-1.288,0.055-1.979,0.055c-1.119,0-2.214-0.044-3.323-0.139c0.404,0.975,0.634,1.957,0.68,2.932    c0.061,1.339-0.204,2.685-0.79,4.002c-0.598,1.347-1.533,2.696-2.781,4.011c-1.276,1.353-2.896,2.708-4.816,4.024    c-1.888,1.298-3.774,2.466-5.607,3.466c-1.876,1.019-3.739,1.891-5.54,2.592c-1.844,0.71-3.643,1.256-5.352,1.622    c-1.731,0.373-3.443,0.578-5.083,0.61C80.633,84.429,80.43,84.437,80.232,84.437L80.232,84.437z M75.033,49.897    c-0.667,0-1.397,0.054-2.23,0.164c-0.877,0.124-1.803,0.324-2.745,0.594c-0.971,0.276-1.943,0.613-2.979,1.028    c-1.082,0.458-2.163,0.968-3.207,1.513c-1.285,0.674-2.452,1.338-3.469,1.974c-1.074,0.675-1.919,1.271-2.582,1.814    c-0.702,0.567-1.261,1.111-1.662,1.624c-0.368,0.469-0.603,0.914-0.688,1.324c-0.091,0.432-0.041,0.892,0.151,1.404    c0.206,0.554,0.579,1.152,1.145,1.832c0.583,0.694,1.354,1.443,2.286,2.218c0.979,0.813,2.155,1.682,3.487,2.578    c1.37,0.913,2.727,1.739,4.031,2.451c1.378,0.735,2.623,1.317,3.801,1.781c1.212,0.482,2.388,0.845,3.494,1.076    c1.062,0.231,2.093,0.348,3.067,0.348c0.979-0.013,1.942-0.125,2.939-0.352c1.021-0.224,2.127-0.562,3.294-1.008    c1.126-0.434,2.307-0.975,3.609-1.652c1.246-0.651,2.519-1.392,3.888-2.262c1.14-0.721,2.114-1.423,2.902-2.09    c0.769-0.637,1.41-1.278,1.91-1.914c0.45-0.573,0.762-1.137,0.936-1.68c0.147-0.507,0.173-0.982,0.082-1.44    c-0.096-0.457-0.334-0.949-0.726-1.497c-0.392-0.544-0.945-1.127-1.645-1.728c-0.744-0.629-1.608-1.261-2.561-1.875    c-0.981-0.636-2.096-1.287-3.414-1.99l-0.192-0.099l-0.129-0.064l-0.138-0.083c-1.336-0.7-2.512-1.27-3.567-1.723    c-1.134-0.498-2.191-0.902-3.233-1.233c-0.992-0.317-1.969-0.566-2.902-0.742c-0.922-0.169-1.803-0.262-2.62-0.276    C75.231,49.902,75.134,49.897,75.033,49.897L75.033,49.897z M102.91,34.816h0.014c-0.707,0.017-1.421,0.097-2.187,0.24    c-0.769,0.143-1.586,0.349-2.442,0.623c-0.872,0.284-1.788,0.627-2.716,1.023c-0.962,0.423-1.979,0.911-3.021,1.447    c-0.878,0.467-1.653,0.929-2.359,1.402c-0.613,0.42-1.161,0.868-1.62,1.323c-0.402,0.419-0.676,0.804-0.828,1.167    c-0.158,0.35-0.203,0.665-0.153,0.977c0.059,0.342,0.229,0.7,0.522,1.092c0.313,0.43,0.768,0.886,1.393,1.407    c0.647,0.517,1.434,1.059,2.329,1.606c1.029,0.62,2.145,1.228,3.315,1.811l0.11,0.055l0.106,0.054l0.11,0.054l0.105,0.052    c1.265,0.631,2.517,1.202,3.725,1.701c1.222,0.504,2.395,0.93,3.493,1.267c1.106,0.336,2.182,0.602,3.195,0.786    c1.027,0.188,1.984,0.293,2.848,0.306c0.133,0.011,0.246,0.011,0.352,0.011c0.022,0,0.048,0,0.073,0    c0.74,0,1.506-0.051,2.271-0.16c0.903-0.135,1.827-0.347,2.741-0.626c0.924-0.293,1.853-0.656,2.754-1.085    c0.891-0.417,1.813-0.926,2.744-1.517c1.09-0.699,1.969-1.322,2.682-1.9c0.736-0.579,1.322-1.127,1.743-1.632    c0.413-0.483,0.69-0.928,0.824-1.325c0.123-0.353,0.141-0.667,0.057-0.964c-0.104-0.326-0.377-0.723-0.79-1.136    c-0.448-0.44-1.063-0.915-1.876-1.439c-0.824-0.52-1.791-1.058-2.873-1.592c-1.14-0.567-2.422-1.145-3.814-1.721    c-1.408-0.582-2.753-1.096-3.99-1.521c-1.282-0.438-2.405-0.776-3.432-1.035c-1.052-0.27-2.039-0.47-2.933-0.594    c-0.771-0.104-1.51-0.156-2.199-0.156H102.91L102.91,34.816z M10.593,37.912h-0.006h-0.005c-0.638,0-1.171-0.063-1.682-0.199    c-0.556-0.165-1.033-0.389-1.436-0.671l-2.221-1.557c-0.181-0.12-0.31-0.267-0.38-0.435c-0.104-0.215-0.102-0.454,0.006-0.668    c0.092-0.21,0.265-0.334,0.38-0.417c0.128-0.089,0.281-0.169,0.49-0.256l27.087-10.516l2.231-0.865l13.15-5.092    c1.627-0.637,2.95-1.114,4.292-1.551c1.281-0.41,2.496-0.756,3.609-1.029c1.134-0.28,2.241-0.501,3.29-0.659    c1.067-0.161,2.045-0.258,2.985-0.292c0.366-0.019,0.741-0.024,1.121-0.024c0.823,0,1.708,0.04,2.703,0.124    c1.279,0.106,2.646,0.306,4.062,0.588c1.388,0.284,2.815,0.653,4.366,1.123c1.445,0.436,3,0.979,4.747,1.656    c2.189,0.866,3.718,1.532,5.106,2.228c1.319,0.67,2.439,1.335,3.333,1.981c0.962,0.712,1.655,1.379,2.133,2.039    c0.523,0.735,0.786,1.48,0.778,2.214c-0.008,0.584-0.217,1.188-0.619,1.794c-0.37,0.569-0.916,1.154-1.665,1.781    c-0.686,0.581-1.572,1.203-2.708,1.893c-1.071,0.651-2.36,1.341-3.829,2.051l-0.456,0.223c-2.577,1.251-5.239,2.546-7.99,3.172    c-2.694,0.621-5.435,0.935-8.146,0.935l-0.329-0.004l-0.313-0.003c-2.927-0.061-5.846-0.473-8.689-1.228    c-2.653-0.708-5.196-2.06-7.655-3.364l-0.478-0.253c-0.054-0.031-0.592-0.316-1.024-0.545l-0.562-0.296    c-0.911-0.482-1.728-0.959-2.426-1.419c-2.392-1.874-4.387-2.261-5.649-2.261c-1.218,0-1.898,0.333-1.907,0.336l-21.763,8.55    c-0.703,0.284-1.378,0.504-2.061,0.666C11.819,37.814,11.188,37.896,10.593,37.912L10.593,37.912z M64.194,18.44    c-0.608,0.025-1.24,0.089-1.88,0.195c-0.683,0.114-1.419,0.274-2.191,0.479c-0.739,0.196-1.569,0.448-2.529,0.766    c-0.924,0.318-1.862,0.671-2.86,1.078c-0.934,0.382-1.69,0.721-2.318,1.038c-0.654,0.329-1.219,0.659-1.677,0.98    c-0.439,0.3-0.777,0.59-1.01,0.867c-0.198,0.241-0.314,0.459-0.341,0.646c-0.034,0.197,0.009,0.388,0.121,0.612    c0.143,0.274,0.392,0.578,0.733,0.896c0.369,0.346,0.862,0.711,1.461,1.087c0.564,0.368,1.269,0.762,2.222,1.244l0.131,0.063    l0.095,0.047l0.06,0.027c0.877,0.441,1.739,0.832,2.582,1.166c0.861,0.334,1.68,0.611,2.485,0.839    c0.774,0.226,1.563,0.399,2.349,0.52c0.768,0.12,1.509,0.187,2.209,0.198h0.195c0.644,0,1.32-0.048,2.014-0.141    c0.769-0.097,1.567-0.25,2.388-0.46c0.763-0.187,1.587-0.444,2.529-0.782c0.785-0.284,1.649-0.64,2.638-1.091    c1.047-0.486,1.962-0.945,2.716-1.363c0.786-0.433,1.401-0.82,1.884-1.181c0.479-0.353,0.84-0.679,1.081-0.976    c0.232-0.3,0.292-0.493,0.301-0.604c0.003-0.151-0.088-0.363-0.265-0.598c-0.222-0.294-0.578-0.623-1.038-0.947    c-0.529-0.37-1.163-0.742-1.879-1.106c-0.745-0.39-1.626-0.797-2.621-1.208c-1.045-0.425-1.975-0.771-2.846-1.059    c-0.849-0.283-1.699-0.529-2.531-0.73c-0.844-0.194-1.575-0.325-2.233-0.401c-0.541-0.067-1.101-0.101-1.674-0.101h-0.319    L64.194,18.44L64.194,18.44z" id="path59"/>
		<g id="g61">
			<defs id="defs63">
				<path id="SVGID_8_" d="M44.161,29.894c0.695,0.458,1.493,0.922,2.382,1.393c0.075,0.041,1.508,0.801,1.581,0.842      c2.576,1.365,5.25,2.834,8.014,3.568c2.797,0.746,5.665,1.151,8.542,1.209c0.217,0,0.426,0.007,0.642,0.007      c2.688,0,5.362-0.307,8.018-0.918c2.85-0.65,5.623-2.042,8.328-3.354c1.45-0.702,2.712-1.376,3.78-2.026      c1.063-0.644,1.946-1.254,2.639-1.841c0.696-0.584,1.216-1.136,1.555-1.659c0.347-0.523,0.52-1.022,0.526-1.486      c0.004-0.616-0.221-1.242-0.672-1.876c-0.452-0.626-1.126-1.259-2.003-1.91c-0.878-0.633-1.966-1.278-3.257-1.934      c-1.283-0.643-2.748-1.293-5.059-2.206c-1.629-0.633-3.207-1.189-4.705-1.641c-1.49-0.454-2.923-0.826-4.313-1.11      c-1.371-0.273-2.706-0.471-3.997-0.58c-0.9-0.076-1.784-0.123-2.655-0.123c-0.371,0-0.734,0.006-1.101,0.022      c-0.931,0.037-1.901,0.134-2.922,0.291c-1.024,0.152-2.104,0.366-3.237,0.646c-1.129,0.278-2.321,0.621-3.568,1.021      c-1.261,0.407-2.579,0.876-4.263,1.538l-13.151,5.091l-2.23,0.865L5.959,34.236c-0.154,0.063-0.284,0.127-0.376,0.19      c-0.1,0.07-0.173,0.128-0.2,0.197c-0.035,0.063-0.035,0.128,0,0.192c0.027,0.069,0.095,0.14,0.186,0.202l2.224,1.557      c0.372,0.262,0.799,0.451,1.255,0.585c0.433,0.117,0.909,0.181,1.533,0.181c0.543-0.012,1.13-0.086,1.753-0.232      c0.63-0.151,1.286-0.358,1.984-0.644l21.718-8.527c0.04-0.021,0.804-0.398,2.161-0.398C39.65,27.54,41.74,27.998,44.161,29.894z       M48.823,24.409c0.042-0.303,0.203-0.61,0.469-0.931c0.266-0.318,0.643-0.643,1.119-0.969c0.479-0.336,1.068-0.68,1.746-1.021      c0.687-0.349,1.477-0.698,2.361-1.057c1.023-0.419,1.981-0.779,2.894-1.092c0.911-0.301,1.763-0.563,2.566-0.777      c0.796-0.209,1.545-0.372,2.241-0.487c0.7-0.117,1.348-0.182,1.954-0.204h0.319c0.55,0,1.131,0.029,1.736,0.104      c0.729,0.083,1.5,0.226,2.305,0.413c0.814,0.199,1.675,0.442,2.577,0.743c0.914,0.303,1.87,0.662,2.882,1.073      c1.015,0.419,1.911,0.831,2.664,1.227c0.784,0.398,1.429,0.783,1.951,1.149c0.521,0.369,0.907,0.73,1.163,1.067      c0.259,0.344,0.388,0.673,0.377,0.98c-0.02,0.285-0.168,0.593-0.428,0.924c-0.271,0.336-0.661,0.692-1.181,1.073      c-0.519,0.389-1.174,0.795-1.95,1.225c-0.786,0.435-1.706,0.894-2.757,1.383c-0.912,0.417-1.808,0.795-2.682,1.107      c-0.88,0.318-1.74,0.591-2.58,0.8c-0.846,0.215-1.668,0.373-2.451,0.471c-0.724,0.099-1.424,0.146-2.09,0.146h-0.203      c-0.734-0.012-1.502-0.081-2.285-0.202c-0.79-0.123-1.6-0.297-2.422-0.536c-0.834-0.238-1.674-0.522-2.539-0.859      c-0.865-0.342-1.737-0.737-2.611-1.179l-0.075-0.034l-0.081-0.041l-0.149-0.069c-0.883-0.449-1.641-0.865-2.265-1.272      c-0.638-0.399-1.149-0.782-1.544-1.15c-0.396-0.369-0.683-0.725-0.854-1.055C48.828,25.023,48.774,24.71,48.823,24.409z       M138.535,45.405c-0.315-0.876-0.913-1.756-1.79-2.653c-0.886-0.887-2.034-1.793-3.449-2.705      c-1.396-0.899-3.057-1.811-4.968-2.735c-1.872-0.911-3.996-1.822-7.239-3.098c-2.304-0.908-4.463-1.685-6.504-2.33      c-2.021-0.632-3.922-1.148-5.728-1.55c-1.79-0.395-3.488-0.673-5.095-0.848c-1.222-0.126-2.403-0.191-3.533-0.191      c-0.353,0-0.697,0.007-1.044,0.019c-1.106,0.04-2.243,0.158-3.404,0.348c-1.16,0.203-2.372,0.487-3.613,0.847      c-1.247,0.361-2.552,0.808-3.886,1.346c-1.352,0.542-2.748,1.169-4.515,2.051L68.312,41.55l-0.155,0.144      c0,0-30.392,14.909-30.333,17.065c0.057,2.173,10.017,10.4,15.977,14.918l0.132,0.066c2.254,1.635,4.515,3.088,6.774,4.347      c2.305,1.29,4.591,2.374,6.849,3.238c2.287,0.872,4.541,1.526,6.762,1.951c2.026,0.396,3.996,0.586,5.918,0.586      c0.191,0,0.388-0.005,0.572-0.012c1.6-0.03,3.256-0.227,4.975-0.598c1.705-0.366,3.472-0.905,5.261-1.596      c1.794-0.697,3.615-1.549,5.478-2.56c1.826-0.999,3.685-2.148,5.558-3.436c1.921-1.318,3.494-2.642,4.725-3.947      c1.223-1.29,2.107-2.572,2.676-3.849c0.555-1.254,0.796-2.501,0.74-3.744c-0.061-1.22-0.421-2.427-1.058-3.623      c1.446,0.157,2.862,0.233,4.27,0.233c0.655,0,1.31-0.018,1.951-0.053c2.027-0.099,3.984-0.379,5.889-0.813      c1.881-0.442,3.687-1.039,5.424-1.806c1.709-0.754,3.335-1.661,4.859-2.717c1.464-0.999,2.688-1.962,3.701-2.878      c0.989-0.911,1.769-1.778,2.341-2.608c0.557-0.817,0.913-1.605,1.068-2.351C138.817,46.773,138.775,46.071,138.535,45.405z       M96.955,62.833c-0.193,0.606-0.532,1.221-1.031,1.86c-0.508,0.644-1.162,1.312-1.989,1.997      c-0.821,0.695-1.817,1.409-2.965,2.134c-1.358,0.866-2.661,1.626-3.93,2.288c-1.272,0.662-2.495,1.227-3.668,1.679      c-1.181,0.453-2.304,0.798-3.374,1.032c-1.054,0.237-2.057,0.354-3.062,0.367c-1.008,0-2.069-0.118-3.188-0.361      c-1.145-0.24-2.342-0.609-3.584-1.102c-1.241-0.489-2.527-1.1-3.867-1.812c-1.315-0.721-2.674-1.544-4.078-2.479      c-1.37-0.924-2.544-1.793-3.532-2.612c-0.978-0.813-1.755-1.573-2.36-2.292c-0.593-0.714-1.008-1.37-1.24-1.998      c-0.229-0.614-0.286-1.183-0.173-1.724c0.104-0.487,0.365-1.004,0.797-1.554c0.419-0.536,1-1.11,1.747-1.713      c0.723-0.592,1.611-1.208,2.643-1.858c1.021-0.637,2.195-1.305,3.51-1.996c1.124-0.587,2.212-1.092,3.255-1.535      c1.053-0.422,2.059-0.77,3.033-1.048c0.977-0.279,1.916-0.482,2.83-0.61c0.791-0.105,1.555-0.167,2.305-0.167      c0.117,0,0.229,0.003,0.347,0.01c0.857,0.018,1.765,0.115,2.709,0.291c0.94,0.173,1.935,0.422,2.974,0.754      c1.05,0.335,2.136,0.749,3.286,1.253c1.159,0.5,2.364,1.092,3.637,1.758l0.104,0.064l0.125,0.064l0.204,0.103      c1.29,0.692,2.44,1.358,3.454,2.016c1.019,0.655,1.89,1.3,2.625,1.921c0.729,0.627,1.309,1.237,1.734,1.829      c0.427,0.598,0.705,1.166,0.822,1.717C97.165,61.669,97.127,62.236,96.955,62.833z M125.575,45.16      c-0.16,0.471-0.47,0.97-0.93,1.501c-0.447,0.543-1.062,1.117-1.819,1.715c-0.763,0.615-1.67,1.255-2.736,1.938      c-0.929,0.587-1.865,1.11-2.807,1.55c-0.944,0.447-1.889,0.817-2.826,1.114c-0.952,0.291-1.894,0.506-2.83,0.645      c-0.792,0.111-1.575,0.168-2.352,0.168c-0.145,0-0.294,0-0.435-0.01c-0.923-0.019-1.908-0.13-2.939-0.321      c-1.033-0.185-2.119-0.452-3.265-0.801c-1.128-0.348-2.314-0.778-3.537-1.282c-1.212-0.499-2.474-1.073-3.761-1.718      l-0.106-0.053l-0.105-0.052l-0.123-0.058l-0.099-0.052c-1.286-0.638-2.396-1.254-3.36-1.834      c-0.951-0.583-1.742-1.132-2.397-1.654c-0.637-0.529-1.137-1.026-1.482-1.502c-0.353-0.472-0.558-0.912-0.631-1.342      c-0.067-0.418-0.006-0.848,0.191-1.29c0.187-0.441,0.506-0.888,0.951-1.352c0.451-0.447,1.016-0.918,1.706-1.389      c0.691-0.467,1.489-0.945,2.417-1.438c1.066-0.552,2.085-1.038,3.056-1.465c0.963-0.41,1.888-0.758,2.767-1.042      c0.878-0.279,1.719-0.494,2.51-0.639c0.802-0.151,1.554-0.233,2.277-0.252h0.271c0.705,0,1.466,0.054,2.28,0.166      c0.923,0.127,1.922,0.329,2.996,0.602c1.075,0.273,2.235,0.627,3.479,1.05c1.248,0.43,2.587,0.941,4.021,1.533      c1.433,0.593,2.719,1.172,3.85,1.736c1.137,0.563,2.112,1.108,2.929,1.626c0.825,0.534,1.479,1.032,1.968,1.514      c0.481,0.482,0.797,0.946,0.934,1.382C125.752,44.261,125.734,44.696,125.575,45.16z"/>
			</defs>
			<clipPath id="SVGID_9_">
				<use xlink:href="#SVGID_8_" overflow="visible" id="use67"/>
			</clipPath>
			
				<rect x="5.356" y="82.865" clip-path="url(#SVGID_9_)" fill-rule="evenodd" clip-rule="evenodd" fill="#CC171E" width="133.397" height="1" id="rect69"/>
			
				<rect x="5.356" y="14.25" clip-path="url(#SVGID_9_)" fill-rule="evenodd" clip-rule="evenodd" fill="#FBD5D7" width="133.397" height="5.874" id="rect71"/>
			
				<linearGradient id="SVGID_10_" gradientUnits="userSpaceOnUse" x1="1764.0547" y1="-1500.1348" x2="1764.0547" y2="-1532.8525" gradientTransform="matrix(1 0 0 1 -1692 1584)">
				<stop offset="0" style="stop-color:#CC171E" id="stop74"/>
				<stop offset="1" style="stop-color:#ED1C24" id="stop76"/>
			</linearGradient>
			
				<rect x="5.356" y="51.147" clip-path="url(#SVGID_9_)" fill-rule="evenodd" clip-rule="evenodd" fill="url(#SVGID_10_)" width="133.397" height="32.718" id="rect78"/>
			
				<linearGradient id="SVGID_11_" gradientUnits="userSpaceOnUse" x1="1764.0547" y1="-1532.8525" x2="1764.0547" y2="-1533.5487" gradientTransform="matrix(1 0 0 1 -1692 1584)">
				<stop offset="0" style="stop-color:#ED1C24" id="stop81"/>
				<stop offset="1" style="stop-color:#F15F66" id="stop83"/>
			</linearGradient>
			
				<rect x="5.356" y="50.45" clip-path="url(#SVGID_9_)" fill-rule="evenodd" clip-rule="evenodd" fill="url(#SVGID_11_)" width="133.397" height="0.697" id="rect85"/>
			
				<linearGradient id="SVGID_12_" gradientUnits="userSpaceOnUse" x1="1764.0547" y1="-1533.5498" x2="1764.0547" y2="-1564.8765" gradientTransform="matrix(1 0 0 1 -1692 1584)">
				<stop offset="0" style="stop-color:#F15F66" id="stop88"/>
				<stop offset="1" style="stop-color:#FBD5D7" id="stop90"/>
			</linearGradient>
			
				<rect x="5.356" y="19.124" clip-path="url(#SVGID_9_)" fill-rule="evenodd" clip-rule="evenodd" fill="url(#SVGID_12_)" width="133.397" height="31.327" id="rect92"/>
		</g>
		<g id="g94">
			<defs id="defs96">
				<path id="SVGID_13_" d="M95.924,64.693c-0.508,0.644-1.162,1.312-1.989,1.997c-0.821,0.695-1.817,1.409-2.965,2.134      c-1.358,0.866-2.661,1.626-3.93,2.288c-1.272,0.662-2.495,1.227-3.668,1.679c-1.181,0.453-2.304,0.798-3.374,1.032      c-1.054,0.237-2.057,0.354-3.062,0.367c-1.008,0-2.069-0.118-3.188-0.361c-1.145-0.24-2.342-0.609-3.584-1.102      c-1.241-0.489-2.527-1.1-3.867-1.812c-1.315-0.721-2.674-1.544-4.078-2.479c-1.37-0.924-2.544-1.793-3.532-2.612      c-0.978-0.813-1.755-1.573-2.36-2.292c-0.593-0.714-1.008-1.37-1.24-1.998c-0.111-0.295-0.179-0.58-0.209-0.855      c-0.045,0.456,0.018,0.933,0.209,1.443c0.232,0.629,0.647,1.285,1.24,1.998c0.605,0.721,1.383,1.48,2.36,2.293      c0.988,0.819,2.162,1.688,3.532,2.612c1.404,0.934,2.763,1.76,4.078,2.479c1.34,0.714,2.626,1.323,3.867,1.81      c1.242,0.495,2.439,0.865,3.584,1.104c1.118,0.243,2.18,0.359,3.188,0.359c1.005-0.012,2.008-0.127,3.062-0.365      c1.07-0.233,2.193-0.58,3.374-1.032c1.173-0.453,2.396-1.018,3.668-1.678c1.269-0.662,2.571-1.423,3.93-2.288      c1.147-0.725,2.144-1.439,2.965-2.136c0.827-0.685,1.481-1.352,1.989-1.997c0.499-0.638,0.838-1.254,1.031-1.859      c0.138-0.473,0.184-0.928,0.146-1.375c-0.023,0.259-0.068,0.519-0.146,0.786C96.762,63.439,96.423,64.055,95.924,64.693z       M138.535,45.405c-0.315-0.876-0.913-1.756-1.79-2.653c-0.886-0.887-2.034-1.793-3.449-2.705      c-1.396-0.899-3.057-1.811-4.968-2.735c-1.872-0.911-3.996-1.822-7.239-3.098c-2.304-0.908-4.463-1.685-6.504-2.33      c-2.021-0.632-3.922-1.148-5.728-1.55c-1.79-0.395-3.488-0.673-5.095-0.848c-1.222-0.126-2.403-0.191-3.533-0.191      c-0.353,0-0.697,0.007-1.044,0.019c-1.106,0.04-2.243,0.158-3.404,0.348c-1.16,0.203-2.372,0.487-3.613,0.847      c-1.247,0.361-2.552,0.808-3.886,1.346c-1.352,0.542-2.748,1.169-4.515,2.051L68.312,41.55l-13.039,6.448      c-1.793,0.888-16.401,8.73-17.289,10.431c0.972-0.972,15.496-8.953,17.289-9.841l13.039-6.449l15.456-7.646      c1.767-0.879,3.163-1.508,4.515-2.05c1.334-0.54,2.639-0.984,3.886-1.345c1.241-0.359,2.453-0.646,3.613-0.847      c1.161-0.191,2.298-0.309,3.404-0.348c0.347-0.013,0.691-0.018,1.044-0.018c1.13,0,2.312,0.064,3.533,0.191      c1.606,0.175,3.305,0.453,5.095,0.849c1.806,0.399,3.706,0.916,5.728,1.55c2.041,0.645,4.2,1.421,6.504,2.328      c3.243,1.278,5.367,2.19,7.239,3.099c1.911,0.924,3.571,1.834,4.968,2.734c1.415,0.913,2.563,1.818,3.449,2.706      c0.877,0.899,1.475,1.775,1.79,2.653c0.114,0.318,0.18,0.646,0.206,0.98C138.783,46.431,138.715,45.906,138.535,45.405z       M125.575,45.16c-0.16,0.471-0.47,0.97-0.93,1.501c-0.447,0.543-1.062,1.117-1.819,1.715c-0.763,0.615-1.67,1.255-2.736,1.938      c-0.929,0.587-1.865,1.11-2.807,1.55c-0.944,0.447-1.889,0.817-2.826,1.114c-0.952,0.291-1.894,0.506-2.83,0.645      c-0.792,0.111-1.575,0.168-2.352,0.168c-0.145,0-0.294,0-0.435-0.01c-0.923-0.019-1.908-0.13-2.939-0.321      c-1.033-0.185-2.119-0.452-3.265-0.801c-1.128-0.348-2.314-0.778-3.537-1.282c-1.212-0.499-2.474-1.073-3.761-1.718      l-0.106-0.053l-0.105-0.052l-0.123-0.058l-0.099-0.052c-1.286-0.638-2.396-1.254-3.36-1.834      c-0.951-0.583-1.742-1.132-2.397-1.654c-0.637-0.529-1.137-1.026-1.482-1.502c-0.353-0.472-0.558-0.912-0.631-1.342      c-0.003-0.017-0.003-0.031-0.004-0.046c-0.033,0.215-0.028,0.426,0.004,0.634c0.073,0.429,0.278,0.872,0.631,1.34      c0.346,0.478,0.846,0.977,1.482,1.504c0.655,0.523,1.446,1.075,2.397,1.654c0.965,0.579,2.074,1.196,3.36,1.834l0.099,0.053      l0.123,0.057l0.105,0.054l0.106,0.051c1.287,0.646,2.549,1.22,3.761,1.718c1.223,0.505,2.409,0.935,3.537,1.282      c1.146,0.35,2.231,0.616,3.265,0.803c1.031,0.19,2.017,0.301,2.939,0.319c0.141,0.012,0.29,0.012,0.435,0.012      c0.776,0,1.56-0.057,2.352-0.168c0.937-0.141,1.878-0.354,2.83-0.646c0.938-0.296,1.882-0.667,2.826-1.112      c0.941-0.442,1.878-0.964,2.807-1.551c1.066-0.685,1.974-1.323,2.736-1.94c0.758-0.596,1.372-1.17,1.819-1.711      c0.46-0.533,0.77-1.033,0.93-1.503c0.13-0.376,0.161-0.728,0.11-1.065C125.661,44.84,125.63,44.997,125.575,45.16z       M109.16,61.09c0.625,1.174,0.979,2.356,1.051,3.552c0.004-0.172,0.016-0.347,0.007-0.518c-0.051-1.013-0.319-2.015-0.768-3.011      C109.354,61.104,109.259,61.101,109.16,61.09z M78.54,26.625c-0.519,0.389-1.174,0.795-1.95,1.225      c-0.786,0.435-1.706,0.894-2.757,1.383c-0.912,0.417-1.808,0.795-2.682,1.107c-0.88,0.318-1.74,0.591-2.58,0.8      c-0.846,0.215-1.668,0.373-2.451,0.471c-0.724,0.099-1.424,0.146-2.09,0.146h-0.203c-0.734-0.012-1.502-0.081-2.285-0.202      c-0.79-0.123-1.6-0.297-2.422-0.536c-0.834-0.238-1.674-0.522-2.539-0.859c-0.865-0.342-1.737-0.737-2.611-1.179l-0.075-0.034      l-0.081-0.041l-0.149-0.069c-0.883-0.449-1.641-0.865-2.265-1.272c-0.638-0.399-1.149-0.782-1.544-1.15      c-0.396-0.369-0.683-0.725-0.854-1.055c-0.078-0.152-0.128-0.298-0.158-0.443c-0.008,0.028-0.015,0.054-0.02,0.08      c-0.049,0.301,0.005,0.616,0.178,0.952c0.172,0.33,0.459,0.685,0.854,1.057c0.395,0.365,0.906,0.749,1.544,1.15      c0.624,0.407,1.382,0.823,2.265,1.27l0.149,0.069l0.081,0.041l0.075,0.036c0.874,0.441,1.746,0.834,2.611,1.177      c0.865,0.337,1.705,0.621,2.539,0.86c0.822,0.237,1.632,0.412,2.422,0.532c0.783,0.124,1.551,0.193,2.285,0.206h0.203      c0.666,0,1.366-0.047,2.09-0.147c0.783-0.097,1.605-0.253,2.451-0.469c0.84-0.208,1.7-0.482,2.58-0.801      c0.874-0.314,1.77-0.69,2.682-1.108c1.051-0.487,1.971-0.946,2.757-1.382c0.776-0.429,1.432-0.836,1.95-1.223      c0.52-0.384,0.909-0.739,1.181-1.076c0.26-0.329,0.408-0.638,0.428-0.924c0.003-0.11-0.018-0.225-0.05-0.343      c-0.064,0.215-0.191,0.441-0.378,0.679C79.449,25.888,79.06,26.244,78.54,26.625z M52.678,16.819      c1.247-0.401,2.439-0.743,3.568-1.022c1.134-0.278,2.213-0.493,3.237-0.645c1.021-0.156,1.991-0.254,2.922-0.29      c0.366-0.018,0.729-0.024,1.101-0.024c0.871,0,1.755,0.047,2.655,0.121c1.291,0.111,2.626,0.309,3.997,0.583      c1.391,0.282,2.823,0.656,4.313,1.108c1.498,0.452,3.076,1.01,4.705,1.644c2.311,0.912,3.775,1.56,5.059,2.205      c1.291,0.654,2.379,1.302,3.257,1.934c0.877,0.65,1.551,1.283,2.003,1.909c0.371,0.522,0.583,1.041,0.644,1.553      c0.015-0.089,0.027-0.178,0.028-0.266c0.004-0.616-0.221-1.242-0.672-1.876c-0.452-0.626-1.126-1.259-2.003-1.91      c-0.878-0.633-1.966-1.278-3.257-1.934c-1.283-0.643-2.748-1.293-5.059-2.206c-1.629-0.633-3.207-1.189-4.705-1.641      c-1.49-0.454-2.923-0.826-4.313-1.11c-1.371-0.273-2.706-0.471-3.997-0.58c-0.9-0.076-1.784-0.123-2.655-0.123      c-0.371,0-0.734,0.006-1.101,0.022c-0.931,0.037-1.901,0.134-2.922,0.291c-1.024,0.152-2.104,0.366-3.237,0.646      c-1.129,0.278-2.321,0.621-3.568,1.021c-1.261,0.407-2.579,0.876-4.263,1.538l-13.151,5.091l-2.23,0.865L5.959,34.236      c-0.154,0.063-0.284,0.127-0.376,0.19c-0.1,0.07-0.173,0.128-0.2,0.197c-0.035,0.063-0.035,0.128,0,0.192      c0.027,0.069,0.095,0.14,0.186,0.202l0.007,0.004c0.002-0.003,0.003-0.006,0.008-0.007c0.092-0.063,0.222-0.127,0.376-0.192      l27.074-10.511l2.23-0.864l13.151-5.092C50.099,17.694,51.417,17.226,52.678,16.819z"/>
			</defs>
			<clipPath id="SVGID_14_">
				<use xlink:href="#SVGID_13_" overflow="visible" id="use100"/>
			</clipPath>
			
				
			
				<linearGradient id="SVGID_15_" gradientUnits="userSpaceOnUse" x1="1755.7598" y1="-1512.229" x2="1762.6465" y2="-1537.9305" gradientTransform="matrix(1 0 0 1 -1692 1584)">
				<stop offset="0" style="stop-color:#F15F66" id="stop105"/>
				<stop offset="1" style="stop-color:#F26F66" id="stop107"/>
			</linearGradient>
			<polygon clip-path="url(#SVGID_14_)" fill-rule="evenodd" clip-rule="evenodd" fill="url(#SVGID_15_)" points="0,54.687      6.887,28.985 134.406,63.154 127.52,88.855    " id="polygon109"/>
			
				<linearGradient id="SVGID_16_" gradientUnits="userSpaceOnUse" x1="1762.6475" y1="-1537.9351" x2="1762.7942" y2="-1538.4829" gradientTransform="matrix(1 0 0 1 -1692 1584)">
				<stop offset="0" style="stop-color:#F26F66" id="stop112"/>
				<stop offset="1" style="stop-color:#F4848B" id="stop114"/>
			</linearGradient>
			<polygon clip-path="url(#SVGID_14_)" fill-rule="evenodd" clip-rule="evenodd" fill="url(#SVGID_16_)" points="6.887,28.985      7.033,28.438 134.553,62.606 134.406,63.154    " id="polygon116"/>
			
				<linearGradient id="SVGID_17_" gradientUnits="userSpaceOnUse" x1="1762.793" y1="-1538.478" x2="1768.068" y2="-1558.1649" gradientTransform="matrix(1 0 0 1 -1692 1584)">
				<stop offset="0" style="stop-color:#F4848B" id="stop119"/>
				<stop offset="1" style="stop-color:#FFFFFF" id="stop121"/>
			</linearGradient>
			<polygon clip-path="url(#SVGID_14_)" clip-rule="evenodd" points="7.033,28.438      12.309,8.751 139.828,42.92 134.553,62.606    " id="polygon123" fill-rule="evenodd" fill="url(#SVGID_17_)"/>
		</g>
		<path d="M478.642,61.798h-0.371V60.82c0.079-0.02,0.229-0.04,0.437-0.04c0.498,0,0.73,0.208,0.73,0.521    C479.438,61.655,479.084,61.798,478.642,61.798z M479.582,62.05v-0.04c0.396-0.126,0.705-0.4,0.705-0.812    c0-0.335-0.143-0.584-0.348-0.731c-0.238-0.166-0.527-0.271-1.172-0.271c-0.563,0-1,0.063-1.316,0.105v3.417h0.795v-1.355h0.378    c0.431,0,0.646,0.168,0.708,0.521c0.105,0.416,0.17,0.709,0.273,0.833h0.826c-0.057-0.125-0.145-0.311-0.248-0.833    C480.08,62.425,479.911,62.156,479.582,62.05z M478.642,61.798h-0.371V60.82c0.079-0.02,0.229-0.04,0.437-0.04    c0.498,0,0.73,0.208,0.73,0.521C479.438,61.655,479.084,61.798,478.642,61.798z M479.582,62.05v-0.04    c0.396-0.126,0.705-0.4,0.705-0.812c0-0.335-0.143-0.584-0.348-0.731c-0.238-0.166-0.527-0.271-1.172-0.271    c-0.563,0-1,0.063-1.316,0.105v3.417h0.795v-1.355h0.378c0.431,0,0.646,0.168,0.708,0.521c0.105,0.416,0.17,0.709,0.273,0.833    h0.826c-0.057-0.125-0.145-0.311-0.248-0.833C480.08,62.425,479.911,62.156,479.582,62.05z M478.642,61.798h-0.371V60.82    c0.079-0.02,0.229-0.04,0.437-0.04c0.498,0,0.73,0.208,0.73,0.521C479.438,61.655,479.084,61.798,478.642,61.798z M479.582,62.05    v-0.04c0.396-0.126,0.705-0.4,0.705-0.812c0-0.335-0.143-0.584-0.348-0.731c-0.238-0.166-0.527-0.271-1.172-0.271    c-0.563,0-1,0.063-1.316,0.105v3.417h0.795v-1.355h0.378c0.431,0,0.646,0.168,0.708,0.521c0.105,0.416,0.17,0.709,0.273,0.833    h0.826c-0.057-0.125-0.145-0.311-0.248-0.833C480.08,62.425,479.911,62.156,479.582,62.05z M478.642,61.798h-0.371V60.82    c0.079-0.02,0.229-0.04,0.437-0.04c0.498,0,0.73,0.208,0.73,0.521C479.438,61.655,479.084,61.798,478.642,61.798z M479.582,62.05    v-0.04c0.396-0.126,0.705-0.4,0.705-0.812c0-0.335-0.143-0.584-0.348-0.731c-0.238-0.166-0.527-0.271-1.172-0.271    c-0.563,0-1,0.063-1.316,0.105v3.417h0.795v-1.355h0.378c0.431,0,0.646,0.168,0.708,0.521c0.105,0.416,0.17,0.709,0.273,0.833    h0.826c-0.057-0.125-0.145-0.311-0.248-0.833C480.08,62.425,479.911,62.156,479.582,62.05z M479.582,62.05v-0.04    c0.396-0.126,0.705-0.4,0.705-0.812c0-0.335-0.143-0.584-0.348-0.731c-0.238-0.166-0.527-0.271-1.172-0.271    c-0.563,0-1,0.063-1.316,0.105v3.417h0.795v-1.355h0.378c0.431,0,0.646,0.168,0.708,0.521c0.105,0.416,0.17,0.709,0.273,0.833    h0.826c-0.057-0.125-0.145-0.311-0.248-0.833C480.08,62.425,479.911,62.156,479.582,62.05z M478.642,61.798h-0.371V60.82    c0.079-0.02,0.229-0.04,0.437-0.04c0.498,0,0.73,0.208,0.73,0.521C479.438,61.655,479.084,61.798,478.642,61.798z M478.807,64.678    c-1.52,0-2.665-1.21-2.665-2.729c0-1.504,1.146-2.734,2.626-2.734h0.019c1.501,0,2.63,1.23,2.63,2.752    C481.416,63.467,480.287,64.698,478.807,64.678z M478.807,58.527h-0.021c-1.95,0-3.519,1.504-3.519,3.422    c0,1.914,1.568,3.438,3.519,3.438c1.96,0,3.503-1.524,3.503-3.438C482.289,60.031,480.746,58.527,478.807,58.527z M478.807,64.678    c-1.52,0-2.665-1.21-2.665-2.729c0-1.504,1.146-2.734,2.626-2.734h0.019c1.501,0,2.63,1.23,2.63,2.752    C481.416,63.467,480.287,64.698,478.807,64.678z M478.807,58.527h-0.021c-1.95,0-3.519,1.504-3.519,3.422    c0,1.914,1.568,3.438,3.519,3.438c1.96,0,3.503-1.524,3.503-3.438C482.289,60.031,480.746,58.527,478.807,58.527z M478.807,64.678    c-1.52,0-2.665-1.21-2.665-2.729c0-1.504,1.146-2.734,2.626-2.734h0.019c1.501,0,2.63,1.23,2.63,2.752    C481.416,63.467,480.287,64.698,478.807,64.678z M478.807,58.527h-0.021c-1.95,0-3.519,1.504-3.519,3.422    c0,1.914,1.568,3.438,3.519,3.438c1.96,0,3.503-1.524,3.503-3.438C482.289,60.031,480.746,58.527,478.807,58.527z M478.807,64.678    c-1.52,0-2.665-1.21-2.665-2.729c0-1.504,1.146-2.734,2.626-2.734h0.019c1.501,0,2.63,1.23,2.63,2.752    C481.416,63.467,480.287,64.698,478.807,64.678z M478.807,58.527h-0.021c-1.95,0-3.519,1.504-3.519,3.422    c0,1.914,1.568,3.438,3.519,3.438c1.96,0,3.503-1.524,3.503-3.438C482.289,60.031,480.746,58.527,478.807,58.527z M478.807,58.527    h-0.021c-1.95,0-3.519,1.504-3.519,3.422c0,1.914,1.568,3.438,3.519,3.438c1.96,0,3.503-1.524,3.503-3.438    C482.289,60.031,480.746,58.527,478.807,58.527z M478.807,64.678c-1.52,0-2.665-1.21-2.665-2.729c0-1.504,1.146-2.734,2.626-2.734    h0.019c1.501,0,2.63,1.23,2.63,2.752C481.416,63.467,480.287,64.698,478.807,64.678z M478.642,61.798h-0.371V60.82    c0.079-0.02,0.229-0.04,0.437-0.04c0.498,0,0.73,0.208,0.73,0.521C479.438,61.655,479.084,61.798,478.642,61.798z M479.582,62.05    v-0.04c0.396-0.126,0.705-0.4,0.705-0.812c0-0.335-0.143-0.584-0.348-0.731c-0.238-0.166-0.527-0.271-1.172-0.271    c-0.563,0-1,0.063-1.316,0.105v3.417h0.795v-1.355h0.378c0.431,0,0.646,0.168,0.708,0.521c0.105,0.416,0.17,0.709,0.273,0.833    h0.826c-0.057-0.125-0.145-0.311-0.248-0.833C480.08,62.425,479.911,62.156,479.582,62.05z M478.642,61.798h-0.371V60.82    c0.079-0.02,0.229-0.04,0.437-0.04c0.498,0,0.73,0.208,0.73,0.521C479.438,61.655,479.084,61.798,478.642,61.798z M479.582,62.05    v-0.04c0.396-0.126,0.705-0.4,0.705-0.812c0-0.335-0.143-0.584-0.348-0.731c-0.238-0.166-0.527-0.271-1.172-0.271    c-0.563,0-1,0.063-1.316,0.105v3.417h0.795v-1.355h0.378c0.431,0,0.646,0.168,0.708,0.521c0.105,0.416,0.17,0.709,0.273,0.833    h0.826c-0.057-0.125-0.145-0.311-0.248-0.833C480.08,62.425,479.911,62.156,479.582,62.05z M478.642,61.798h-0.371V60.82    c0.079-0.02,0.229-0.04,0.437-0.04c0.498,0,0.73,0.208,0.73,0.521C479.438,61.655,479.084,61.798,478.642,61.798z M479.582,62.05    v-0.04c0.396-0.126,0.705-0.4,0.705-0.812c0-0.335-0.143-0.584-0.348-0.731c-0.238-0.166-0.527-0.271-1.172-0.271    c-0.563,0-1,0.063-1.316,0.105v3.417h0.795v-1.355h0.378c0.431,0,0.646,0.168,0.708,0.521c0.105,0.416,0.17,0.709,0.273,0.833    h0.826c-0.057-0.125-0.145-0.311-0.248-0.833C480.08,62.425,479.911,62.156,479.582,62.05z M479.582,62.05v-0.04    c0.396-0.126,0.705-0.4,0.705-0.812c0-0.335-0.143-0.584-0.348-0.731c-0.238-0.166-0.527-0.271-1.172-0.271    c-0.563,0-1,0.063-1.316,0.105v3.417h0.795v-1.355h0.378c0.431,0,0.646,0.168,0.708,0.521c0.105,0.416,0.17,0.709,0.273,0.833    h0.826c-0.057-0.125-0.145-0.311-0.248-0.833C480.08,62.425,479.911,62.156,479.582,62.05z M478.642,61.798h-0.371V60.82    c0.079-0.02,0.229-0.04,0.437-0.04c0.498,0,0.73,0.208,0.73,0.521C479.438,61.655,479.084,61.798,478.642,61.798z M478.807,64.678    c-1.52,0-2.665-1.21-2.665-2.729c0-1.504,1.146-2.734,2.626-2.734h0.019c1.501,0,2.63,1.23,2.63,2.752    C481.416,63.467,480.287,64.698,478.807,64.678z M478.807,58.527h-0.021c-1.95,0-3.519,1.504-3.519,3.422    c0,1.914,1.568,3.438,3.519,3.438c1.96,0,3.503-1.524,3.503-3.438C482.289,60.031,480.746,58.527,478.807,58.527z M478.807,64.678    c-1.52,0-2.665-1.21-2.665-2.729c0-1.504,1.146-2.734,2.626-2.734h0.019c1.501,0,2.63,1.23,2.63,2.752    C481.416,63.467,480.287,64.698,478.807,64.678z M478.807,58.527h-0.021c-1.95,0-3.519,1.504-3.519,3.422    c0,1.914,1.568,3.438,3.519,3.438c1.96,0,3.503-1.524,3.503-3.438C482.289,60.031,480.746,58.527,478.807,58.527z M478.807,64.678    c-1.52,0-2.665-1.21-2.665-2.729c0-1.504,1.146-2.734,2.626-2.734h0.019c1.501,0,2.63,1.23,2.63,2.752    C481.416,63.467,480.287,64.698,478.807,64.678z M478.807,58.527h-0.021c-1.95,0-3.519,1.504-3.519,3.422    c0,1.914,1.568,3.438,3.519,3.438c1.96,0,3.503-1.524,3.503-3.438C482.289,60.031,480.746,58.527,478.807,58.527z M478.807,58.527    h-0.021c-1.95,0-3.519,1.504-3.519,3.422c0,1.914,1.568,3.438,3.519,3.438c1.96,0,3.503-1.524,3.503-3.438    C482.289,60.031,480.746,58.527,478.807,58.527z M478.807,64.678c-1.52,0-2.665-1.21-2.665-2.729c0-1.504,1.146-2.734,2.626-2.734    h0.019c1.501,0,2.63,1.23,2.63,2.752C481.416,63.467,480.287,64.698,478.807,64.678z M478.642,61.798h-0.371V60.82    c0.079-0.02,0.229-0.04,0.437-0.04c0.498,0,0.73,0.208,0.73,0.521C479.438,61.655,479.084,61.798,478.642,61.798z M479.582,62.05    v-0.04c0.396-0.126,0.705-0.4,0.705-0.812c0-0.335-0.143-0.584-0.348-0.731c-0.238-0.166-0.527-0.271-1.172-0.271    c-0.563,0-1,0.063-1.316,0.105v3.417h0.795v-1.355h0.378c0.431,0,0.646,0.168,0.708,0.521c0.105,0.416,0.17,0.709,0.273,0.833    h0.826c-0.057-0.125-0.145-0.311-0.248-0.833C480.08,62.425,479.911,62.156,479.582,62.05z M478.642,61.798h-0.371V60.82    c0.079-0.02,0.229-0.04,0.437-0.04c0.498,0,0.73,0.208,0.73,0.521C479.438,61.655,479.084,61.798,478.642,61.798z M479.582,62.05    v-0.04c0.396-0.126,0.705-0.4,0.705-0.812c0-0.335-0.143-0.584-0.348-0.731c-0.238-0.166-0.527-0.271-1.172-0.271    c-0.563,0-1,0.063-1.316,0.105v3.417h0.795v-1.355h0.378c0.431,0,0.646,0.168,0.708,0.521c0.105,0.416,0.17,0.709,0.273,0.833    h0.826c-0.057-0.125-0.145-0.311-0.248-0.833C480.08,62.425,479.911,62.156,479.582,62.05z M479.582,62.05v-0.04    c0.396-0.126,0.705-0.4,0.705-0.812c0-0.335-0.143-0.584-0.348-0.731c-0.238-0.166-0.527-0.271-1.172-0.271    c-0.563,0-1,0.063-1.316,0.105v3.417h0.795v-1.355h0.378c0.431,0,0.646,0.168,0.708,0.521c0.105,0.416,0.17,0.709,0.273,0.833    h0.826c-0.057-0.125-0.145-0.311-0.248-0.833C480.08,62.425,479.911,62.156,479.582,62.05z M478.642,61.798h-0.371V60.82    c0.079-0.02,0.229-0.04,0.437-0.04c0.498,0,0.73,0.208,0.73,0.521C479.438,61.655,479.084,61.798,478.642,61.798z M478.807,64.678    c-1.52,0-2.665-1.21-2.665-2.729c0-1.504,1.146-2.734,2.626-2.734h0.019c1.501,0,2.63,1.23,2.63,2.752    C481.416,63.467,480.287,64.698,478.807,64.678z M478.807,58.527h-0.021c-1.95,0-3.519,1.504-3.519,3.422    c0,1.914,1.568,3.438,3.519,3.438c1.96,0,3.503-1.524,3.503-3.438C482.289,60.031,480.746,58.527,478.807,58.527z M478.807,64.678    c-1.52,0-2.665-1.21-2.665-2.729c0-1.504,1.146-2.734,2.626-2.734h0.019c1.501,0,2.63,1.23,2.63,2.752    C481.416,63.467,480.287,64.698,478.807,64.678z M478.807,58.527h-0.021c-1.95,0-3.519,1.504-3.519,3.422    c0,1.914,1.568,3.438,3.519,3.438c1.96,0,3.503-1.524,3.503-3.438C482.289,60.031,480.746,58.527,478.807,58.527z M478.807,58.527    h-0.021c-1.95,0-3.519,1.504-3.519,3.422c0,1.914,1.568,3.438,3.519,3.438c1.96,0,3.503-1.524,3.503-3.438    C482.289,60.031,480.746,58.527,478.807,58.527z M478.807,64.678c-1.52,0-2.665-1.21-2.665-2.729c0-1.504,1.146-2.734,2.626-2.734    h0.019c1.501,0,2.63,1.23,2.63,2.752C481.416,63.467,480.287,64.698,478.807,64.678z M478.642,61.798h-0.371V60.82    c0.079-0.02,0.229-0.04,0.437-0.04c0.498,0,0.73,0.208,0.73,0.521C479.438,61.655,479.084,61.798,478.642,61.798z M479.582,62.05    v-0.04c0.396-0.126,0.705-0.4,0.705-0.812c0-0.335-0.143-0.584-0.348-0.731c-0.238-0.166-0.527-0.271-1.172-0.271    c-0.563,0-1,0.063-1.316,0.105v3.417h0.795v-1.355h0.378c0.431,0,0.646,0.168,0.708,0.521c0.105,0.416,0.17,0.709,0.273,0.833    h0.826c-0.057-0.125-0.145-0.311-0.248-0.833C480.08,62.425,479.911,62.156,479.582,62.05z M479.582,62.05v-0.04    c0.396-0.126,0.705-0.4,0.705-0.812c0-0.335-0.143-0.584-0.348-0.731c-0.238-0.166-0.527-0.271-1.172-0.271    c-0.563,0-1,0.063-1.316,0.105v3.417h0.795v-1.355h0.378c0.431,0,0.646,0.168,0.708,0.521c0.105,0.416,0.17,0.709,0.273,0.833    h0.826c-0.057-0.125-0.145-0.311-0.248-0.833C480.08,62.425,479.911,62.156,479.582,62.05z M478.642,61.798h-0.371V60.82    c0.079-0.02,0.229-0.04,0.437-0.04c0.498,0,0.73,0.208,0.73,0.521C479.438,61.655,479.084,61.798,478.642,61.798z M478.807,64.678    c-1.52,0-2.665-1.21-2.665-2.729c0-1.504,1.146-2.734,2.626-2.734h0.019c1.501,0,2.63,1.23,2.63,2.752    C481.416,63.467,480.287,64.698,478.807,64.678z M478.807,58.527h-0.021c-1.95,0-3.519,1.504-3.519,3.422    c0,1.914,1.568,3.438,3.519,3.438c1.96,0,3.503-1.524,3.503-3.438C482.289,60.031,480.746,58.527,478.807,58.527z M478.807,58.527    h-0.021c-1.95,0-3.519,1.504-3.519,3.422c0,1.914,1.568,3.438,3.519,3.438c1.96,0,3.503-1.524,3.503-3.438    C482.289,60.031,480.746,58.527,478.807,58.527z M478.807,64.678c-1.52,0-2.665-1.21-2.665-2.729c0-1.504,1.146-2.734,2.626-2.734    h0.019c1.501,0,2.63,1.23,2.63,2.752C481.416,63.467,480.287,64.698,478.807,64.678z M478.807,58.527h-0.021    c-1.95,0-3.519,1.504-3.519,3.422c0,1.914,1.568,3.438,3.519,3.438c1.96,0,3.503-1.524,3.503-3.438    C482.289,60.031,480.746,58.527,478.807,58.527z M478.807,64.678c-1.52,0-2.665-1.21-2.665-2.729c0-1.504,1.146-2.734,2.626-2.734    h0.019c1.501,0,2.63,1.23,2.63,2.752C481.416,63.467,480.287,64.698,478.807,64.678z M479.582,62.05v-0.04    c0.396-0.126,0.705-0.4,0.705-0.812c0-0.335-0.143-0.584-0.348-0.731c-0.238-0.166-0.527-0.271-1.172-0.271    c-0.563,0-1,0.063-1.316,0.105v3.417h0.795v-1.355h0.378c0.431,0,0.646,0.168,0.708,0.521c0.105,0.416,0.17,0.709,0.273,0.833    h0.826c-0.057-0.125-0.145-0.311-0.248-0.833C480.08,62.425,479.911,62.156,479.582,62.05z M478.642,61.798h-0.371V60.82    c0.079-0.02,0.229-0.04,0.437-0.04c0.498,0,0.73,0.208,0.73,0.521C479.438,61.655,479.084,61.798,478.642,61.798z" id="path125"/>
		<g id="g127">
			<g id="g129">
				<path d="M255.18,64.61c0,0.495-0.261,0.74-0.758,0.74h-5.515c-0.563,0-0.832-0.245-0.832-0.74V26.336      c0-1.938,1.045-2.896,3.134-2.896h3.213c0.497,0,0.758,0.247,0.758,0.749V64.61z" id="path131"/>
				<path d="M276.41,64.771c0,0.382-0.245,0.579-0.728,0.579h-6.831c-0.603,0-1.117-0.245-1.547-0.74l-11.257-12.903      c-0.726-0.843-1.087-1.672-1.087-2.488c0-0.845,0.361-1.6,1.087-2.247l11.257-10.205c0.43-0.387,0.944-0.586,1.547-0.586h6.651      c0.436,0,0.645,0.199,0.645,0.586c0,0.341-0.094,0.557-0.292,0.68l-13.521,11.614l13.715,14.901      C276.273,64.426,276.388,64.703,276.41,64.771z" id="path133"/>
			</g>
			<path d="M461.738,64.61c0,0.495-0.25,0.74-0.75,0.74h-5.516c-0.549,0-0.824-0.245-0.824-0.74V26.336     c0-1.938,1.047-2.896,3.13-2.896h3.21c0.5,0,0.75,0.247,0.75,0.749V64.61z" id="path135"/>
			<path d="M473.031,64.61c0,0.495-0.256,0.74-0.742,0.74h-5.522c-0.544,0-0.825-0.245-0.825-0.74V26.336     c0-1.938,1.045-2.896,3.143-2.896h3.205c0.486,0,0.742,0.247,0.742,0.749V64.61z" id="path137"/>
			<path d="M331.826,40.823c0,0.491-0.293,0.736-0.878,0.736c-0.659-0.066-2.966-0.111-6.944-0.111c-3.414,0-5.137,1.34-5.137,3.995     v19.142c0,0.521-0.288,0.791-0.871,0.791h-5.431c-0.578,0-0.866-0.271-0.866-0.791V46.498c0-7.081,4.187-10.605,12.601-10.605     c4.044,0,6.383,0.264,7.009,0.791c0.338,0.27,0.518,0.79,0.518,1.51V40.823z" id="path139"/>
			<path d="M427.66,53.419c0,0,6.781,0.586,13.427-0.316c6.63-0.911,10.55-3.999,10.55-8.604c0-5.73-4.953-8.606-14.873-8.606     c-5.217,0-9.059,1.036-11.551,3.092c-2.834,2.345-4.26,6.18-4.26,11.495c0,5.073,1.064,8.749,3.209,11.068     c2.518,2.723,6.846,4.095,12.951,4.095c6.848,0,10.717-0.305,11.603-0.898c0.709-0.307,1.001-0.919,0.884-1.833V60.29     c0-0.462-0.291-0.669-0.884-0.625l-4.077,0.204c-2.724,0.168-4.886,0.258-6.479,0.258c-5.559,0-8.752-1.678-9.57-5.035     c-0.545-2.789-0.523-4.778-0.523-4.778v-1.043c0-3.08,0.678-5.207,2.02-6.363c1.336-1.188,3.736-1.773,7.201-1.773     c4.779,0,7.178,1.18,7.178,3.522c0,1.399-0.665,2.4-1.982,2.991c-0.699,0.313-2.357,0.814-4.146,1     c-3.9,0.387-10.706,0.176-10.706,0.176L427.66,53.419z" id="path141"/>
			<path d="M245.982,63.282c0.074,1.391-1.434,2.231-4.49,2.508c-1.093,0.098-4.382,0.142-7.094,0.142     c-10.645,0-15.959-5.185-15.959-15.581c0-8.799,4.522-13.537,13.581-14.217c0.759-0.058,2.707-0.185,4.58-0.208     c1.866-0.023,3.853,0.121,5.103,0.213c2.195,0.159,4.125,0.661,4.125,2.562v2.618c0,0.375-0.207,0.572-0.634,0.572     c-0.919,0-4.609-0.521-8.197-0.43c-3.771,0.092-7.74,0.624-9.146,1.9c-1.416,1.272-2.13,3.594-2.13,6.989     c0,3.674,0.623,6.21,1.852,7.605c1.414,1.525,5.476,2.271,9.424,2.271c1.543,0,3.275-0.067,5.178-0.229l2.865-0.189     c0.483-0.038,0.757,0.197,0.788,0.709L245.982,63.282z" id="path143"/>
			<path d="M309.1,51.108c0-5.283-0.95-8.975-2.857-11.074c-2.489-2.757-7.084-4.141-13.826-4.141c-0.107,0-0.211,0-0.332,0.005     c-0.096-0.005-0.212-0.005-0.317-0.005c-6.729,0-11.348,1.384-13.826,4.141c-1.917,2.099-2.867,5.791-2.867,11.074     c0,9.689,5.391,14.535,16.163,14.535c0.292,0,0.571,0,0.848-0.009c0.292,0.009,0.57,0.009,0.857,0.009     c3.837,0,6.983-0.62,9.451-1.848c0.437,0.964,1.36,1.452,2.794,1.452h3.221c0.46,0,0.688-0.224,0.688-0.636V51.407l0,0     C309.096,51.302,309.1,51.202,309.1,51.108z M292.245,60.127c-0.028,0-0.049,0-0.067,0l0,0c-0.041,0-0.068,0-0.094,0     c-0.012,0-0.058,0-0.09,0l0,0c-0.006,0-0.034,0-0.048,0c-3.738,0-6.313-0.646-7.746-1.935c-1.423-1.285-2.13-3.596-2.13-6.929     c0-3.844,0.614-6.42,1.82-7.709c1.309-1.402,4.053-2.106,8.193-2.106c4.15,0,6.889,0.704,8.206,2.106     c1.205,1.289,1.821,3.865,1.821,7.709c0,3.333-0.723,5.644-2.141,6.929C298.553,59.481,295.977,60.127,292.245,60.127z" id="path145"/>
			<path d="M216.649,51.108c0-5.283-0.959-8.975-2.869-11.074c-2.482-2.757-7.092-4.141-13.828-4.141c-0.097,0-0.217,0-0.324,0.005     c-0.11-0.005-0.216-0.005-0.333-0.005c-6.716,0-11.331,1.384-13.825,4.141c-1.896,2.099-2.856,5.791-2.856,11.074     c0,9.689,5.391,14.535,16.164,14.535c0.287,0,0.569,0,0.851-0.009c0.275,0.009,0.563,0.009,0.853,0.009     c3.837,0,6.981-0.62,9.447-1.848c0.446,0.964,1.37,1.452,2.804,1.452h3.206c0.475,0,0.702-0.224,0.702-0.636V51.407l0,0     C216.64,51.302,216.649,51.202,216.649,51.108z M199.776,60.127c-0.019,0-0.046,0-0.068,0l0,0c-0.023,0-0.055,0-0.08,0     s-0.055,0-0.086,0l0,0c-0.021,0-0.046,0-0.068,0c-3.725,0-6.309-0.646-7.728-1.935c-1.41-1.285-2.13-3.596-2.13-6.929     c0-3.844,0.601-6.42,1.811-7.709c1.317-1.402,4.056-2.106,8.201-2.106c4.149,0,6.89,0.704,8.215,2.106     c1.202,1.289,1.795,3.865,1.795,7.709c0,3.333-0.708,5.644-2.124,6.929C206.095,59.481,203.518,60.127,199.776,60.127z" id="path147"/>
			<path d="M402.675,35.905h-1.767c-3.955,0-7.195,0.61-9.754,1.834V26.447c0-2.061-1.027-3.101-3.084-3.101h-3.053     c-0.556,0-0.831,0.249-0.831,0.731v14.129h0.021v11.946l0,0c0,0.095-0.009,0.198-0.009,0.304c0,5.283,0.989,8.977,2.956,11.075     c2.576,2.761,7.35,4.146,14.315,4.146c0.104,0,0.21,0,0.325,0c0.117,0,0.226,0,0.338,0c6.962,0,11.717-1.385,14.295-4.146     c1.973-2.099,2.964-5.792,2.964-11.075C419.392,40.745,413.818,35.905,402.675,35.905z M410.279,58.017     c-1.375,1.388-4.189,2.094-8.484,2.099c-4.287-0.005-7.121-0.711-8.483-2.099c-1.243-1.296-1.866-3.87-1.866-7.724     c0-3.333,0.73-5.637,2.204-6.932c1.458-1.296,4.126-1.945,7.993-1.945h0.314c3.862,0,6.525,0.649,7.984,1.945     c1.475,1.295,2.193,3.6,2.193,6.932C412.135,54.147,411.531,56.721,410.279,58.017z" id="path149"/>
			<path d="M330.925,50.456c0,5.283,0.997,8.977,2.962,11.075c2.588,2.761,7.337,4.146,14.308,4.146c0.101,0,0.21,0,0.331,0     c0.117,0,0.229,0,0.337,0c6.961,0,11.729-1.385,14.303-4.146c1.964-2.099,2.952-5.792,2.952-11.075     c0-0.105-0.008-0.209-0.008-0.304l0,0V38.206h0.029V24.077c0-0.482-0.285-0.731-0.822-0.731h-3.063     c-2.056,0-3.094,1.04-3.094,3.101v11.292c-2.551-1.225-5.797-1.834-9.744-1.834h-1.779     C336.51,35.905,330.925,40.745,330.925,50.456z M338.166,50.293c0-3.333,0.74-5.637,2.213-6.932     c1.466-1.296,4.129-1.945,7.984-1.945h0.313c3.863,0,6.533,0.649,7.999,1.945c1.466,1.295,2.204,3.6,2.204,6.932     c0,3.854-0.619,6.428-1.862,7.724c-1.382,1.388-4.202,2.094-8.491,2.099c-4.291-0.005-7.119-0.711-8.484-2.099     C338.795,56.721,338.166,54.147,338.166,50.293z" id="path151"/>
			<path d="M177.46,39.972c-2.587-2.754-7.337-4.138-14.3-4.138c-0.113,0-0.225,0-0.332,0c-0.122,0-0.239,0-0.339,0     c-6.964,0-11.728,1.384-14.309,4.138c-1.968,2.113-2.952,5.797-2.952,11.092c0,0.1,0.009,0.199,0.009,0.299h-0.009l-0.008,26.077     c0,0.475,0.27,0.715,0.821,0.715h3.06c2.059,0,3.085-1.03,3.085-3.087l-0.017-11.313c2.551,1.243,5.81,1.855,9.775,1.855h1.761     c11.141,0,16.706-4.847,16.706-14.547C180.412,45.77,179.428,42.085,177.46,39.972z M170.98,58.148     c-1.479,1.296-4.145,1.946-8.002,1.946h-0.315c-3.854,0-6.525-0.649-7.99-1.946c-1.463-1.284-2.201-3.594-2.201-6.933     c0-3.848,0.625-6.428,1.867-7.716c1.369-1.402,4.197-2.094,8.489-2.094c4.281,0,7.116,0.692,8.479,2.094     c1.245,1.288,1.866,3.868,1.866,7.716C173.173,54.554,172.438,56.864,170.98,58.148z" id="path153"/>
		</g>
	</g>
</g>
</svg>