<?xml version="1.0" encoding="UTF-8" standalone="no"?>
<!-- Created with Inkscape (http://www.inkscape.org/) -->
<svg xmlns:dc="http://purl.org/dc/elements/1.1/" xmlns:cc="http://creativecommons.org/ns#" xmlns:rdf="http://www.w3.org/1999/02/22-rdf-syntax-ns#" xmlns:svg="http://www.w3.org/2000/svg" xmlns="http://www.w3.org/2000/svg" xmlns:sodipodi="http://sodipodi.sourceforge.net/DTD/sodipodi-0.dtd" xmlns:inkscape="http://www.inkscape.org/namespaces/inkscape" id="svg2985" version="1.1" inkscape:version="0.48.2 r9819" width="400" height="61.094898" xml:space="preserve" sodipodi:docname="ws_guide_dk.pdf"><metadata id="metadata2991"><rdf:RDF><cc:Work rdf:about=""><dc:format>image/svg+xml</dc:format><dc:type rdf:resource="http://purl.org/dc/dcmitype/StillImage"/><dc:title/></cc:Work></rdf:RDF></metadata><defs id="defs2989"><clipPath clipPathUnits="userSpaceOnUse" id="clipPath2999"><path d="m -9.921,466.339 76.945,0 0,-480.106 -76.945,0 0,480.106 z" clip-rule="evenodd" id="path3001" inkscape:connector-curvature="0"/></clipPath><clipPath clipPathUnits="userSpaceOnUse" id="clipPath3005"><path d="m 0,462 680.315,0 0,-462.047 L 0,-0.047 0,462 z" id="path3007" inkscape:connector-curvature="0"/></clipPath><clipPath clipPathUnits="userSpaceOnUse" id="clipPath3011"><path d="m 0.015,462.075 680.31,0 0,-462.06 -680.31,0 0,462.06 z" id="path3013" inkscape:connector-curvature="0"/></clipPath><clipPath clipPathUnits="userSpaceOnUse" id="clipPath3021"><path d="m 0,462 680.315,0 0,-462.047 L 0,-0.047 0,462 z" id="path3023" inkscape:connector-curvature="0"/></clipPath><clipPath clipPathUnits="userSpaceOnUse" id="clipPath3027"><path d="m 0.015,462.075 680.31,0 0,-462.06 -680.31,0 0,462.06 z" id="path3029" inkscape:connector-curvature="0"/></clipPath><clipPath clipPathUnits="userSpaceOnUse" id="clipPath3351"><path d="m 0,462 680.315,0 0,-462.047 L 0,-0.047 0,462 z" id="path3353" inkscape:connector-curvature="0"/></clipPath><clipPath clipPathUnits="userSpaceOnUse" id="clipPath3357"><path d="m 0.015,462.075 680.31,0 0,-462.06 -680.31,0 0,462.06 z" id="path3359" inkscape:connector-curvature="0"/></clipPath><clipPath clipPathUnits="userSpaceOnUse" id="clipPath3391"><path d="m 0,36.5 145,0 0,-50.72 -145,0 0,50.72 z" clip-rule="evenodd" id="path3393" inkscape:connector-curvature="0"/></clipPath><clipPath clipPathUnits="userSpaceOnUse" id="clipPath3397"><path d="m 0,462 680.315,0 0,-462.047 L 0,-0.047 0,462 z" id="path3399" inkscape:connector-curvature="0"/></clipPath><clipPath clipPathUnits="userSpaceOnUse" id="clipPath3403"><path d="m 0.015,462.075 680.31,0 0,-462.06 -680.31,0 0,462.06 z" id="path3405" inkscape:connector-curvature="0"/></clipPath><clipPath clipPathUnits="userSpaceOnUse" id="clipPath3413"><path d="m 0,462 680.315,0 0,-462.047 L 0,-0.047 0,462 z" id="path3415" inkscape:connector-curvature="0"/></clipPath><clipPath clipPathUnits="userSpaceOnUse" id="clipPath3419"><path d="m 0.015,462.075 680.31,0 0,-462.06 -680.31,0 0,462.06 z" id="path3421" inkscape:connector-curvature="0"/></clipPath><clipPath clipPathUnits="userSpaceOnUse" id="clipPath3431"><path d="m -9.5,184.205 54,0 0,-128.977 -54,0 0,128.977 z" clip-rule="evenodd" id="path3433" inkscape:connector-curvature="0"/></clipPath><clipPath clipPathUnits="userSpaceOnUse" id="clipPath3437"><path d="m 0,462 680.315,0 0,-462.047 L 0,-0.047 0,462 z" id="path3439" inkscape:connector-curvature="0"/></clipPath><clipPath clipPathUnits="userSpaceOnUse" id="clipPath3443"><path d="m 0.015,462.075 680.31,0 0,-462.06 -680.31,0 0,462.06 z" id="path3445" inkscape:connector-curvature="0"/></clipPath><clipPath clipPathUnits="userSpaceOnUse" id="clipPath3453"><path d="m 0,462 680.315,0 0,-462.047 L 0,-0.047 0,462 z" id="path3455" inkscape:connector-curvature="0"/></clipPath><clipPath clipPathUnits="userSpaceOnUse" id="clipPath3459"><path d="m 0.015,462.075 680.31,0 0,-462.06 -680.31,0 0,462.06 z" id="path3461" inkscape:connector-curvature="0"/></clipPath></defs><sodipodi:namedview pagecolor="#ffffff" bordercolor="#666666" borderopacity="1" objecttolerance="10" gridtolerance="10" guidetolerance="10" inkscape:pageopacity="0" inkscape:pageshadow="2" inkscape:window-width="1238" inkscape:window-height="1031" id="namedview2987" showgrid="false" fit-margin-left="0.1" fit-margin-bottom="0.1" fit-margin-top="0.1" fit-margin-right="0.1" inkscape:zoom="2.0564329" inkscape:cx="206.82636" inkscape:cy="46.777212" inkscape:window-x="676" inkscape:window-y="-14" inkscape:window-maximized="0" inkscape:current-layer="g2993"/><g id="g2993" inkscape:groupmode="layer" inkscape:label="ws_guide_dk" transform="matrix(1.25,0,0,-1.25,-721.95495,609.71115)"><g id="g3518" transform="matrix(4.5007317,0,0,4.5007317,-2022.1767,-1536.7267)"><path id="path3363" style="fill:#773373;fill-opacity:1;fill-rule:nonzero;stroke:none" d="m 635.635,446.305 -0.459,-5.975 c -0.055,-0.724 0.52,-1.312 1.282,-1.312 l 3.666,0 0.121,1.582 -2.935,0 c -0.04,0 -0.064,0.031 -0.062,0.053 0,0 0.107,1.403 0.126,1.644 0.265,0 2.613,0 2.613,0 0.418,0 0.754,0.27 0.781,0.628 l 0.26,3.38 c 0.048,0.629 -1.823,0.883 -2.574,0.883 -1.046,0 -2.769,-0.235 -2.819,-0.883 z m 3.329,-0.507 c -0.004,-0.049 -0.162,-2.104 -0.164,-2.132 -0.005,-0.007 -0.014,-0.016 -0.021,-0.021 -0.034,0 -1.077,0 -1.305,0 0.019,0.248 0.162,2.106 0.166,2.153 0.051,0 1.274,0 1.324,0" inkscape:connector-curvature="0"/><path id="path3365" style="fill:#773373;fill-opacity:1;fill-rule:nonzero;stroke:none" d="m 586.69,447.195 -0.119,-1.601 c 0,0 2.592,0 2.853,0 -0.016,-0.206 -0.075,-0.977 -0.093,-1.22 -0.217,0.033 -0.808,0.079 -1.459,0.079 -1.245,0 -1.853,-0.658 -1.903,-1.311 l -0.215,-2.802 c -0.072,-0.937 0.97,-1.312 1.334,-1.312 l 3.874,0 0.526,6.856 c 0.054,0.698 -0.591,1.311 -1.38,1.311 l -3.418,0 z m 2.532,-4.231 c -0.019,-0.243 -0.174,-2.269 -0.193,-2.512 -0.229,0 -1.254,0 -1.299,0 0.004,0.05 0.189,2.463 0.193,2.512 0.045,0 1.07,0 1.299,0" inkscape:connector-curvature="0"/><path id="path3367" style="fill:#773373;fill-opacity:1;fill-rule:nonzero;stroke:none" d="m 605.919,447.195 -0.12,-1.601 c 0,0 2.592,0 2.853,0 -0.016,-0.206 -0.075,-0.977 -0.094,-1.22 -0.215,0.033 -0.807,0.079 -1.458,0.079 -1.245,0 -1.853,-0.658 -1.903,-1.311 l -0.215,-2.802 c -0.028,-0.937 0.97,-1.312 1.334,-1.312 l 3.881,0 0.52,6.856 c 0.054,0.698 -0.591,1.311 -1.381,1.311 l -3.417,0 z m 2.578,-4.231 c -0.018,-0.243 -0.174,-2.269 -0.192,-2.512 -0.228,0 -1.23,0 -1.275,0 0.004,0.05 0.189,2.463 0.193,2.512 0.045,0 1.047,0 1.274,0" inkscape:connector-curvature="0"/><path id="path3369" style="fill:#773373;fill-opacity:1;fill-rule:nonzero;stroke:none" d="m 594.185,447.217 c -0.762,0 -1.427,-0.589 -1.483,-1.312 l -0.431,-5.575 c -0.056,-0.724 0.519,-1.312 1.281,-1.312 l 3.191,0 0.13,1.69 c 0,0 -2.337,0 -2.339,0 -0.042,0.004 -0.125,0.071 -0.13,0.105 0,0.005 0.341,4.402 0.362,4.671 0.262,0 2.329,0 2.329,0 l 0.133,1.733 -3.043,0" inkscape:connector-curvature="0"/><path id="path3371" style="fill:#773373;fill-opacity:1;fill-rule:nonzero;stroke:none" d="m 622.974,449.741 -1.926,0 c 0,0 -0.035,-0.254 -0.064,-0.634 0,0 -0.135,-1.763 -0.156,-2.035 -0.324,0.031 -1.142,0.094 -1.897,0.094 -1.051,0 -1.716,-0.491 -1.779,-1.312 l -0.423,-5.514 c -0.039,-0.634 0.953,-1.312 1.679,-1.312 l 3.893,0 0.823,10.713 -0.15,0 z m -3.755,-4.325 c 0.009,0.12 0.023,0.12 0.092,0.12 0,0 1.154,0 1.399,0 -0.02,-0.262 -0.368,-4.79 -0.388,-5.053 -0.244,0 -1.435,0 -1.482,0 0.004,0.051 0.379,4.933 0.379,4.933" inkscape:connector-curvature="0"/><path id="path3373" style="fill:#773373;fill-opacity:1;fill-rule:nonzero;stroke:none" d="m 597.826,439.025 2.29,0 c 0,0 0.232,3.025 0.302,3.926 0.364,-0.839 1.603,-3.917 1.603,-3.917 l 2.308,0 c -10e-4,0.001 -1.998,4.281 -2.245,4.855 0.113,0.131 2.91,3.327 2.911,3.328 l -2.005,0 c -0.47,0 -0.728,-0.353 -0.765,-0.407 -0.003,-0.004 -1.656,-1.885 -1.656,-1.885 0.059,0.762 0.374,4.87 0.374,4.87 l -2.289,0.002 -0.828,-10.772" inkscape:connector-curvature="0"/><path id="path3375" style="fill:#773373;fill-opacity:1;fill-rule:nonzero;stroke:none" d="m 616.141,447.196 c -0.058,10e-4 -1.318,0.007 -2.226,-0.455 0.012,0.155 0.035,0.454 0.035,0.454 l -1.998,0 -0.628,-8.174 2.072,0 0.439,5.72 c 0.026,0.204 0.123,0.368 0.296,0.494 0.594,0.435 1.835,0.257 1.847,0.255 l 0.344,-0.055 0.144,1.76 -0.325,0.001" inkscape:connector-curvature="0"/><path id="path3377" style="fill:#773373;fill-opacity:1;fill-rule:nonzero;stroke:none" d="m 644.741,449.744 -2.265,0 -0.817,-10.77 2.255,0 0.827,10.77" inkscape:connector-curvature="0"/><path id="path3379" style="fill:#773373;fill-opacity:1;fill-rule:nonzero;stroke:none" d="m 648.708,449.744 -2.275,0 -0.83,-10.77 2.262,0 0.843,10.77" inkscape:connector-curvature="0"/><path id="path3383" style="fill:#773373;fill-opacity:1;fill-rule:nonzero;stroke:none" d="m 634.186,445.474 0.213,2.994 c 0.056,0.723 -0.519,1.312 -1.282,1.312 l -4.314,0 c 0,0 -0.024,-0.293 -0.077,-0.982 0,0 -0.105,-1.465 -0.179,-2.499 l 2.147,0 c 0.055,0.782 0.123,1.766 0.135,1.916 0.249,0 1.595,0 1.643,0 -0.004,-0.049 -0.201,-2.841 -0.205,-2.89 -0.034,0 -5.84,0 -5.84,0 l 0.405,-1.368 1.542,0 -0.42,-4.948 4.483,-0.007 c 0.779,0 1.428,0.589 1.483,1.312 l 0.289,3.538 c 0.03,0.388 -0.129,0.655 -0.47,0.799 0.266,0.17 0.418,0.444 0.447,0.823 z m -2.042,-1.724 c -0.023,-0.295 -0.237,-2.885 -0.26,-3.184 -0.047,0 -1.322,0 -1.569,0 0.013,0.167 0.167,2.026 0.274,3.331 0.647,0 1.186,0 1.407,0 0.126,0 0.154,-0.071 0.148,-0.147" inkscape:connector-curvature="0"/><path id="path3385" style="fill:#773373;fill-opacity:1;fill-rule:nonzero;stroke:none" d="m 584.512,449.744 -4.468,0 -0.265,-3.442 2.155,0 c 0.061,0.767 0.137,1.723 0.149,1.878 0.248,0 1.589,0 1.636,0 -0.004,-0.05 -0.223,-2.804 -0.227,-2.853 -0.03,0 -5.848,0 -5.848,0 l 0.415,-1.37 1.535,0 -0.378,-4.984 2.367,0 c 0,0 0.316,4.552 0.337,4.814 0.263,0 2.127,0 2.127,0 0.762,0 1.427,0.589 1.483,1.313 l 0.263,3.333 c 0.056,0.723 -0.519,1.311 -1.281,1.311" inkscape:connector-curvature="0"/></g></g></svg>