<?xml version="1.0" encoding="UTF-8" standalone="no"?>
<!-- Created with Inkscape (http://www.inkscape.org/) -->
<svg xmlns:dc="http://purl.org/dc/elements/1.1/" xmlns:cc="http://creativecommons.org/ns#" xmlns:rdf="http://www.w3.org/1999/02/22-rdf-syntax-ns#" xmlns:svg="http://www.w3.org/2000/svg" xmlns="http://www.w3.org/2000/svg" xmlns:sodipodi="http://sodipodi.sourceforge.net/DTD/sodipodi-0.dtd" xmlns:inkscape="http://www.inkscape.org/namespaces/inkscape" id="svg3213" version="1.1" inkscape:version="0.48.5 r10040" width="295.94153" height="101.89454" sodipodi:docname="Radio_Shack_New_Logo.svg">
  <metadata id="metadata3219">
    <rdf:RDF>
      <cc:Work rdf:about="">
        <dc:format>image/svg+xml</dc:format>
        <dc:type rdf:resource="http://purl.org/dc/dcmitype/StillImage"/>
      </cc:Work>
    </rdf:RDF>
  </metadata>
  <defs id="defs3217">
    <clipPath clipPathUnits="userSpaceOnUse" id="clipPath18">
      <path inkscape:connector-curvature="0" d="M 4589.77,0 0,0 l 0,3614.81 4589.77,0 0,-3614.81 z" id="path20"/>
    </clipPath>
  </defs>
  <sodipodi:namedview pagecolor="#ffffff" bordercolor="#666666" borderopacity="1" objecttolerance="10" gridtolerance="10" guidetolerance="10" inkscape:pageopacity="0" inkscape:pageshadow="2" inkscape:window-width="1366" inkscape:window-height="706" id="namedview3215" showgrid="false" inkscape:zoom="1.6378423" inkscape:cx="198.48803" inkscape:cy="9.0536779" inkscape:window-x="-8" inkscape:window-y="-8" inkscape:window-maximized="1" inkscape:current-layer="svg3213" fit-margin-top="0" fit-margin-left="0" fit-margin-right="0" fit-margin-bottom="0"/>
  <g id="g3438" transform="translate(-3.0430007,-11.471021)">
    <path id="path22" style="fill:black;fill-opacity:1;fill-rule:evenodd;stroke:none" d="m 26.155524,33.942403 3.51062,0 c 3.086437,-0.0076 5.056099,1.258109 5.051901,3.180103 -0.0063,2.508664 0.115993,4.427301 -0.05841,6.763069 -0.175661,2.352554 -1.770327,3.173388 -5.056433,3.19521 l -3.447673,0 0,-13.138382 z m -13.291722,-2.453269 21.732213,0 c 8.196338,0.167859 10.813523,5.906984 10.092565,10.146281 -0.635684,3.737397 -5.481627,6.956107 -11.571495,6.835248 9.979178,0.198075 9.88803,6.106737 12.094798,16.146428 l 3.73555,0 0,2.53636 -10.138476,0 C 37.506701,66.956217 36.685784,66.48537 36.148461,65.058562 35.193763,62.523041 34.529794,58.905664 33.290234,54.464934 32.674527,52.260936 31.281123,50.555481 29.496016,49.75479 l -3.340492,-0.182128 0,15.044429 4.355538,0 0,2.532164 -17.100454,0 0,-2.532164 3.947721,0 0,-30.674688 -4.494527,0 0,-2.453269" inkscape:connector-curvature="0"/>
    <path id="path24" style="fill:black;fill-opacity:1;fill-rule:evenodd;stroke:none" d="m 37.272621,79.930095 c -18.8514,0 -34.2296203,-15.379309 -34.2296203,-34.229957 0,-18.851487 15.3782203,-34.229117 34.2296203,-34.229117 18.850816,0 34.229285,15.37763 34.229285,34.229117 0,18.850648 -15.378469,34.229957 -34.229285,34.229957 l 0,0 z m 0,-3.67361 c -16.829278,0 -30.55601,-13.727569 -30.55601,-30.556347 0,-16.828777 13.726732,-30.555507 30.55601,-30.555507 16.828945,0 30.555759,13.72673 30.555759,30.555507 0,16.828778 -13.726814,30.556347 -30.555759,30.556347 l 0,0" inkscape:connector-curvature="0"/>
    <path id="path26" style="fill:#ed1c24;fill-opacity:1;fill-rule:evenodd;stroke:none" d="m 290.63158,96.050263 c 1.15205,0 2.23626,0.219554 3.25756,0.65743 1.01883,0.442811 1.93035,1.078041 2.72963,1.913089 0.77091,0.794345 1.35557,1.708338 1.76261,2.730868 0.39964,1.02624 0.60316,2.11168 0.60316,3.26002 0,1.16438 -0.21092,2.26462 -0.6266,3.30196 -0.4206,1.03487 -1.0287,1.94763 -1.82798,2.7358 -0.79928,0.80174 -1.7108,1.42094 -2.7321,1.84895 -1.0213,0.42678 -2.07343,0.64263 -3.16628,0.64263 -1.11381,0 -2.17952,-0.22325 -3.19342,-0.6673 -1.0176,-0.44281 -1.92789,-1.0805 -2.72716,-1.91555 -0.77584,-0.80175 -1.36914,-1.71574 -1.77248,-2.73827 -0.41074,-1.02254 -0.61549,-2.08824 -0.61549,-3.20822 0,-0.77955 0.10114,-1.53935 0.3059,-2.27572 0.20105,-0.74254 0.50201,-1.46288 0.90905,-2.16348 0.75241,-1.300063 1.75151,-2.313963 2.99113,-3.036767 1.24209,-0.724039 2.60752,-1.08544 4.10247,-1.08544 l 0,0 z m 0.0222,1.434507 c -0.94605,0 -1.82798,0.168984 -2.64082,0.509417 -0.81655,0.340434 -1.54552,0.84245 -2.19679,1.503581 -0.67593,0.694432 -1.20014,1.481382 -1.56772,2.363302 -0.36264,0.88192 -0.54641,1.78974 -0.54641,2.7321 0,0.94236 0.17267,1.83908 0.51681,2.69016 0.34043,0.84986 0.83628,1.60966 1.48754,2.27326 0.66484,0.6932 1.42341,1.22606 2.2708,1.59362 0.85355,0.37127 1.73794,0.55629 2.65439,0.55629 0.89426,0 1.76631,-0.18008 2.61493,-0.53655 0.84738,-0.36017 1.61829,-0.87452 2.31025,-1.54676 0.65004,-0.63892 1.15576,-1.38763 1.51345,-2.24242 0.35771,-0.85354 0.53656,-1.73917 0.53656,-2.65192 0,-1.0139 -0.16405,-1.95133 -0.49338,-2.80488 -0.33551,-0.85478 -0.82888,-1.62199 -1.48632,-2.299155 -0.67223,-0.709237 -1.4271,-1.243323 -2.26708,-1.603492 -0.84246,-0.356468 -1.74164,-0.536553 -2.70621,-0.536553 l 0,0 z m -1.60102,2.048769 1.76261,0 c 1.3161,0 2.54462,0.201053 3.22795,0.849851 0.58342,0.55382 0.72527,1.13724 0.72527,2.03766 0,0.63154 -0.20722,1.14342 -0.53656,1.61089 -0.60439,0.85849 -1.35309,0.9547 -1.98832,1.11505 l 2.84065,4.28872 -1.9723,0 -2.68153,-4.29489 -1.23099,0.008 0,4.28996 -1.74657,-0.004 0.003,-9.91328 1.59733,0.0111 z m 0.15542,1.355571 -0.0173,2.86284 1.89212,-0.0173 c 0.6599,0 1.11505,-0.0863 1.42218,-0.30096 0.31083,-0.2171 0.4835,-0.67347 0.4835,-1.13109 0,-0.48227 -0.16404,-0.83875 -0.49338,-1.06693 -0.33303,-0.23066 -0.84121,-0.34414 -1.52948,-0.34414 l -1.0028,0 -0.75487,-0.003" inkscape:connector-curvature="0"/>
    <path id="path28" style="fill:#ed1c24;fill-opacity:1;fill-rule:nonzero;stroke:none" d="m 276.87346,91.82106 -7.37126,10.24533 7.27558,10.82354 -8.16765,0 -5.41918,-9.66221 0,9.66221 -7.18954,0 0,-29.021774 7.18954,0 0,16.732014 6.27752,-8.77911 7.40499,0" inkscape:connector-curvature="0"/>
    <path id="path30" style="fill:#ed1c24;fill-opacity:1;fill-rule:nonzero;stroke:none" d="m 238.70796,110.53708 c -2.02367,-1.93905 -3.33906,-4.62561 -3.33906,-7.75197 0,-3.280225 1.17222,-5.86 3.22273,-7.747761 2.04501,-1.885653 5.01444,-2.833398 8.59786,-2.833398 0.86522,0 1.76417,0.08431 2.70236,0.259242 0.9375,0.168613 1.90941,0.429261 2.93019,0.784752 l -0.78056,5.475701 c -0.67043,-0.369543 -1.04281,-0.793183 -1.69947,-0.968821 -0.66492,-0.175638 -1.32365,-0.570473 -1.98788,-0.570473 -1.69947,0 -3.05409,0.498813 -4.06455,1.496438 -1.00289,1.005354 -1.5033,2.36058 -1.5033,4.06638 0,1.67208 0.57681,2.96126 1.60173,4.01228 1.39317,1.4297 2.50137,1.651 4.2917,1.651 0.7489,0 1.47232,-0.25011 2.17097,-0.43769 0.68902,-0.18758 1.36013,-0.48055 2.01198,-0.87608 l -0.14937,5.11248 c -0.88106,0.29788 -1.55217,0.68499 -2.61288,0.83955 -1.0614,0.16159 -2.21434,0.24097 -3.45814,0.24097 -3.25715,0 -5.90169,-0.81496 -7.93431,-2.7526" inkscape:connector-curvature="0"/>
    <path id="path32" style="fill:#ed1c24;fill-opacity:1;fill-rule:nonzero;stroke:none" d="m 218.58825,96.93073 c -1.00908,0.279616 -3.12017,0.876084 -4.07212,1.618683 l 0,-4.87291 c 1.12059,-0.467198 3.04308,-0.863438 4.34538,-1.088958 1.30231,-0.227627 2.74091,-0.346358 4.30478,-0.344953 5.19616,0.0042 5.99117,0.817772 7.5227,2.444183 1.53014,1.627816 1.99958,4.181597 1.99958,7.664855 0,0 -0.0743,4.59119 0,6.11854 0.10737,2.23763 0.74752,4.34459 0.74752,4.34459 l -6.42207,0 0,-2.19689 c 0.15212,-0.10046 -0.1356,-0.0365 -0.1652,-0.006 -1.57006,1.66013 -2.17991,1.59339 -3.23374,2.08448 -1.15226,0.53675 -2.53992,0.49881 -4.16712,0.49881 -2.0395,0 -3.71694,-0.67094 -4.87264,-1.88425 -0.97466,-1.02221 -1.56938,-2.6697 -1.56938,-4.58908 0,-2.21655 0.78813,-3.65538 2.39055,-4.94808 1.54873,-1.24914 4.46034,-1.60814 8.11397,-1.60814 l 2.39192,0 0.4481,-0.26557 c -0.0434,-1.760598 -0.52657,-2.14349 -1.40625,-2.661974 -0.76679,-0.451742 -2.06497,-0.569068 -3.6667,-0.569068 -0.78813,0 -1.68639,-0.01686 -2.68928,0.262052 z m 2.07736,7.44285 c -0.89275,0.43488 -1.33604,1.13462 -1.33604,2.10063 0,0.62247 0.19273,1.13814 0.57682,1.54703 0.0626,0.0745 0.13285,0.14613 0.20719,0.21357 0.47631,0.43488 1.1082,0.64846 1.89564,0.64846 0.97949,0 1.81786,-0.25503 2.51789,-0.76719 0.18034,-0.12084 0.34416,-0.25643 0.48252,-0.40607 0.78468,-0.84518 1.35874,-1.60534 1.34085,-3.42074 l 0,-0.41802 -0.0819,0 0,-0.078 -1.16533,0 c -0.97261,0 -1.81374,0.052 -2.52615,0.15316 -0.002,0 -0.007,0 -0.0117,0.001 -0.79157,0.0682 -1.42552,0.19531 -1.89977,0.42575" inkscape:connector-curvature="0"/>
    <path id="path34" style="fill:#ed1c24;fill-opacity:1;fill-rule:nonzero;stroke:none" d="m 226.35048,104.28927 c 0.0179,1.8154 -0.55617,2.57556 -1.34085,3.42074 -0.13836,0.14964 -0.30218,0.28523 -0.48252,0.40607 0.19411,-0.14051 0.37789,-0.3021 0.54928,-0.48406 0.7957,-0.83604 1.19218,-1.92499 1.19218,-3.26828 l 0,-0.49249 0.0819,0 0,0.41802" inkscape:connector-curvature="0"/>
    <path id="path36" style="fill:#ed1c24;fill-opacity:1;fill-rule:nonzero;stroke:none" d="m 225.03371,103.87125 c -0.94024,0 -1.75935,0.0155 -2.45662,0.0752 0.71241,-0.10117 1.55354,-0.15316 2.52615,-0.15316 l 1.16533,0 0,0.078 -1.23486,0" inkscape:connector-curvature="0"/>
    <path id="path40" style="fill:#ed1c24;fill-opacity:1;fill-rule:nonzero;stroke:none" d="m 220.04681,108.16034 c 0.47563,0.43488 1.10614,0.64846 1.89427,0.64846 0.9843,0 1.91491,-0.24168 2.58603,-0.69272 -0.70003,0.51216 -1.5384,0.76719 -2.51789,0.76719 -0.78744,0 -1.41933,-0.21358 -1.89564,-0.64846 -0.0743,-0.0674 -0.14455,-0.1391 -0.20719,-0.21357 0.0434,0.0492 0.0909,0.0948 0.14042,0.1391" inkscape:connector-curvature="0"/>
    <path id="path42" style="fill:#ed1c24;fill-opacity:1;fill-rule:nonzero;stroke:none" d="m 219.32957,106.47421 c 0,-0.96601 0.44329,-1.66575 1.33604,-2.10063 0.47426,-0.23044 1.10821,-0.3576 1.89978,-0.42575 -0.76267,0.1096 -1.37183,0.27611 -1.8337,0.50022 -0.89069,0.43488 -1.33397,1.13533 -1.33397,2.10064 0,0.58452 0.17071,1.07701 0.50867,1.47255 -0.38409,-0.40889 -0.57682,-0.92456 -0.57682,-1.54703" inkscape:connector-curvature="0"/>
    <path id="path44" style="fill:#ed1c24;fill-opacity:1;fill-rule:nonzero;stroke:none" d="m 202.43191,98.954084 c -0.56099,-0.764378 -1.10889,-1.14727 -2.25357,-1.14727 -1.19356,0 -1.55149,0.479141 -2.2756,1.445152 -0.71586,0.958984 -0.62569,2.250274 -0.62569,3.870364 l 0,9.92006 -6.74007,0 0,-29.174234 6.74007,0 0,10.879038 c 0.69727,-1.074906 1.61481,-1.594093 2.75467,-2.158244 1.14056,-0.563447 2.43804,-0.33863 3.88009,-0.231842 1.58452,0.117326 2.97906,0.599278 4.26485,2.097824 1.28235,1.502762 1.95346,2.749091 1.92662,6.580118 l 0,12.00734 -6.98029,0 0,-10.58116 c 0,-1.5695 -0.13079,-2.742768 -0.69108,-3.507146" inkscape:connector-curvature="0"/>
    <path id="path46" style="fill:#ed1c24;fill-opacity:1;fill-rule:nonzero;stroke:none" d="m 167.67499,93.513511 c -0.14662,-4.319298 0.96847,-6.164203 2.91643,-7.622704 1.94727,-1.4585 4.74324,-2.337395 8.3769,-2.337395 1.33466,0 2.6232,0.07798 3.8553,0.239571 1.23692,0.155966 2.4229,0.55572 3.56896,0.878894 l -0.23609,5.568438 c -1.10752,-0.466496 -2.46627,-0.669534 -3.48292,-0.902781 -1.01803,-0.233248 -2.00578,-0.198823 -2.95635,-0.198823 -1.46545,0 -2.75536,0.23395 -3.57585,0.694825 -0.82048,0.460875 -1.23072,0.942827 -1.23072,1.752871 0,0.570473 0.31594,1.650298 0.78056,1.949585 0.5011,0.320365 1.04832,0.778429 1.88257,1.055938 0.28083,0.09203 1.43171,0.519889 1.95346,0.688502 3.10572,0.999031 4.41766,1.87933 5.43363,2.639493 0.95677,0.732061 1.95209,2.031784 2.39468,2.971805 0.45016,0.94774 0.67249,2.04864 0.67249,3.32026 0,2.97602 -1.21627,5.65556 -3.27711,6.9595 -2.12898,1.35101 -4.85888,2.19407 -8.62332,2.19407 -1.36013,0 -2.72921,-0.0956 -4.09691,-0.28313 -1.36563,-0.18828 -2.72163,-0.47493 -4.07006,-0.85641 l 0.31388,-6.02299 c 1.27064,0.57047 2.8056,0.85079 4.0026,1.15008 1.20663,0.29718 2.33824,0.44682 3.40721,0.44682 1.42758,0 2.55368,-0.11311 3.37967,-0.64494 0.82805,-0.53113 1.23898,-1.25125 1.23898,-2.16527 0,-1.1276 -1.32296,-2.75541 -3.96544,-3.66944 -0.63256,-0.21498 -1.27684,-0.39062 -1.61618,-0.51286 -2.58603,-0.927371 -4.28,-1.996657 -5.38544,-3.22191 -1.10752,-1.21893 -1.59623,-2.172295 -1.66093,-4.071999" inkscape:connector-curvature="0"/>
    <path id="path48" style="fill:#ed1c24;fill-opacity:1;fill-rule:nonzero;stroke:none" d="m 158.24151,106.83743 c 0.79363,-1.03134 1.04143,-2.40413 1.04143,-4.13031 0,-1.73741 -0.39785,-3.124251 -1.19149,-4.161922 -0.79501,-1.037672 -2.15514,-1.556156 -3.47672,-1.556156 -1.29612,0 -2.35132,0.524807 -3.16009,1.568099 -0.80741,1.045399 -1.21077,2.425919 -1.21077,4.149979 0,1.69807 0.40336,3.06805 1.21077,4.11205 0.80877,1.04188 1.86397,1.5681 3.16009,1.5681 1.32158,0 2.83108,-0.51849 3.62678,-1.54984 z m -12.10074,3.61886 c -2.03881,-1.86107 -3.05547,-4.4289 -3.05547,-7.70912 0,-3.306217 1.01666,-5.8881 3.05547,-7.749164 2.03125,-1.860361 4.85819,-2.794055 8.47396,-2.794055 3.62058,0 6.45441,0.933694 8.49805,2.794055 2.03881,1.861064 3.06304,4.442947 3.06304,7.749164 0,3.28022 -1.02423,5.84805 -3.06304,7.70912 -2.04364,1.85966 -4.87747,2.79335 -8.49805,2.79335 -3.61577,0 -6.44271,-0.93369 -8.47396,-2.79335" inkscape:connector-curvature="0"/>
    <path id="path50" style="fill:#ed1c24;fill-opacity:1;fill-rule:nonzero;stroke:none" d="m 140.13033,92.584033 0,20.458357 -6.74351,0 0,-20.458357 6.74351,0" inkscape:connector-curvature="0"/>
    <path id="path52" style="fill:#ed1c24;fill-opacity:1;fill-rule:nonzero;stroke:none" d="m 140.13033,83.868156 0,5.255801 -6.74351,0 0,-5.255801 6.74351,0" inkscape:connector-curvature="0"/>
    <path id="path54" style="fill:#ed1c24;fill-opacity:1;fill-rule:nonzero;stroke:none" d="m 123.16108,102.73031 c 0,-1.64046 -0.39786,-2.936675 -1.19287,-3.909009 -0.79364,-0.966011 -1.8626,-1.45288 -3.21103,-1.45288 -1.17359,0 -1.9865,0.505838 -2.74091,1.516812 -0.75715,1.018 -1.13504,2.328267 -1.13504,3.936407 0,1.62009 0.37789,2.91138 1.13504,3.85702 0.75441,0.95336 1.62032,1.42688 2.89027,1.42688 1.32159,0 2.21572,-0.47352 2.97081,-1.42688 0.75578,-0.94564 1.28373,-2.26855 1.28373,-3.94835 z m 6.92798,-18.862154 0,29.021774 -6.33603,0 0,-2.48071 c -1.21833,1.2126 -1.0373,1.103 -2.2811,1.83717 -1.25,0.73206 -2.95704,1.1009 -4.53262,1.1009 -2.67138,0 -4.9814,-1.11776 -6.62924,-3.05751 -1.64854,-1.93764 -2.31828,-4.6516 -2.31828,-7.82855 0,-3.124255 0.50041,-5.469378 2.10903,-7.322714 1.60999,-1.854038 3.76513,-2.934565 6.46198,-2.934565 1.41244,0 2.67001,-0.03162 3.78372,0.519187 1.11371,0.550802 2.06428,0.770701 2.85379,1.865982 l 0,-10.720964 6.88875,0" inkscape:connector-curvature="0"/>
    <path id="path56" style="fill:#ed1c24;fill-opacity:1;fill-rule:nonzero;stroke:none" d="m 97.282846,107.78518 c 0.78469,-0.84588 1.360129,-1.60534 1.340855,-3.42144 l 0,-0.41731 -1.31401,0 c -2.019543,0 -3.478101,0.0681 -4.370857,0.50162 -0.892068,0.43488 -1.334661,1.13533 -1.334661,2.10064 0,0.69482 0.240914,1.25897 0.715857,1.68612 0.475632,0.43488 1.108202,0.64846 1.895645,0.64846 1.251373,0 2.409822,-0.38921 3.067171,-1.09809 z m 8.426464,5.10475 -6.422064,0 0,-2.19548 c 0.152808,-0.10257 -0.1356,-0.0365 -0.163821,-0.006 -1.570067,1.65873 -2.181299,1.59128 -3.235123,2.08307 -1.150877,0.53816 -2.539915,0.49881 -4.167802,0.49881 -2.038815,0 -3.715572,-0.67164 -4.871269,-1.88425 -0.974666,-1.02291 -1.568002,-2.6704 -1.568002,-4.58837 0,-2.21796 0.786066,-3.65679 2.388484,-4.94949 1.548729,-1.24914 4.461717,-1.60744 8.115341,-1.60744 l 2.390549,0 0.448098,-0.264161 c -0.04336,-1.762707 -0.524502,-2.144193 -1.404869,-2.662677 -0.768857,-0.453147 -2.066348,-0.570474 -3.668766,-0.570474 -0.787443,0 -1.685706,-0.01686 -2.688594,0.262755 -1.009083,0.278914 -3.118796,0.875382 -4.070748,1.618683 l 0,-4.871505 c 1.119903,-0.467198 3.041704,-0.86414 4.344012,-1.091065 1.30231,-0.227627 2.741595,-0.344954 4.304779,-0.344954 5.196155,0.0049 5.991865,0.817772 7.522005,2.444183 1.53083,1.627816 2.00027,4.1823 2.00027,7.665555 0,0 -0.0743,4.59049 0,6.11784 0.10944,2.23833 0.74752,4.34529 0.74752,4.34529" inkscape:connector-curvature="0"/>
    <path id="path58" style="fill:#ed1c24;fill-opacity:1;fill-rule:nonzero;stroke:none" d="m 74.502076,95.194721 c 0.780559,-0.564853 1.17015,-1.412835 1.17015,-2.541838 0,-1.21331 -0.436397,-2.106958 -1.307815,-2.678133 -0.8666,-0.570474 -2.248066,-0.85571 -4.129944,-0.85571 l -1.940386,0 0,6.918042 2.689282,0 c 1.563872,0 2.7354,-0.278211 3.518713,-0.842361 z m 6.771043,8.595739 2.795284,9.09947 -7.68445,0 -2.234988,-7.54331 c -0.384084,-1.18732 -0.905834,-2.46807 -1.563183,-2.92754 -0.664233,-0.45526 -1.693966,-0.83464 -3.094017,-0.83464 l -1.197684,0 0,11.30549 -7.079412,0 0,-28.973298 12.572926,0 c 3.588922,0 4.557393,0.811449 6.340841,1.888464 2.195753,1.32923 2.904727,3.840859 2.904727,6.207058 0,1.751466 -0.755091,3.182567 -1.674692,4.31157 -0.917536,1.127598 -2.837272,1.87933 -4.563588,2.262924 1.418636,0.518485 3.287435,1.668562 4.179503,4.573622 l 0.298733,0.63019" inkscape:connector-curvature="0"/>
  </g>
</svg>