<?xml version="1.0" encoding="UTF-8"?>
<!DOCTYPE svg PUBLIC "-//W3C//DTD SVG 1.1//EN" "http://www.w3.org/Graphics/SVG/1.1/DTD/svg11.dtd">
<svg version="1.1" xmlns="http://www.w3.org/2000/svg" xmlns:xlink="http://www.w3.org/1999/xlink" width="519px" height="222px" viewBox="-6.501 -4.348 173 74" enable-background="new">
<path fill-rule="evenodd" clip-rule="evenodd" d="M3.526,45.503c0,2.205,1.716,3.059,3.665,3.059c1.275,0,3.224-0.367,3.224-2.063  c0-1.784-2.482-2.085-4.916-2.735c-2.46-0.651-4.942-1.6-4.942-4.71c0-3.384,3.2-5.008,6.194-5.008c3.456,0,6.631,1.508,6.631,5.333  H9.859c-0.117-1.994-1.533-2.505-3.272-2.505c-1.16,0-2.504,0.488-2.504,1.878c0,1.278,0.788,1.441,4.94,2.508  c1.206,0.302,4.917,1.065,4.917,4.823c0,3.035-2.388,5.312-6.888,5.312c-3.666,0-7.096-1.809-7.051-5.892H3.526L3.526,45.503z"/>
<path fill-rule="evenodd" clip-rule="evenodd" d="M18.166,45.804c0.091,2.089,1.113,3.037,2.944,3.037  c1.322,0,2.39-0.809,2.598-1.551h2.901c-0.929,2.828-2.901,4.035-5.613,4.035c-3.781,0-6.125-2.597-6.125-6.31  c0-3.597,2.482-6.33,6.125-6.33c4.082,0,6.052,3.432,5.821,7.118H18.166L18.166,45.804L18.166,45.804z M23.522,43.717  c-0.302-1.668-1.021-2.55-2.621-2.55c-2.088,0-2.69,1.623-2.736,2.55H23.522L23.522,43.717z"/>
<path fill-rule="evenodd" clip-rule="evenodd" d="M28.045,42.696c0.185-3.086,2.946-4.011,5.636-4.011  c2.389,0,5.266,0.535,5.266,3.405v6.242c0,1.09,0.114,2.181,0.417,2.664h-3.34c-0.118-0.368-0.208-0.763-0.233-1.156  c-1.043,1.09-2.573,1.484-4.036,1.484c-2.272,0-4.082-1.137-4.082-3.597c0-2.713,2.04-3.362,4.082-3.644  c2.019-0.298,3.896-0.228,3.896-1.574c0-1.414-0.974-1.621-2.134-1.621c-1.252,0-2.065,0.509-2.18,1.807H28.045L28.045,42.696  L28.045,42.696z M35.652,45.132c-0.557,0.486-1.717,0.51-2.735,0.695c-1.022,0.208-1.951,0.557-1.951,1.762  c0,1.231,0.953,1.529,2.02,1.529c2.576,0,2.667-2.037,2.667-2.756V45.132L35.652,45.132z"/>
<path fill-rule="evenodd" clip-rule="evenodd" d="M52.269,50.234c0,1.971-0.696,5.309-6.217,5.309c-2.367,0-5.125-1.112-5.287-3.847  h3.271c0.299,1.229,1.297,1.645,2.458,1.645c1.831,0,2.667-1.252,2.642-2.967v-1.576H49.09c-0.72,1.251-2.156,1.854-3.595,1.854  c-3.595,0-5.125-2.735-5.125-6.031c0-3.109,1.785-5.936,5.15-5.936c1.574,0,2.781,0.535,3.57,1.925h0.045v-1.6h3.133V50.234  L52.269,50.234L52.269,50.234z M49.135,44.853c0-1.949-0.671-3.686-2.805-3.686c-1.853,0-2.667,1.623-2.667,3.408  c0,1.719,0.648,3.597,2.667,3.597C48.208,48.172,49.135,46.569,49.135,44.853L49.135,44.853z"/>
<path fill-rule="evenodd" clip-rule="evenodd" d="M54.19,42.696c0.187-3.086,2.948-4.011,5.638-4.011  c2.389,0,5.263,0.535,5.263,3.405v6.242c0,1.09,0.118,2.181,0.417,2.664h-3.337c-0.117-0.368-0.208-0.763-0.233-1.156  c-1.043,1.09-2.574,1.484-4.036,1.484c-2.273,0-4.082-1.137-4.082-3.597c0-2.713,2.042-3.362,4.082-3.644  c2.02-0.298,3.896-0.228,3.896-1.574c0-1.414-0.973-1.621-2.133-1.621c-1.252,0-2.063,0.509-2.18,1.807H54.19L54.19,42.696  L54.19,42.696z M61.799,45.132c-0.556,0.486-1.717,0.51-2.734,0.695c-1.022,0.208-1.948,0.557-1.948,1.762  c0,1.231,0.95,1.529,2.017,1.529c2.574,0,2.666-2.037,2.666-2.756V45.132L61.799,45.132z"/>
<path fill-rule="evenodd" clip-rule="evenodd" d="M71.242,39.011h2.41v2.202h-2.41v5.938c0,1.112,0.275,1.392,1.391,1.392  c0.347,0,0.67-0.024,1.019-0.094v2.574c-0.556,0.093-1.276,0.116-1.926,0.116c-2.018,0-3.779-0.468-3.779-2.854v-7.072h-1.995  v-2.202h1.995v-3.597h3.295V39.011L71.242,39.011z"/>
<path fill-rule="evenodd" clip-rule="evenodd" d="M77.364,45.804c0.09,2.089,1.112,3.037,2.943,3.037  c1.322,0,2.388-0.809,2.597-1.551h2.899c-0.927,2.828-2.899,4.035-5.61,4.035c-3.783,0-6.125-2.597-6.125-6.31  c0-3.597,2.482-6.33,6.125-6.33c4.08,0,6.052,3.432,5.819,7.118H77.364L77.364,45.804L77.364,45.804z M82.721,43.717  c-0.302-1.668-1.022-2.55-2.624-2.55c-2.086,0-2.689,1.623-2.733,2.55H82.721L82.721,43.717z"/>
<path fill-rule="evenodd" clip-rule="evenodd" fill="#5A9A98" d="M122.298,21.495c-5.862,1.569-9.956,6.904-9.956,12.974  c0,7.406,6.022,13.434,13.431,13.434c5.193,0,9.973-3.047,12.175-7.755c0.372-0.798,0.025-1.751-0.774-2.125  c-0.797-0.374-1.75-0.029-2.12,0.771c-1.677,3.591-5.319,5.913-9.28,5.913c-5.644,0-10.236-4.591-10.236-10.237  c0-4.627,3.12-8.696,7.587-9.888c0.853-0.229,1.357-1.104,1.13-1.956C124.025,21.773,123.149,21.266,122.298,21.495L122.298,21.495z  "/>
<path fill-rule="evenodd" clip-rule="evenodd" fill="#5A9A98" d="M107.082,34.467c0,10.306,8.384,18.692,18.69,18.692  c3.856,0,7.564-1.171,10.718-3.382c0.726-0.508,0.9-1.505,0.392-2.226c-0.506-0.723-1.501-0.896-2.223-0.392  c-2.614,1.837-5.688,2.806-8.887,2.806c-8.544,0-15.496-6.953-15.496-15.499c0-8.543,6.952-15.496,15.496-15.496  c1.354,0,2.704,0.18,4.013,0.528c0.852,0.229,1.73-0.279,1.955-1.131c0.228-0.852-0.277-1.727-1.13-1.956  c-1.577-0.421-3.207-0.635-4.838-0.635C115.466,15.777,107.082,24.161,107.082,34.467L107.082,34.467z"/>
<path fill-rule="evenodd" clip-rule="evenodd" fill="#5A9A98" d="M96.563,34.469c0,11.295,6.619,21.69,16.865,26.474  c0.8,0.371,1.749,0.027,2.122-0.77c0.374-0.8,0.029-1.751-0.771-2.125c-9.123-4.263-15.021-13.519-15.021-23.579  c0-14.345,11.67-26.018,26.015-26.018c11.761,0,22.096,7.93,25.13,19.283c0.229,0.854,1.104,1.36,1.955,1.131  c0.856-0.226,1.358-1.101,1.131-1.956c-3.405-12.746-15.011-21.652-28.216-21.652C109.668,5.257,96.563,18.362,96.563,34.469  L96.563,34.469z"/>
<path fill-rule="evenodd" clip-rule="evenodd" fill="#5A9A98" d="M101.821,34.467c0,13.209,10.746,23.952,23.951,23.952  c0.659,0,1.34-0.031,2.086-0.095c0.879-0.076,1.53-0.851,1.453-1.728c-0.074-0.881-0.849-1.531-1.727-1.455  c-0.653,0.055-1.248,0.084-1.813,0.084c-11.443,0-20.756-9.313-20.756-20.759c0-11.442,9.313-20.756,20.756-20.756  c5.544,0,10.758,2.162,14.677,6.083c0.623,0.623,1.637,0.623,2.261,0c0.624-0.626,0.624-1.638,0-2.261  c-4.523-4.524-10.539-7.013-16.938-7.013C112.567,10.521,101.821,21.263,101.821,34.467L101.821,34.467z"/>
<path fill-rule="evenodd" clip-rule="evenodd" fill="#5A9A98" d="M160.241,34.467C160.241,15.462,144.78,0,125.772,0  c-19.006,0-34.47,15.462-34.47,34.467c0,7.123,2.156,13.963,6.235,19.773c0.508,0.725,1.503,0.898,2.224,0.391  c0.723-0.508,0.898-1.5,0.393-2.226c-3.7-5.271-5.656-11.473-5.656-17.938c0-17.244,14.03-31.273,31.274-31.273  c17.246,0,31.274,14.029,31.277,31.273c0,2.896-0.403,5.791-1.217,8.622c-0.245,0.848,0.246,1.732,1.092,1.976  c0.848,0.246,1.734-0.243,1.978-1.092C159.802,40.852,160.241,37.657,160.241,34.467L160.241,34.467z"/>
</svg>