<?xml version="1.0" encoding="UTF-8" standalone="no"?>
<!-- Created with Inkscape (http://www.inkscape.org/) -->
<svg xmlns:dc="http://purl.org/dc/elements/1.1/" xmlns:cc="http://creativecommons.org/ns#" xmlns:rdf="http://www.w3.org/1999/02/22-rdf-syntax-ns#" xmlns:svg="http://www.w3.org/2000/svg" xmlns="http://www.w3.org/2000/svg" xmlns:sodipodi="http://sodipodi.sourceforge.net/DTD/sodipodi-0.dtd" xmlns:inkscape="http://www.inkscape.org/namespaces/inkscape" width="1175.9062" height="358.15622" id="svg2" version="1.1" inkscape:version="0.48.4 r9939" sodipodi:docname="New document 1">
  <defs id="defs4"/>
  <sodipodi:namedview id="base" pagecolor="#ffffff" bordercolor="#666666" borderopacity="1.0" inkscape:pageopacity="0.0" inkscape:pageshadow="2" inkscape:zoom="0.35" inkscape:cx="464.31249" inkscape:cy="113.54403" inkscape:document-units="px" inkscape:current-layer="layer1" showgrid="false" fit-margin-top="0" fit-margin-left="0" fit-margin-right="0" fit-margin-bottom="0" inkscape:window-width="1366" inkscape:window-height="706" inkscape:window-x="-8" inkscape:window-y="-8" inkscape:window-maximized="1"/>
  <metadata id="metadata7">
    <rdf:RDF>
      <cc:Work rdf:about="">
        <dc:format>image/svg+xml</dc:format>
        <dc:type rdf:resource="http://purl.org/dc/dcmitype/StillImage"/>
        <dc:title/>
      </cc:Work>
    </rdf:RDF>
  </metadata>
  <g inkscape:label="Layer 1" inkscape:groupmode="layer" id="layer1" transform="translate(89.312494,-287.74999)">
    <g id="g3017" transform="matrix(16.779609,0,0,16.779609,-89.326214,287.74733)">
      <path d="m 87.65625,287.75 c -98.580203,0 -176.96875,80.48799 -176.96875,178.53125 0,99.11715 78.388547,179.625 176.96875,179.625 99.10037,0 176.4375,-80.49338 176.4375,-179.59375 C 264.11053,368.26924 186.75662,287.75 87.65625,287.75 z m 0,75.78125 c 80.49178,0 139.45728,51.11683 164.375,102.78125 -24.91772,52.45306 -83.88322,103.8125 -164.375,103.8125 -81.0119523,0 -139.50531,-51.37622 -164.40625,-103.8125 24.90094,-51.64764 83.4110774,-102.75 164.40625,-102.75 l 0,-0.0312 z m 0,8.125 c -52.436278,0 -95.1875,42.44042 -95.1875,94.625 0,52.97323 42.751222,95.1875 95.1875,95.1875 52.43628,0 94.625,-42.21658 94.625,-95.15625 0,-52.18458 -42.18872,-94.65625 -94.625,-94.65625 z" transform="matrix(0.05959614,0,0,0.05959614,5.3234979,-17.148631)" id="path3003" inkscape:connector-curvature="0"/>
      <path d="m 433.28125,309 c -92.55632,0 -157.0625,70.2602 -157.0625,155.71875 l 0,1.03125 c 0,86.51566 65.82038,154.96875 154.71875,154.96875 57.93999,0 92.5584,-20.72373 123.5,-54.03125 L 512.21875,524.25 C 488.60984,545.7279 467.34786,559.65625 433,559.65625 c -51.64764,0 -87.5625,-43.30664 -87.5625,-94.9375 l 0,-0.78125 c 0,-51.64764 36.70351,-93.875 87.5625,-93.875 30.15296,0 53.75331,12.85077 77.09375,34.09375 L 552.3125,355.375 C 524.25699,327.85644 490.1809,309 433.28125,309 z" transform="matrix(0.05959614,0,0,0.05959614,5.3234979,-17.148631)" id="path3005" inkscape:connector-curvature="0"/>
      <path d="m 579.40625,314.21875 0,301.21875 143.40625,0 c 67.8903,0 112.71875,-27.49413 112.71875,-82.53125 l 0,-1.0625 c 0,-40.37174 -21.47341,-60.58093 -56.375,-73.9375 21.51146,-12.04776 39.59375,-30.92061 39.59375,-65 l 0,-0.78125 c 0,-20.7396 -6.82523,-37.51273 -20.71875,-51.40625 -17.283,-17.0313 -44.29161,-26.5 -78.65625,-26.5 l -139.96875,0 z m 64.46875,57.9375 65.5625,0 c 28.05551,0 43.5,11.2718 43.5,30.9375 l 0,1.0625 c 0,22.28332 -18.60443,31.71875 -47.96875,31.71875 l -61.09375,0.0312 0,-63.75 z m 0,118.8125 76.84375,0 c 33.79413,0 49,12.59538 49,32.78125 l 0,1.03125 c 0,22.28332 -17.81041,32.5 -46.90625,32.5 l -78.9375,0.0312 0,-66.34375 z" transform="matrix(0.05959614,0,0,0.05959614,5.3234979,-17.148631)" id="path3007" inkscape:connector-curvature="0"/>
      <path d="m 965.5,309.78125 c -61.34625,0 -105.375,36.16886 -105.375,90.9375 l 0,0.8125 c 0,59.80253 39.30061,76.5917 99.875,92.0625 50.3388,13.0881 60.8125,21.47039 60.8125,38.25 l 0,1.0625 c 0,17.55147 -16.5329,28.3125 -43.53125,28.3125 -34.61633,0 -62.92233,-14.18543 -89.9375,-36.46875 l -39.3125,46.9375 c 36.17684,32.25041 82.31374,48 127.9375,48 l 0,-0.0312 c 65.02095,0 110.62505,-33.57709 110.62505,-93.3125 l 0,-0.78125 c 0,-52.68797 -34.593,-74.49456 -95.68755,-90.46875 C 939.00692,421.70362 925.875,415.1657 925.875,395.5 l 0,-0.78125 c 0,-14.68216 13.37461,-26.46875 38.8125,-26.46875 25.43789,0 51.6596,11.25194 78.4063,29.84375 l 34.3437,-50.03125 C 1047.0161,323.68173 1009.5465,309.78125 965.5,309.78125 z" transform="matrix(0.05959614,0,0,0.05959614,5.3234979,-17.148631)" id="path3009" inkscape:connector-curvature="0"/>
    </g>
  </g>
</svg>